<?xml version="1.0" encoding="UTF-8" standalone="no"?>
<svg width="512px" height="512px" viewBox="0 0 512 512" version="1.1" xmlns="http://www.w3.org/2000/svg" xmlns:xlink="http://www.w3.org/1999/xlink" xmlns:sketch="http://www.bohemiancoding.com/sketch/ns">
    <!-- Generator: bin/sketchtool 1.3 (252) - http://www.bohemiancoding.com/sketch -->
    <title>icons/checkmark</title>
    <desc>Created with bin/sketchtool.</desc>
    <defs></defs>
    <g id="Icons" stroke="none" stroke-width="1" fill="none" fill-rule="evenodd" sketch:type="MSPage">
        <g id="icons/checkmark" sketch:type="MSArtboardGroup" fill="#3BB3F5">
            <path d="M424.365385,136.614583 C425.455134,138.79515 426,140.43055 426,141.520833 C426,142.611117 425.455134,144.246517 424.365385,146.427083 L220.855769,408.09375 C217.586522,411.3646 215.134624,413 213.5,413 C210.775627,413 208.051296,411.637166 205.326923,408.911458 L90.0865385,297.703125 L87.6346154,295.25 C86.5448663,293.069434 86,291.434033 86,290.34375 C86,289.798608 86.5448663,288.435775 87.6346154,286.255208 L89.2692308,284.619792 C104.525717,268.265543 116.512777,255.727474 125.230769,247.005208 C128.500016,243.734359 130.679482,242.098958 131.769231,242.098958 C133.948729,242.098958 136.673061,243.734359 139.942308,247.005208 L205.326923,310.786458 L368.788462,100.635417 C369.878211,99.5451334 371.51281,99 373.692308,99 C375.326931,99 377.233963,99.5451334 379.413462,100.635417 L424.365385,136.614583 Z" id="icon-checkmark" sketch:type="MSShapeGroup"></path>
        </g>
    </g>
</svg>