<?xml version="1.0" encoding="UTF-8" standalone="no"?>
<svg width="512px" height="512px" viewBox="0 0 512 512" version="1.1" xmlns="http://www.w3.org/2000/svg" xmlns:xlink="http://www.w3.org/1999/xlink" xmlns:sketch="http://www.bohemiancoding.com/sketch/ns">
    <!-- Generator: bin/sketchtool 1.3 (252) - http://www.bohemiancoding.com/sketch -->
    <title>icons/phone</title>
    <desc>Created with bin/sketchtool.</desc>
    <defs></defs>
    <g id="Icons" stroke="none" stroke-width="1" fill="none" fill-rule="evenodd" sketch:type="MSPage">
        <g id="icons/phone" sketch:type="MSArtboardGroup" fill="#3BB3F5">
            <path d="M408.747969,324.478261 C427.813103,343.500095 427.813103,364.423799 408.747969,387.25 C401.121915,396.126856 393.65485,402.784398 386.346548,407.222826 C379.038247,411.661254 373.001045,414.197461 368.234762,414.831522 C363.468478,415.465583 356.636908,415.782609 347.739845,415.782609 C322.955171,415.782609 293.404656,403.101576 259.087415,377.73913 C231.760723,358.083235 206.97642,336.842505 184.733764,314.016304 C156.136063,284.215431 131.034013,250.293668 109.426861,212.25 C90.3617265,176.742576 84.6422721,147.576201 92.2683257,124.75 C96.0813525,112.702838 104.978282,102.240986 118.95938,93.3641304 L119.912632,92.4130435 C131.351712,84.8043098 141.519631,81 150.416694,81 C162.491279,81 173.294693,86.7064647 182.82726,98.1195652 L183.780512,99.0706522 C198.397115,118.092486 208.565033,132.9927 214.284574,143.771739 C223.817141,163.427635 223.499393,180.230003 213.331322,194.179348 C205.705268,204.324326 201.892299,211.61592 201.892299,216.054348 C201.892299,217.956531 206.023016,223.662996 214.284574,233.173913 L215.237826,234.125 C230.489933,251.244651 238.751367,260.438399 240.022376,261.706522 C240.657881,261.706522 241.293375,262.023548 241.92888,262.657609 C242.564384,263.29167 243.199879,263.925721 243.835384,264.559783 L245.741888,266.461957 C258.451977,279.143179 267.666654,288.019902 273.386194,293.092391 L274.339446,294.043478 C280.058986,299.115967 283.871956,301.652174 285.778469,301.652174 C288.955991,301.652174 298.170668,296.896787 313.422775,287.38587 C317.871307,284.215564 323.273013,282.630435 329.628058,282.630435 C341.067139,282.630435 354.889153,287.385822 371.094517,296.896739 C387.299881,306.407656 399.850906,315.601405 408.747969,324.478261 L408.747969,324.478261 Z M397.308946,376.788043 C405.570504,365.374943 409.383473,357.290785 408.747969,352.535326 C408.112465,347.779868 404.617242,342.231916 398.262198,335.891304 C391.271649,328.282571 380.468235,320.198412 365.851632,311.638587 C351.235029,303.078762 339.160625,298.798913 329.628058,298.798913 C327.08604,298.798913 324.544061,299.432965 322.002043,300.701087 C303.572413,312.114188 291.815757,317.820652 286.731721,317.820652 C281.647685,317.820652 274.339493,313.699317 264.806926,305.456522 L263.853674,305.456522 C252.414594,295.945605 242.88217,286.751856 235.256116,277.875 L233.349612,275.972826 C232.714108,275.338765 231.443118,274.387688 229.536605,273.119565 C227.630091,271.217382 219.05091,261.706607 203.798802,244.586957 L203.798802,243.63587 C192.995226,231.588708 187.275772,222.711985 186.640268,217.005435 C186.004763,209.396701 191.088723,198.617823 201.892299,184.668478 C212.695875,170.719133 202.845703,145.674094 172.341488,109.532609 L171.388237,108.581522 C165.033192,100.972788 158.042748,97.1684783 150.416694,97.1684783 C145.332658,97.1684783 138.024466,100.021711 128.491899,105.728261 L126.585395,106.679348 C116.417324,113.019959 109.744627,120.628579 106.567105,129.505435 C100.21206,148.527269 105.613767,173.572308 122.772388,204.641304 C143.108531,242.050912 167.257338,275.021596 195.219535,303.554348 C214.920174,323.844304 239.068981,344.133957 267.666682,364.423913 C301.348419,388.518236 328.039206,400.565217 347.739845,400.565217 C359.178925,400.565217 368.075855,399.297114 374.430899,396.76087 C380.785944,394.224625 388.411883,387.567083 397.308946,376.788043 L397.308946,376.788043 Z" id="icon-phone" sketch:type="MSShapeGroup"></path>
        </g>
    </g>
</svg>