<?xml version="1.0" encoding="UTF-8" standalone="no"?>
<svg width="512px" height="512px" viewBox="0 0 512 512" version="1.1" xmlns="http://www.w3.org/2000/svg" xmlns:xlink="http://www.w3.org/1999/xlink" xmlns:sketch="http://www.bohemiancoding.com/sketch/ns">
    <!-- Generator: bin/sketchtool 1.3 (252) - http://www.bohemiancoding.com/sketch -->
    <title>icons/scherm</title>
    <desc>Created with bin/sketchtool.</desc>
    <defs></defs>
    <g id="Icons" stroke="none" stroke-width="1" fill="none" fill-rule="evenodd" sketch:type="MSPage">
        <g id="icons/scherm" sketch:type="MSArtboardGroup" fill="#3BB3F5">
            <path d="M417.651786,110 C423.21729,110 426,112.788167 426,118.364583 L426,320.635417 C426,326.211833 423.21729,329 417.651786,329 L94.3482143,329 C88.7827103,329 86,326.211833 86,320.635417 L86,118.364583 C86,112.788167 88.7827103,110 94.3482143,110 L417.651786,110 L417.651786,110 Z M401.714286,304.666667 L401.714286,134.333333 L110.285714,134.333333 L110.285714,304.666667 L401.714286,304.666667 L401.714286,304.666667 Z M290.910714,402 L221.089286,402 C203.380864,402 194.779759,400.225712 195.285714,396.677083 C195.285714,395.663189 196.297609,394.395841 198.321429,392.875 C200.345248,391.354159 203.507419,389.326402 207.808036,386.791667 C212.108652,384.256932 215.39731,382.102439 217.674107,380.328125 C219.950904,378.553811 221.089286,376.906258 221.089286,375.385417 L221.848214,341.166667 L256,341.166667 L290.151786,341.166667 C290.657741,361.951493 290.910714,373.357629 290.910714,375.385417 C290.910714,376.906258 292.049096,378.553811 294.325893,380.328125 C296.60269,382.102439 299.891348,384.256932 304.191964,386.791667 C308.492581,389.326402 311.654752,391.354159 313.678571,392.875 C319.75003,397.437523 316.96732,400.225689 305.330357,401.239583 L290.910714,402 L290.910714,402 Z" id="icon-scherm" sketch:type="MSShapeGroup"></path>
        </g>
    </g>
</svg>