<?xml version="1.0" encoding="UTF-8" standalone="no"?>
<svg width="200px" height="50px" viewBox="0 0 200 50" version="1.1" xmlns="http://www.w3.org/2000/svg" xmlns:xlink="http://www.w3.org/1999/xlink" xmlns:sketch="http://www.bohemiancoding.com/sketch/ns">
    <!-- Generator: bin/sketchtool 1.3 (252) - http://www.bohemiancoding.com/sketch -->
    <title>logo--small</title>
    <desc>Created with bin/sketchtool.</desc>
    <defs>
        <path d="M0.381081081,0.263434912 L0.381081081,26.7955972 L1.4988417,26.7955972 L1.4988417,22.9403662 C2.1957529,24.2360119 3.20694981,25.269397 4.53243243,26.0358243 C5.85830116,26.8014687 7.22007722,27.1846823 8.61583012,27.1846823 C10.9189189,27.1846823 12.8783784,26.3646286 14.4957529,24.726087 C16.1119691,23.0867624 16.9185328,21.1233307 16.9185328,18.8361834 C16.9185328,16.5478617 16.1119691,14.5863872 14.4957529,12.9462798 C12.8783784,11.308521 10.9189189,10.487293 8.61583012,10.487293 C7.17490347,10.487293 5.78339768,10.8775524 4.44633205,11.6549398 C3.10965251,12.4331101 2.12548263,13.4700181 1.4988417,14.7672296 L1.4988417,0.263434912 L0.381081081,0.263434912 L0.381081081,0.263434912 Z M3.57297297,24.0179833 C2.14362934,22.5677213 1.42625483,20.8508929 1.42625483,18.8714124 C1.42625483,16.8895833 2.14362934,15.1641434 3.57297297,13.689221 C5.00540541,12.215473 6.6965251,11.4768375 8.65096525,11.4768375 C10.6046332,11.4768375 12.2853282,12.2084271 13.6926641,13.6716065 C15.0996139,15.1343944 15.8034749,16.862183 15.8034749,18.853015 C15.8034749,20.8461957 15.1042471,22.5677213 13.7096525,24.0179833 C12.3135135,25.4674625 10.6328185,26.1939635 8.66795367,26.1939635 C6.7019305,26.1939635 5.00540541,25.4674625 3.57297297,24.0179833 L3.57297297,24.0179833 Z" id="path-1"></path>
        <path id="path-3" d="M12.992278,0.308841227 L12.992278,9.5772095 C12.992278,11.2016595 12.3830116,12.6182583 11.1610039,13.8207428 C9.93938224,15.0228358 8.52664093,15.6252523 6.92162162,15.6252523 C5.31776062,15.6252523 3.95096525,15.0228358 2.82239382,13.8207428 C1.69227799,12.6182583 1.12895753,11.2016595 1.12895753,9.5772095 L1.12895753,0.308841227 L0.0135135135,0.308841227 L0.0135135135,9.5772095 C0.0135135135,11.5332039 0.675289575,13.1960145 2.0007722,14.5640754 C3.32664093,15.9325278 4.96718147,16.6159711 6.92162162,16.6159711 C9.78339768,16.6159711 11.8057915,15.4123124 12.992278,13.0065606 L12.992278,16.226886 L14.1088803,16.226886 L14.1088803,0.308841227 L12.992278,0.308841227 L12.992278,0.308841227 Z"></path>
        <path id="path-5" d="M3.25212355,1.08779438 C2.36949807,1.60683553 1.71814672,2.2675757 1.2996139,3.06923201 L1.2996139,0.700274974 L0.182239382,0.700274974 L0.182239382,16.6183197 L1.2996139,16.6183197 L1.2996139,6.00537655 C1.2996139,4.75592003 1.77027027,3.65912267 2.71119691,2.71459304 C3.65482625,1.77202057 4.74054054,1.29956004 5.97335907,1.29956004 C7.20888031,1.29956004 8.33552124,1.81938406 9.35907336,2.85824922 L9.35907336,1.44165049 C8.35791506,0.686966227 7.31274131,0.310015528 6.22007722,0.310015528 C5.12548263,0.310015528 4.13667954,0.57031897 3.25212355,1.08779438 L3.25212355,1.08779438 Z"></path>
        <path d="M2.6984556,2.76900233 C1.06718147,4.40910973 0.252895753,6.37058424 0.252895753,8.65890593 C0.252895753,10.9460533 1.06718147,12.909485 2.6984556,14.5488095 C4.32972973,16.1873512 6.28416988,17.0074049 8.56254826,17.0074049 C10.0509653,17.0074049 11.4467181,16.6183197 12.7498069,15.8381923 C14.0528958,15.0608049 15.0301158,14.0004108 15.6818533,12.6566188 L15.6818533,16.6183197 L16.7972973,16.6183197 L16.7972973,0.700274974 L15.6818533,0.700274974 L15.6818533,4.69603067 C15.1455598,3.37689894 14.2,2.31493918 12.8382239,1.51289143 C11.4783784,0.711626553 10.0509653,0.310015528 8.56254826,0.310015528 C6.28416988,0.310015528 4.32972973,1.13124353 2.6984556,2.76900233 L2.6984556,2.76900233 Z M3.51969112,13.8407059 C2.08764479,12.3904438 1.37065637,10.6736154 1.37065637,8.69413496 C1.37065637,6.7123059 2.08764479,4.98686594 3.51969112,3.51194358 C4.95405405,2.03819552 6.64401544,1.29956004 8.5984556,1.29956004 C10.5532819,1.29956004 12.2343629,2.03114972 13.6393822,3.49432906 C15.0486486,4.95711698 15.7521236,6.68490554 15.7521236,8.67573758 C15.7521236,10.6689182 15.0532819,12.3904438 13.6571429,13.8407059 C12.26139,15.290185 10.5803089,16.0166861 8.61660232,16.0166861 C6.65096525,16.0166861 4.95405405,15.290185 3.51969112,13.8407059 L3.51969112,13.8407059 Z" id="path-7"></path>
        <path id="path-9" d="M13.0818533,0.308841227 L13.0818533,9.5772095 C13.0818533,11.2016595 12.4710425,12.6182583 11.2490347,13.8207428 C10.0277992,15.0228358 8.61389961,15.6252523 7.00965251,15.6252523 C5.4034749,15.6252523 4.03706564,15.0228358 2.91042471,13.8207428 C1.78146718,12.6182583 1.21621622,11.2016595 1.21621622,9.5772095 L1.21621622,0.308841227 L0.100772201,0.308841227 L0.100772201,9.5772095 C0.100772201,11.5332039 0.763320463,13.1960145 2.08918919,14.5640754 C3.41505792,15.9325278 5.05714286,16.6159711 7.00965251,16.6159711 C9.87142857,16.6159711 11.896139,15.4123124 13.0818533,13.0065606 L13.0818533,16.226886 L14.1969112,16.226886 L14.1969112,0.308841227 L13.0818533,0.308841227 L13.0818533,0.308841227 Z"></path>
        <path id="path-11" d="M0.381081081,0.375776398 L0.381081081,26.8774068 L1.4988417,26.8774068 L1.4988417,17.6098214 C1.4988417,15.9830228 2.1030888,14.5660326 3.31312741,13.3639396 C4.52123552,12.1618465 5.92857143,11.55943 7.53436293,11.55943 C9.13976834,11.55943 10.5119691,12.1555836 11.6521236,13.3455422 C12.792278,14.5366751 13.3598456,15.9583624 13.3598456,17.6098214 L13.3598456,26.8774068 L14.4776062,26.8774068 L14.4776062,17.6098214 C14.4776062,15.651087 13.8081081,13.9882764 12.4710425,12.6206069 C11.1339768,11.2537202 9.48725869,10.5687112 7.53436293,10.5687112 C4.67258687,10.5687112 2.66023166,11.724615 1.4988417,14.0356399 L1.4988417,0.375776398 L0.381081081,0.375776398 L0.381081081,0.375776398 Z"></path>
        <path d="M2.77837838,2.45859537 C1.14980695,4.09870277 0.336293436,6.06096014 0.336293436,8.34849896 C0.336293436,10.6368207 1.14980695,12.6006438 2.77837838,14.2399683 C4.40733591,15.8796843 6.36216216,16.6985637 8.64015444,16.6985637 C10.1289575,16.6985637 11.5247104,16.3086957 12.8277992,15.5309168 C14.130888,14.7519636 15.1069498,13.6915696 15.7586873,12.3458204 L15.7586873,16.3086957 L16.8749035,16.3086957 L16.8749035,0.389085145 L15.7586873,0.389085145 L15.7586873,4.38718944 C15.2235521,3.06610054 14.2752896,2.00453222 12.9146718,1.20326734 C11.5548263,0.402785326 10.1289575,0 8.64015444,0 C6.36216216,0 4.40733591,0.821228002 2.77837838,2.45859537 L2.77837838,2.45859537 Z M3.5984556,13.5318646 C2.16795367,12.0800369 1.45250965,10.3643828 1.45250965,8.38529374 C1.45250965,6.40268181 2.16795367,4.67567611 3.5984556,3.20153662 C5.02934363,1.72817999 6.72046332,0.990718815 8.67644788,0.990718815 C10.6285714,0.990718815 12.3108108,1.72230849 13.7166023,3.1850964 C15.1250965,4.64671002 15.8274131,6.37371571 15.8274131,8.36611348 C15.8274131,10.3589027 15.1305019,12.0800369 13.734749,13.5318646 C12.3389961,14.9813438 10.6579151,15.7086277 8.69227799,15.7086277 C6.72741313,15.7086277 5.02934363,14.9813438 3.5984556,13.5318646 L3.5984556,13.5318646 Z" id="path-13"></path>
        <path id="path-15" d="M3.25212355,0.778953157 C2.36949807,1.29799431 1.71814672,1.95873447 1.2996139,2.75921649 L1.2996139,0.389085145 L0.182239382,0.389085145 L0.182239382,16.3086957 L1.2996139,16.3086957 L1.2996139,5.69457816 C1.2996139,4.44629594 1.77027027,3.34832428 2.71119691,2.40575181 C3.65482625,1.46317935 4.74054054,0.990718815 5.97335907,0.990718815 C7.20888031,0.990718815 8.33552124,1.51054283 9.35907336,2.54745083 L9.35907336,1.13241783 C8.35791506,0.378125 7.31274131,2.30926389e-14 6.22007722,2.30926389e-14 C5.12548263,2.30926389e-14 4.13667954,0.260694876 3.25212355,0.778953157 L3.25212355,0.778953157 Z"></path>
        <path d="M15.5915058,0.341721661 L15.5915058,14.8502135 C14.9625483,13.5518278 13.980695,12.5149198 12.6436293,11.7375323 C11.3054054,10.9577963 9.91544402,10.5687112 8.47451737,10.5687112 C6.17104247,10.5687112 4.21196911,11.3899392 2.59459459,13.0273065 C0.976833977,14.6674139 0.17027027,16.6296713 0.17027027,18.9172101 C0.17027027,21.2055318 0.976833977,23.1693549 2.59459459,24.8086795 C4.21196911,26.4483954 6.17104247,27.2672748 8.47451737,27.2672748 C9.86872587,27.2672748 11.2297297,26.8844526 12.5552124,26.1180254 C13.8833977,25.352381 14.8945946,24.3186044 15.5915058,23.0202187 L15.5915058,26.8774068 L16.7092664,26.8774068 L16.7092664,0.341721661 L15.5915058,0.341721661 L15.5915058,0.341721661 Z M3.37953668,24.1005758 C1.98455598,22.6487481 1.28687259,20.9276139 1.28687259,18.9348247 C1.28687259,16.9424269 1.99034749,15.2154212 3.3953668,13.7538076 C4.80501931,12.2910197 6.48571429,11.55943 8.43783784,11.55943 C10.3926641,11.55943 12.0849421,12.2968912 13.5166023,13.7702478 C14.9467181,15.2443873 15.66139,16.971393 15.66139,18.9540049 C15.66139,20.9330939 14.9467181,22.6487481 13.5166023,24.1005758 C12.0849421,25.550055 10.3861004,26.2773389 8.42239382,26.2773389 C6.45598456,26.2773389 4.77528958,25.550055 3.37953668,24.1005758 L3.37953668,24.1005758 Z" id="path-17"></path>
        <path id="path-19" d="M12.9938224,1.02633929 C12.0069498,1.71095691 11.3374517,2.61869177 10.9891892,3.74954387 C10.5706564,2.6421778 9.90540541,1.74070587 8.9980695,1.04356237 C8.09111969,0.348376035 7.14324324,0 6.15482625,0 C5.16602317,0 4.21351351,0.260694876 3.29266409,0.778953157 C2.37413127,1.29799431 1.68223938,1.91058812 1.21814672,2.61869177 L1.21814672,0.389085145 L0.100772201,0.389085145 L0.100772201,16.3086957 L1.21814672,16.3086957 L1.21814672,5.69457816 C1.21814672,4.44629594 1.68223938,3.34832428 2.61428571,2.40575181 C3.54401544,1.46317935 4.63629344,0.990718815 5.89227799,0.990718815 C7.14980695,0.990718815 8.22007722,1.45652497 9.1046332,2.38735443 C9.98687259,3.32014105 10.4301158,4.42202704 10.4301158,5.69457816 L10.4301158,16.3086957 L11.5455598,16.3086957 L11.5455598,5.69457816 C11.5455598,4.44629594 12.0274131,3.34832428 12.9938224,2.40575181 C13.9594595,1.46317935 15.0637066,0.990718815 16.3100386,0.990718815 C17.5521236,0.990718815 18.6177606,1.4463477 19.5019305,2.35290826 C20.3868726,3.26142598 20.8277992,4.39814959 20.8277992,5.7658191 L20.8277992,16.3086957 L21.9455598,16.3086957 L21.9455598,5.7658191 C21.9455598,3.99732143 21.4096525,2.59520575 20.3393822,1.55712345 C19.269112,0.519432583 18.0250965,0 16.6065637,0 C15.1857143,0 13.9841699,0.341721661 12.9938224,1.02633929 L12.9938224,1.02633929 Z"></path>
        <path d="M2.68957529,2.45859537 C1.06293436,4.09870277 0.248262548,6.06096014 0.248262548,8.34849896 C0.248262548,10.6368207 1.06293436,12.6006438 2.68957529,14.2399683 C4.31853282,15.8796843 6.27065637,16.6985637 8.55328185,16.6985637 C10.0420849,16.6985637 11.4355212,16.3086957 12.73861,15.5309168 C14.0393822,14.7519636 15.0189189,13.6915696 15.6683398,12.3458204 L15.6683398,16.3086957 L16.7861004,16.3086957 L16.7861004,0.389085145 L15.6683398,0.389085145 L15.6683398,4.38718944 C15.1366795,3.06610054 14.1864865,2.00453222 12.8266409,1.20326734 C11.4648649,0.402785326 10.0420849,0 8.55328185,0 C6.27065637,0 4.31853282,0.821228002 2.68957529,2.45859537 L2.68957529,2.45859537 Z M3.51042471,13.5318646 C2.08108108,12.0800369 1.36640927,10.3643828 1.36640927,8.38529374 C1.36640927,6.40268181 2.08108108,4.67567611 3.51042471,3.20153662 C4.94054054,1.72817999 6.63281853,0.990718815 8.58725869,0.990718815 C10.5397683,0.990718815 12.2208494,1.72230849 13.6301158,3.1850964 C15.034749,4.64671002 15.73861,6.37371571 15.73861,8.36611348 C15.73861,10.3589027 15.0416988,12.0800369 13.6459459,13.5318646 C12.2498069,14.9813438 10.569112,15.7086277 8.60540541,15.7086277 C6.63745174,15.7086277 4.94054054,14.9813438 3.51042471,13.5318646 L3.51042471,13.5318646 Z" id="path-21"></path>
        <path id="path-23" d="M1.12702703,3.60901915 L1.12702703,0.389085145 L0.00965250965,0.389085145 L0.00965250965,16.3086957 L1.12702703,16.3086957 L1.12702703,7.04111025 C1.12702703,5.41431159 1.73783784,3.99732143 2.95945946,2.79522839 C4.18108108,1.59313535 5.59498069,0.990718815 7.1992278,0.990718815 C8.80540541,0.990718815 10.1694981,1.59313535 11.2984556,2.79522839 C12.4250965,3.99732143 12.9903475,5.41431159 12.9903475,7.04111025 L12.9903475,16.3086957 L14.1081081,16.3086957 L14.1081081,7.04111025 C14.1081081,5.08237578 13.4451737,3.41956522 12.1196911,2.0518957 C10.7915058,0.685009058 9.15135135,2.30926389e-14 7.1992278,2.30926389e-14 C4.33706564,2.30926389e-14 2.31467181,1.20326734 1.12702703,3.60901915 L1.12702703,3.60901915 Z"></path>
        <path d="M2.48378378,2.49460727 C0.852509653,4.13432324 0.0378378378,6.07309459 0.0378378378,8.31326993 C0.0378378378,10.5542281 0.859459459,12.5184427 2.5015444,14.2039564 C4.14169884,15.8910358 6.06718147,16.7330098 8.27722008,16.7330098 L8.59189189,16.7330098 C9.22509653,16.7330098 9.83359073,16.6617689 10.4173745,16.5267242 C10.4312741,16.5239842 10.6258687,16.4852323 10.9378378,16.386591 C11.5803089,16.1893084 12.1911197,15.904736 12.7660232,15.5340483 C13.1552124,15.2933165 13.5579151,14.9926954 13.9490347,14.6282706 C13.953668,14.6227905 13.9602317,14.616919 13.9671815,14.6098732 C14.1142857,14.4736542 14.2590734,14.3268666 14.4015444,14.1706845 C14.4648649,14.1045322 14.5305019,14.0434686 14.5938224,13.9745762 L14.5938224,13.9585274 C15.0123552,13.4606237 15.3969112,12.8738645 15.7065637,12.173981 L14.5938224,12.173981 L14.5938224,12.1696752 C13.8718147,13.2543381 12.9579151,14.1213639 11.8540541,14.7695782 C10.7478764,15.4185753 9.4992278,15.7426825 8.1030888,15.7426825 C6.70733591,15.7426825 5.25289575,15.1304801 3.74169884,13.9033353 L14.6980695,2.93692741 C12.9760618,1.00207039 10.9173745,0.0367947723 8.52162162,0.0367947723 C6.12586873,0.0367947723 4.11274131,0.855282738 2.48378378,2.49460727 L2.48378378,2.49460727 Z M1.15559846,8.20758282 C1.15559846,6.32008929 1.87258687,4.65258152 3.3046332,3.20153662 C4.73667954,1.75166602 6.37683398,1.02633929 8.22509653,1.02633929 C10.0760618,1.02633929 11.7204633,1.66281056 13.1640927,2.93692741 L3.00849421,13.1619598 C1.77335907,11.7441867 1.15559846,10.0931192 1.15559846,8.20758282 L1.15559846,8.20758282 Z" id="path-25"></path>
        <path d="M2.71814672,2.8034485 C1.08957529,4.44316447 0.276833977,6.38232725 0.276833977,8.62211115 C0.276833977,10.8650265 1.09498069,12.8268925 2.73629344,14.5127976 C4.37413127,16.2002685 6.2992278,17.0418511 8.50965251,17.0418511 L8.82432432,17.0418511 C9.45984556,17.0418511 10.0637066,16.9694358 10.6474903,16.8355655 C10.6621622,16.8316511 10.8579151,16.7917249 11.169112,16.6938665 C11.8127413,16.4969753 12.4212355,16.2116201 13.0003861,15.8428895 C13.3872587,15.5998091 13.7876448,15.2995795 14.1810811,14.9371118 C14.1880309,14.930066 14.1945946,14.9249774 14.1996139,14.9179315 C14.3486486,14.7824955 14.4888031,14.6357078 14.6316602,14.4783514 C14.6972973,14.4110248 14.7629344,14.3519183 14.8262548,14.2826346 L14.8262548,14.2665858 C15.242471,13.7690735 15.627027,13.1803571 15.9389961,12.4828222 L14.8262548,12.4828222 L14.8262548,12.478125 C14.1065637,13.5631793 13.1903475,14.4294222 12.0864865,15.0784194 C10.9799228,15.7274165 9.73127413,16.0519151 8.33552124,16.0519151 C6.93976834,16.0519151 5.48494208,15.4385384 3.97374517,14.2121765 L14.9301158,3.24616007 C13.2084942,1.31365166 11.1498069,0.345244565 8.75405405,0.345244565 C6.35714286,0.345244565 4.34555985,1.1656897 2.71814672,2.8034485 L2.71814672,2.8034485 Z M1.39227799,8.51759834 C1.39227799,6.62971338 2.10617761,4.96259705 3.53938224,3.51076928 C4.96911197,2.06089868 6.60733591,1.33557195 8.45868726,1.33557195 C10.3069498,1.33557195 11.9505792,1.97282609 13.3942085,3.24616007 L3.24054054,13.470801 C2.00772201,12.0542023 1.39227799,10.404309 1.39227799,8.51759834 L1.39227799,8.51759834 Z" id="path-27"></path>
    </defs>
    <g id="Home" stroke="none" stroke-width="1" fill="none" fill-rule="evenodd" sketch:type="MSPage">
        <g sketch:type="MSArtboardGroup" transform="translate(-32.000000, -192.000000)" id="logo--small">
            <g sketch:type="MSLayerGroup" transform="translate(32.000000, 192.000000)">
                <path d="M7.21621622,31.5691317 L22.4675676,48.6329031 L27.3976834,20.1486607 L5.24980695,12.7251197 L7.21621622,31.5691317 L7.21621622,31.5691317 Z M22.7841699,49.7453578 L6.73436293,31.7879432 L4.66911197,11.9943129 L27.9667954,19.8030247 L27.9297297,20.019879 L22.7841699,49.7453578 L22.7841699,49.7453578 Z" id="Shape" fill="#FFFFFF" sketch:type="MSShapeGroup"></path>
                <path d="M4.61505792,37.5991686 L33.407722,44.2574567 L14.5108108,10.850152 L0.843629344,22.6675369 L4.61505792,37.5991686 L4.61505792,37.5991686 Z M34.4131274,45.0117495 L4.20501931,38.0266143 L0.27953668,22.4863031 L14.6451737,10.0649359 L34.4131274,45.0117495 L34.4131274,45.0117495 Z" id="Shape" fill="#FFFFFF" sketch:type="MSShapeGroup"></path>
                <path d="M12.5123552,21.9739163 L7.52741313,42.5907318 L36.0397683,31.6008379 L25.6420849,10.8575893 L12.5123552,21.9739163 L12.5123552,21.9739163 Z M6.81235521,43.4111769 L12.0644788,21.6901268 L12.1274131,21.6368918 L25.8042471,10.0578901 L36.7401544,31.8752329 L6.81235521,43.4111769 L6.81235521,43.4111769 Z" id="Shape" fill="#FFFFFF" sketch:type="MSShapeGroup"></path>
                <rect id="Rectangle-path" fill="#FFFFFF" sketch:type="MSShapeGroup" x="11.3679537" y="0.251300466" width="14.1687259" height="0.509255305"></rect>
                <g id="Clipped" transform="translate(49.420849, 0.000000)">
                    <mask id="mask-2" sketch:name="Shape" fill="white">
                        <use xlink:href="#path-1"></use>
                    </mask>
                    <g id="Shape"></g>
                    <path d="M-12.6030888,15.1743207 L0.870810811,-0.298977096 L20.880888,17.6101737 L7.40698842,33.0834715 L-12.6030888,15.1743207 L-12.6030888,15.1743207 Z" id="Shape" fill="#FFFFFF" sketch:type="MSShapeGroup" mask="url(#mask-2)"></path>
                </g>
                <g id="Clipped" transform="translate(69.111969, 10.568711)">
                    <mask id="mask-4" sketch:name="Shape" fill="white">
                        <use xlink:href="#path-3"></use>
                    </mask>
                    <g id="Shape"></g>
                    <path d="M-6.18108108,7.42275815 L6.18749035,-6.7811591 L21.8990734,7.28082428 L9.53050193,21.4847415 L-6.18108108,7.42275815 L-6.18108108,7.42275815 Z" id="Shape" fill="#FFFFFF" sketch:type="MSShapeGroup" mask="url(#mask-4)"></path>
                </g>
                <g id="Clipped" transform="translate(88.803089, 10.177277)">
                    <mask id="mask-6" sketch:name="Shape" fill="white">
                        <use xlink:href="#path-5"></use>
                    </mask>
                    <g id="Shape"></g>
                    <path d="M-7.60772201,9.64610184 L3.83891892,-3.49906541 L12.2568726,4.03505564 L0.81023166,17.1802229 L-7.60772201,9.64610184 L-7.60772201,9.64610184 Z" id="Shape" fill="#FFFFFF" sketch:type="MSShapeGroup" mask="url(#mask-6)"></path>
                </g>
                <g id="Clipped" transform="translate(119.305019, 10.177277)">
                    <mask id="mask-8" sketch:name="Shape" fill="white">
                        <use xlink:href="#path-7"></use>
                    </mask>
                    <g id="Shape"></g>
                    <path d="M-3.26795367,9.38736413 L9.7719305,-5.58748188 L24.5872201,7.67229717 L11.5473359,22.6471432 L-3.26795367,9.38736413 L-3.26795367,9.38736413 Z" id="Shape" fill="#FFFFFF" sketch:type="MSShapeGroup" mask="url(#mask-8)"></path>
                </g>
                <g id="Clipped" transform="translate(139.768340, 10.568711)">
                    <mask id="mask-10" sketch:name="Shape" fill="white">
                        <use xlink:href="#path-9"></use>
                    </mask>
                    <g id="Shape"></g>
                    <path d="M-6.09343629,7.42236672 L6.27494208,-6.78135481 L21.9869498,7.28101999 L9.61857143,21.4847415 L-6.09343629,7.42236672 L-6.09343629,7.42236672 Z" id="Shape" fill="#FFFFFF" sketch:type="MSShapeGroup" mask="url(#mask-10)"></path>
                </g>
                <g id="Clipped" transform="translate(49.420849, 22.311724)">
                    <mask id="mask-12" sketch:name="Shape" fill="white">
                        <use xlink:href="#path-11"></use>
                    </mask>
                    <g id="Shape"></g>
                    <path d="M-12.588417,15.2698305 L0.870540541,-0.186322464 L21.7622008,18.5118805 L8.30324324,33.9680334 L-12.588417,15.2698305 L-12.588417,15.2698305 Z" id="Shape" fill="#FFFFFF" sketch:type="MSShapeGroup" mask="url(#mask-12)"></path>
                </g>
                <g id="Clipped" transform="translate(67.567568, 32.880435)">
                    <mask id="mask-14" sketch:name="Shape" fill="white">
                        <use xlink:href="#path-13"></use>
                    </mask>
                    <g id="Shape"></g>
                    <path d="M-3.18880309,9.08126294 L9.85277992,-5.89557939 L24.6656371,7.36204678 L11.6240541,22.3388891 L-3.18880309,9.08126294 L-3.18880309,9.08126294 Z" id="Shape" fill="#FFFFFF" sketch:type="MSShapeGroup" mask="url(#mask-14)"></path>
                </g>
                <g id="Clipped" transform="translate(88.803089, 32.880435)">
                    <mask id="mask-16" sketch:name="Shape" fill="white">
                        <use xlink:href="#path-15"></use>
                    </mask>
                    <g id="Shape"></g>
                    <path d="M-7.60849421,9.33608631 L3.83795367,-3.80888522 L12.2566795,3.72594041 L0.81023166,16.8709119 L-7.60849421,9.33608631 L-7.60849421,9.33608631 Z" id="Shape" fill="#FFFFFF" sketch:type="MSShapeGroup" mask="url(#mask-16)"></path>
                </g>
                <g id="Clipped" transform="translate(99.613900, 22.311724)">
                    <mask id="mask-18" sketch:name="Shape" fill="white">
                        <use xlink:href="#path-17"></use>
                    </mask>
                    <g id="Shape"></g>
                    <path d="M-3.37142857,19.6609343 L14.8784942,-1.29709401 L29.695444,11.9642116 L11.4455212,32.9222399 L-3.37142857,19.6609343 L-3.37142857,19.6609343 Z" id="Shape" fill="#FFFFFF" sketch:type="MSShapeGroup" mask="url(#mask-18)"></path>
                </g>
                <g id="Clipped" transform="translate(139.768340, 32.880435)">
                    <mask id="mask-20" sketch:name="Shape" fill="white">
                        <use xlink:href="#path-19"></use>
                    </mask>
                    <g id="Shape"></g>
                    <path d="M-7.68996139,9.33608631 L8.43274131,-9.17904309 L28.5002703,8.78154212 L12.3775676,27.2966715 L-7.68996139,9.33608631 L-7.68996139,9.33608631 Z" id="Shape" fill="#FFFFFF" sketch:type="MSShapeGroup" mask="url(#mask-20)"></path>
                </g>
                <g id="Clipped" transform="translate(164.478764, 32.880435)">
                    <mask id="mask-22" sketch:name="Shape" fill="white">
                        <use xlink:href="#path-21"></use>
                    </mask>
                    <g id="Shape"></g>
                    <path d="M-3.27644788,9.08204581 L9.76517375,-5.89479652 L24.5769498,7.36185106 L11.5353282,22.3386934 L-3.27644788,9.08204581 L-3.27644788,9.08204581 Z" id="Shape" fill="#FFFFFF" sketch:type="MSShapeGroup" mask="url(#mask-22)"></path>
                </g>
                <g id="Clipped" transform="translate(185.714286, 32.880435)">
                    <mask id="mask-24" sketch:name="Shape" fill="white">
                        <use xlink:href="#path-23"></use>
                    </mask>
                    <g id="Shape"></g>
                    <path d="M-7.78108108,9.33608631 L4.5872973,-4.86763522 L20.30139,9.19661847 L7.93301158,23.40034 L-7.78108108,9.33608631 L-7.78108108,9.33608631 Z" id="Shape" fill="#FFFFFF" sketch:type="MSShapeGroup" mask="url(#mask-24)"></path>
                </g>
                <g id="Clipped" transform="translate(120.463320, 32.880435)">
                    <mask id="mask-26" sketch:name="Shape" fill="white">
                        <use xlink:href="#path-25"></use>
                    </mask>
                    <g id="Shape"></g>
                    <path d="M-3.46023166,9.08713445 L7.69559846,-3.72410067 L20.233861,7.49771771 L9.07803089,20.3089528 L-3.46023166,9.08713445 L-3.46023166,9.08713445 Z" id="Shape" fill="#FFFFFF" sketch:type="MSShapeGroup" mask="url(#mask-26)"></path>
                </g>
                <g id="Clipped" transform="translate(100.386100, 10.177277)">
                    <mask id="mask-28" sketch:name="Shape" fill="white">
                        <use xlink:href="#path-27"></use>
                    </mask>
                    <g id="Shape"></g>
                    <path d="M-3.22548263,9.39871571 L7.92918919,-3.41118854 L20.4644402,7.8079681 L9.30976834,20.6178723 L-3.22548263,9.39871571 L-3.22548263,9.39871571 Z" id="Shape" fill="#FFFFFF" sketch:type="MSShapeGroup" mask="url(#mask-28)"></path>
                </g>
            </g>
        </g>
    </g>
</svg>