<?xml version="1.0" encoding="UTF-8" standalone="no"?>
<svg width="512px" height="512px" viewBox="0 0 512 512" version="1.1" xmlns="http://www.w3.org/2000/svg" xmlns:xlink="http://www.w3.org/1999/xlink" xmlns:sketch="http://www.bohemiancoding.com/sketch/ns">
    <!-- Generator: bin/sketchtool 1.3 (252) - http://www.bohemiancoding.com/sketch -->
    <title>icons/doos</title>
    <desc>Created with bin/sketchtool.</desc>
    <defs></defs>
    <g id="Icons" stroke="none" stroke-width="1" fill="none" fill-rule="evenodd" sketch:type="MSPage">
        <g id="icons/doos" sketch:type="MSArtboardGroup" fill="#3BB3F5">
            <path d="M290,238.444444 L288.9375,238.444444 L222,238.444444 C210.66661,238.444444 205,244.296238 205,256 C205,267.703762 210.66661,273.555556 222,273.555556 L290,273.555556 C301.33339,273.555556 307,267.703762 307,256 C307,244.296238 301.33339,238.444444 290,238.444444 L290,238.444444 L290,238.444444 Z M290,220.888889 C299.916716,220.888889 308.062468,224.180523 314.4375,230.763889 C320.812532,237.347255 324,245.759208 324,256 C324,266.240792 320.812532,274.652745 314.4375,281.236111 C308.062468,287.819477 299.916716,291.111111 290,291.111111 L222,291.111111 C212.083284,291.111111 203.937532,287.819477 197.5625,281.236111 C191.187468,274.652745 188,266.240792 188,256 C188,245.759208 191.187468,237.347255 197.5625,230.763889 C203.937532,224.180523 212.083284,220.888889 222,220.888889 L290,220.888889 L290,220.888889 Z M426,98 L426,185.777778 L409,185.777778 L409,414 L103,414 L103,185.777778 L86,185.777778 L86,98 L426,98 L426,98 Z M392,396.444444 L392,185.777778 L120,185.777778 L120,396.444444 L392,396.444444 L392,396.444444 Z M409,168.222222 L409,115.555556 L103,115.555556 L103,168.222222 L409,168.222222 L409,168.222222 Z" id="icon-doos" sketch:type="MSShapeGroup"></path>
        </g>
    </g>
</svg>