<?xml version="1.0" encoding="UTF-8" standalone="no"?>
<svg width="512px" height="512px" viewBox="0 0 512 512" version="1.1" xmlns="http://www.w3.org/2000/svg" xmlns:xlink="http://www.w3.org/1999/xlink" xmlns:sketch="http://www.bohemiancoding.com/sketch/ns">
    <!-- Generator: bin/sketchtool 1.3 (252) - http://www.bohemiancoding.com/sketch -->
    <title>icons/koffer</title>
    <desc>Created with bin/sketchtool.</desc>
    <defs></defs>
    <g id="Icons" stroke="none" stroke-width="1" fill="none" fill-rule="evenodd" sketch:type="MSPage">
        <g id="icons/koffer" sketch:type="MSArtboardGroup" fill="#3BB3F5">
            <path d="M386.769231,151.333333 L426,151.333333 L426,413 L86,413 L86,151.333333 L125.230769,151.333333 L125.230769,138.25 L151.384615,138.25 L151.384615,151.333333 L190.615385,151.333333 L190.615385,126.802083 L190.615385,125.166667 C190.615385,107.722135 198.515947,99 214.317308,99 L295.230769,99 C302.859013,99 309.124975,101.4531 314.028846,106.359375 C318.932717,111.26565 321.384615,117.534684 321.384615,125.166667 L321.384615,126.802083 L321.384615,151.333333 L360.615385,151.333333 L360.615385,138.25 L386.769231,138.25 L386.769231,151.333333 Z M203.692308,151.333333 L308.307692,151.333333 L308.307692,126.802083 C308.307692,116.989534 303.676328,112.083333 294.413462,112.083333 L215.134615,112.083333 C207.506372,112.083333 203.692308,116.989534 203.692308,126.802083 L203.692308,151.333333 Z M412.923077,399.916667 L412.923077,216.75 L99.0769231,216.75 L99.0769231,399.916667 L412.923077,399.916667 Z M412.923077,203.666667 L412.923077,164.416667 L386.769231,164.416667 L386.769231,177.5 L360.615385,177.5 L360.615385,164.416667 L151.384615,164.416667 L151.384615,177.5 L125.230769,177.5 L125.230769,164.416667 L99.0769231,164.416667 L99.0769231,203.666667 L412.923077,203.666667 Z" id="icon-koffer" sketch:type="MSShapeGroup"></path>
        </g>
    </g>
</svg>