<?xml version="1.0" encoding="UTF-8" standalone="no"?>
<svg width="512px" height="512px" viewBox="0 0 512 512" version="1.1" xmlns="http://www.w3.org/2000/svg" xmlns:xlink="http://www.w3.org/1999/xlink" xmlns:sketch="http://www.bohemiancoding.com/sketch/ns">
    <!-- Generator: bin/sketchtool 1.3 (252) - http://www.bohemiancoding.com/sketch -->
    <title>icons/linkedin</title>
    <desc>Created with bin/sketchtool.</desc>
    <defs></defs>
    <g id="Icons" stroke="none" stroke-width="1" fill="none" fill-rule="evenodd" sketch:type="MSPage">
        <g id="icons/linkedin" sketch:type="MSArtboardGroup" fill="#3BB3F5">
            <path d="M378.328431,110.117647 C384.913432,110.117647 390.485271,112.270403 395.044118,116.57598 C399.602964,120.881557 401.882353,126.326764 401.882353,132.911765 L401.882353,376.808824 C401.882353,383.393824 399.602964,389.218929 395.044118,394.284314 C390.485271,399.349699 384.913432,401.882353 378.328431,401.882353 L135.191176,401.882353 C128.606176,401.882353 122.781071,399.349699 117.715686,394.284314 C112.650301,389.218929 110.117647,383.393824 110.117647,376.808824 L110.117647,132.911765 C110.117647,126.326764 112.523669,120.881557 117.335784,116.57598 C122.1479,112.270403 128.099638,110.117647 135.191176,110.117647 L378.328431,110.117647 Z M390.166667,96 C397.388925,96 403.499975,98.3610875 408.5,103.083333 C413.500025,107.805579 416,113.777742 416,121 L416,388.5 C416,395.722258 413.500025,402.111083 408.5,407.666667 C403.499975,413.22225 397.388925,416 390.166667,416 L123.5,416 C116.277742,416 109.888917,413.22225 104.333333,407.666667 C98.77775,402.111083 96,395.722258 96,388.5 L96,121 C96,113.777742 98.6388625,107.805579 103.916667,103.083333 C109.194471,98.3610875 115.722183,96 123.5,96 L390.166667,96 Z M197.333333,361.343137 L152.156863,361.343137 L152.156863,222.04902 L197.333333,222.04902 L197.333333,361.343137 Z M174.362247,196.392157 C167.726122,196.392157 162.366255,194.222687 158.282486,189.883682 C154.198717,185.544678 152.156863,180.312427 152.156863,174.186773 C152.156863,167.550648 154.326333,162.063166 158.665337,157.724161 C163.004342,153.385156 168.491825,151.215686 175.127949,151.215686 C181.764074,151.215686 187.123941,153.385156 191.20771,157.724161 C195.291479,162.063166 197.333333,167.550648 197.333333,174.186773 C197.333333,180.312427 195.163864,185.544678 190.824859,189.883682 C186.485854,194.222687 180.998371,196.392157 174.362247,196.392157 L174.362247,196.392157 Z M309.607843,221.539216 C324.562166,221.539216 336.712372,226.580286 346.058824,236.662577 C355.405275,246.744868 360.078431,261.602759 360.078431,281.236695 L360.078431,360.833333 L316.016807,360.833333 L316.016807,286.012493 C316.016807,266.378557 308.539757,256.561737 293.585434,256.561737 C282.903775,256.561737 275.426725,261.868126 271.154062,272.481064 C270.085896,274.603652 269.551821,278.318125 269.551821,283.624594 L269.551821,360.833333 L225.490196,360.833333 L225.490196,224.723081 L269.551821,224.723081 L269.551821,243.826275 C280.23348,228.968161 293.585354,221.539216 309.607843,221.539216 L309.607843,221.539216 Z" id="icon-linkedin" sketch:type="MSShapeGroup"></path>
        </g>
    </g>
</svg>