<?xml version="1.0" encoding="UTF-8" standalone="no"?>
<svg width="512px" height="512px" viewBox="0 0 512 512" version="1.1" xmlns="http://www.w3.org/2000/svg" xmlns:xlink="http://www.w3.org/1999/xlink" xmlns:sketch="http://www.bohemiancoding.com/sketch/ns">
    <!-- Generator: bin/sketchtool 1.3 (252) - http://www.bohemiancoding.com/sketch -->
    <title>icons/marker</title>
    <desc>Created with bin/sketchtool.</desc>
    <defs></defs>
    <g id="Icons" stroke="none" stroke-width="1" fill="none" fill-rule="evenodd" sketch:type="MSPage">
        <g id="icons/marker" sketch:type="MSArtboardGroup" fill="#3BB3F5">
            <path d="M256.5,98.1428571 C229.124863,98.1428571 206.059122,107.502883 187.302083,126.223214 C168.545045,144.943546 159.166667,167.964149 159.166667,195.285714 C159.166667,228.678738 176.909545,275.731839 212.395833,336.446429 C229.125084,365.285858 243.826326,388.306462 256.5,405.508929 C269.173674,388.306462 283.874916,365.285858 300.604167,336.446429 C336.090455,275.731839 353.833333,228.678738 353.833333,195.285714 C353.833333,167.964149 344.454955,144.943546 325.697917,126.223214 C306.940878,107.502883 283.875137,98.1428571 256.5,98.1428571 L256.5,98.1428571 Z M256.5,86 C286.916819,86 312.770727,96.6248938 334.0625,117.875 C355.354273,139.125106 366,164.92842 366,195.285714 C366,220.58346 356.875091,252.458141 338.625,290.910714 C320.374909,329.363287 302.125091,361.490942 283.875,387.294643 L256.5,426 C248.388848,414.868992 238.250061,400.57598 226.083333,383.120536 C213.916606,365.665091 197.694546,336.320147 177.416667,295.084821 C157.138788,253.849496 147,220.58346 147,195.285714 C147,164.92842 157.645727,139.125106 178.9375,117.875 C200.229273,96.6248938 226.083181,86 256.5,86 L256.5,86 Z M256.5,146.714286 C269.680621,146.714286 281.086757,151.520785 290.71875,161.133929 C300.350743,170.747072 305.166667,182.130887 305.166667,195.285714 C305.166667,208.440542 300.350743,219.824357 290.71875,229.4375 C281.086757,239.050643 269.680621,243.857143 256.5,243.857143 C243.319379,243.857143 231.913243,239.050643 222.28125,229.4375 C212.649257,219.824357 207.833333,208.440542 207.833333,195.285714 C207.833333,182.130887 212.649257,170.747072 222.28125,161.133929 C231.913243,151.520785 243.319379,146.714286 256.5,146.714286 L256.5,146.714286 Z M256.5,230.955357 C266.63894,230.955357 275.130174,227.540213 281.973958,220.709821 C288.817743,213.87943 292.239583,205.404812 292.239583,195.285714 C292.239583,185.166616 288.817743,176.691998 281.973958,169.861607 C275.130174,163.031216 266.63894,159.616071 256.5,159.616071 C246.36106,159.616071 237.869826,163.031216 231.026042,169.861607 C224.182257,176.691998 220.760417,185.166616 220.760417,195.285714 C220.760417,205.404812 224.182257,213.87943 231.026042,220.709821 C237.869826,227.540213 246.36106,230.955357 256.5,230.955357 L256.5,230.955357 Z" id="icon-marker" sketch:type="MSShapeGroup"></path>
        </g>
    </g>
</svg>