<?xml version="1.0" encoding="UTF-8" standalone="no"?>
<svg width="512px" height="512px" viewBox="0 0 512 512" version="1.1" xmlns="http://www.w3.org/2000/svg" xmlns:xlink="http://www.w3.org/1999/xlink" xmlns:sketch="http://www.bohemiancoding.com/sketch/ns">
    <!-- Generator: bin/sketchtool 1.3 (252) - http://www.bohemiancoding.com/sketch -->
    <title>icons/marker</title>
    <desc>Created with bin/sketchtool.</desc>
    <defs></defs>
    <g id="Icons" stroke="none" stroke-width="1" fill="none" fill-rule="evenodd" sketch:type="MSPage">
        <g id="icons/marker" sketch:type="MSArtboardGroup" fill="#3BB3F5">
            <path d="M256,88.8571429 C226.999855,88.8571429 202.564914,98.767758 182.694444,118.589286 C162.823975,138.410813 152.888889,162.78557 152.888889,191.714286 C152.888889,227.071605 171.684997,276.892536 209.277778,341.178571 C227.000089,371.714438 242.574007,396.089195 256,414.303571 C269.425993,396.089195 284.999911,371.714438 302.722222,341.178571 C340.315003,276.892536 359.111111,227.071605 359.111111,191.714286 C359.111111,162.78557 349.176025,138.410813 329.305556,118.589286 C309.435086,98.767758 285.000145,88.8571429 256,88.8571429 L256,88.8571429 Z M256,76 C288.222383,76 315.610998,87.2498875 338.166667,109.75 C360.722335,132.250113 372,159.571268 372,191.714286 C372,218.500134 362.33343,252.249796 343,292.964286 C323.66657,333.678775 304.33343,367.696292 285,395.017857 L256,436 C247.407364,424.214227 236.666731,409.08045 223.777778,390.598214 C210.888824,372.115979 193.703811,341.044861 172.222222,297.383929 C150.740633,253.722996 140,218.500134 140,191.714286 C140,159.571268 151.277665,132.250113 173.833333,109.75 C196.389002,87.2498875 223.777617,76 256,76 L256,76 Z M256,140.285714 C269.963033,140.285714 282.046245,145.374949 292.25,155.553571 C302.453755,165.732194 307.555556,177.785645 307.555556,191.714286 C307.555556,205.642927 302.453755,217.696378 292.25,227.875 C282.046245,238.053622 269.963033,243.142857 256,243.142857 C242.036967,243.142857 229.953755,238.053622 219.75,227.875 C209.546245,217.696378 204.444444,205.642927 204.444444,191.714286 C204.444444,177.785645 209.546245,165.732194 219.75,155.553571 C229.953755,145.374949 242.036967,140.285714 256,140.285714 L256,140.285714 Z M256,229.482143 C266.740794,229.482143 275.736075,225.866108 282.986111,218.633929 C290.236147,211.40175 293.861111,202.428625 293.861111,191.714286 C293.861111,180.999946 290.236147,172.026822 282.986111,164.794643 C275.736075,157.562464 266.740794,153.946429 256,153.946429 C245.259206,153.946429 236.263925,157.562464 229.013889,164.794643 C221.763853,172.026822 218.138889,180.999946 218.138889,191.714286 C218.138889,202.428625 221.763853,211.40175 229.013889,218.633929 C236.263925,225.866108 245.259206,229.482143 256,229.482143 L256,229.482143 Z" id="icon-marker" sketch:type="MSShapeGroup"></path>
        </g>
    </g>
</svg>