<?xml version="1.0" encoding="UTF-8" standalone="no"?>
<svg width="512px" height="512px" viewBox="0 0 512 512" version="1.1" xmlns="http://www.w3.org/2000/svg" xmlns:xlink="http://www.w3.org/1999/xlink" xmlns:sketch="http://www.bohemiancoding.com/sketch/ns">
    <!-- Generator: bin/sketchtool 1.3 (252) - http://www.bohemiancoding.com/sketch -->
    <title>icons/phone</title>
    <desc>Created with bin/sketchtool.</desc>
    <defs></defs>
    <g id="Icons" stroke="none" stroke-width="1" fill="none" fill-rule="evenodd" sketch:type="MSPage">
        <g id="icons/phone" sketch:type="MSArtboardGroup" fill="#3BB3F5">
            <path d="M404.203254,322.521739 C422.699279,341.000092 422.699279,361.325976 404.203254,383.5 C396.804843,392.123232 389.560675,398.590558 382.470532,402.902174 C375.380389,407.21379 369.523402,409.677533 364.899396,410.293478 C360.275389,410.909423 353.647746,411.217391 345.016268,411.217391 C320.971434,411.217391 292.303025,398.898674 259.010179,374.26087 C232.499209,355.166571 208.454736,334.53272 186.876039,312.358696 C159.132001,283.409276 134.779266,250.456707 113.817104,213.5 C95.321078,179.007074 89.7723535,150.674024 97.1707637,128.5 C100.869969,116.797043 109.501318,106.634101 123.06507,98.0108696 L123.989867,97.0869565 C135.087482,89.6956152 144.951881,86 153.58336,86 C165.297509,86 175.778433,91.5434228 185.026446,102.630435 L185.951243,103.554348 C200.131529,122.032701 209.995928,136.507194 215.544736,146.978261 C224.792749,166.072559 224.484486,182.39486 214.619939,195.945652 C207.221529,205.800774 203.522379,212.884036 203.522379,217.195652 C203.522379,219.043487 207.529791,224.58691 215.544736,233.826087 L216.469532,234.75 C231.266353,251.380518 239.281177,260.311588 240.514245,261.543478 C241.13078,261.543478 241.747305,261.851446 242.363839,262.467391 C242.980373,263.083336 243.596898,263.699272 244.213432,264.315217 L246.063025,266.163043 C258.393709,278.481946 267.333321,287.105048 272.882128,292.032609 L273.806925,292.956522 C279.355733,297.884083 283.054882,300.347826 284.904485,300.347826 C287.987156,300.347826 296.926767,295.728307 311.723588,286.48913 C316.039327,283.409405 321.279789,281.869565 327.445131,281.869565 C338.542746,281.869565 351.952164,286.489084 367.673786,295.728261 C383.395407,304.967437 395.571775,313.898508 404.203254,322.521739 L404.203254,322.521739 Z M393.105694,373.336957 C401.120638,362.249945 404.819788,354.396762 404.203254,349.777174 C403.586719,345.157586 400.195832,339.768147 394.03049,333.608696 C387.248614,326.217354 376.76769,318.364172 362.587404,310.048913 C348.407118,301.733654 336.693144,297.576087 327.445131,297.576087 C324.978994,297.576087 322.512895,298.192023 320.046758,299.423913 C302.167266,310.510925 290.761555,316.054348 285.829282,316.054348 C280.897008,316.054348 273.806971,312.050765 264.558958,304.043478 L263.634162,304.043478 C252.536546,294.804302 243.288672,285.873232 235.890262,277.25 L234.040669,275.402174 C233.424135,274.786229 232.191085,273.862325 230.341482,272.630435 C228.49188,270.782599 220.168793,261.543561 205.371972,244.913043 L205.371972,243.98913 C194.890891,232.286173 189.342167,223.663071 188.725633,218.119565 C188.109098,210.728224 193.041298,200.257314 203.522379,186.706522 C214.00346,173.155729 204.447324,148.826262 174.853683,113.717391 L173.928886,112.793478 C167.763544,105.402137 160.98177,101.706522 153.58336,101.706522 C148.651086,101.706522 141.561049,104.478233 132.313037,110.021739 L130.463443,110.945652 C120.598896,117.105103 114.125385,124.496334 111.042714,133.119565 C104.877372,151.597918 110.117834,175.927385 126.764257,206.108696 C146.493351,242.449457 169.921298,274.478122 197.048803,302.195652 C216.161362,321.905896 239.58931,341.615843 267.333348,361.326087 C300.00966,384.732001 325.903708,396.434783 345.016268,396.434783 C356.113883,396.434783 364.745232,395.202911 370.910574,392.73913 C377.075916,390.27535 384.474215,383.808023 393.105694,373.336957 L393.105694,373.336957 Z" id="icon-phone" sketch:type="MSShapeGroup"></path>
        </g>
    </g>
</svg>