<?xml version="1.0" encoding="UTF-8" standalone="no"?>
<svg width="390px" height="121px" viewBox="0 0 390 121" version="1.1" xmlns="http://www.w3.org/2000/svg" xmlns:xlink="http://www.w3.org/1999/xlink" xmlns:sketch="http://www.bohemiancoding.com/sketch/ns">
    <!-- Generator: bin/sketchtool 1.3 (252) - http://www.bohemiancoding.com/sketch -->
    <title>logo</title>
    <desc>Created with bin/sketchtool.</desc>
    <defs>
        <path d="M0.743108108,0.505795031 L0.743108108,51.4475466 L2.92274131,51.4475466 L2.92274131,44.0455031 C4.28171815,46.5331429 6.25355212,48.5172422 8.83824324,49.9887826 C11.4236873,51.4588199 14.0791506,52.1945901 16.8008687,52.1945901 C21.2918919,52.1945901 25.1128378,50.620087 28.2667181,47.474087 C31.4183398,44.3265839 32.991139,40.556795 32.991139,36.165472 C32.991139,31.7718944 31.4183398,28.0058634 28.2667181,24.8568571 C25.1128378,21.7123602 21.2918919,20.1356025 16.8008687,20.1356025 C13.9910618,20.1356025 11.2776255,20.8849006 8.67034749,22.3774845 C6.06382239,23.8715714 4.14469112,25.8624348 2.92274131,28.3530807 L2.92274131,0.505795031 L0.743108108,0.505795031 L0.743108108,0.505795031 Z M6.9672973,46.114528 C4.18007722,43.3300248 2.78119691,40.0337143 2.78119691,36.2331118 C2.78119691,32.428 4.18007722,29.1151553 6.9672973,26.2833043 C9.76054054,23.4537081 13.0582239,22.035528 16.8693822,22.035528 C20.6790347,22.035528 23.95639,23.4401801 26.700695,26.2494845 C29.4442471,29.0580373 30.8167761,32.3753913 30.8167761,36.1977888 C30.8167761,40.0246957 29.4532819,43.3300248 26.7338224,46.114528 C24.0113514,48.897528 20.7339961,50.2924099 16.9025097,50.2924099 C13.0687645,50.2924099 9.76054054,48.897528 6.9672973,46.114528 L6.9672973,46.114528 Z" id="path-1"></path>
        <path id="path-3" d="M25.3349421,0.592975155 L25.3349421,18.3882422 C25.3349421,21.5071863 24.1468726,24.2270559 21.7639575,26.5358261 C19.3817954,28.8438447 16.6269498,30.0004845 13.4971622,30.0004845 C10.3696332,30.0004845 7.70438224,28.8438447 5.50366795,26.5358261 C3.29994208,24.2270559 2.20146718,21.5071863 2.20146718,18.3882422 L2.20146718,0.592975155 L0.0263513514,0.592975155 L0.0263513514,18.3882422 C0.0263513514,22.1437516 1.31681467,25.3363478 3.90150579,27.9630248 C6.48694981,30.5904534 9.68600386,31.9026646 13.4971622,31.9026646 C19.0776255,31.9026646 23.0212934,29.5916398 25.3349421,24.9725963 L25.3349421,31.1556211 L27.5123166,31.1556211 L27.5123166,0.592975155 L25.3349421,0.592975155 L25.3349421,0.592975155 Z"></path>
        <path id="path-5" d="M6.34164093,2.08856522 C4.62052124,3.08512422 3.3503861,4.35374534 2.5342471,5.89292547 L2.5342471,1.34452795 L0.355366795,1.34452795 L0.355366795,31.9071739 L2.5342471,31.9071739 L2.5342471,11.530323 C2.5342471,9.13136646 3.45202703,7.02551553 5.28683398,5.21201863 C7.1269112,3.4022795 9.24405405,2.49515528 11.6480502,2.49515528 C14.0573166,2.49515528 16.2542664,3.49321739 18.2501931,5.48783851 L18.2501931,2.76796894 C16.2979344,1.31897516 14.2598456,0.595229814 12.1291506,0.595229814 C9.99469112,0.595229814 8.0665251,1.09501242 6.34164093,2.08856522 L6.34164093,2.08856522 Z"></path>
        <path d="M5.26198842,5.31648447 C2.08100386,8.46549068 0.493146718,12.2315217 0.493146718,16.6250994 C0.493146718,21.0164224 2.08100386,24.7862112 5.26198842,27.9337143 C8.44297297,31.0797143 12.2541313,32.6542174 16.6969691,32.6542174 C19.5993822,32.6542174 22.3211004,31.9071739 24.8621236,30.4093292 C27.4031467,28.9167453 29.3087259,26.8807888 30.5796139,24.3007081 L30.5796139,31.9071739 L32.7547297,31.9071739 L32.7547297,1.34452795 L30.5796139,1.34452795 L30.5796139,9.01637888 C29.5338417,6.48364596 27.69,4.44468323 25.0345367,2.90475155 C22.3828378,1.36632298 19.5993822,0.595229814 16.6969691,0.595229814 C12.2541313,0.595229814 8.44297297,2.17198758 5.26198842,5.31648447 L5.26198842,5.31648447 Z M6.86339768,26.5741553 C4.07090734,23.7896522 2.67277992,20.4933416 2.67277992,16.6927391 C2.67277992,12.8876273 4.07090734,9.57478261 6.86339768,6.74293168 C9.66040541,3.9133354 12.9558301,2.49515528 16.7669884,2.49515528 C20.5788996,2.49515528 23.8570077,3.89980745 26.5967954,6.7091118 C29.3448649,9.5176646 30.7166409,12.8350186 30.7166409,16.6574161 C30.7166409,20.484323 29.3538996,23.7896522 26.6314286,26.5741553 C23.9097104,29.3571553 20.6316023,30.7520373 16.8023745,30.7520373 C12.9693822,30.7520373 9.66040541,29.3571553 6.86339768,26.5741553 L6.86339768,26.5741553 Z" id="path-7"></path>
        <path id="path-9" d="M25.5096139,0.592975155 L25.5096139,18.3882422 C25.5096139,21.5071863 24.3185328,24.2270559 21.9356178,26.5358261 C19.5542085,28.8438447 16.7971042,30.0004845 13.6688224,30.0004845 C10.5367761,30.0004845 7.87227799,28.8438447 5.67532819,26.5358261 C3.473861,24.2270559 2.37162162,21.5071863 2.37162162,18.3882422 L2.37162162,0.592975155 L0.196505792,0.592975155 L0.196505792,18.3882422 C0.196505792,22.1437516 1.4884749,25.3363478 4.07391892,27.9630248 C6.65936293,30.5904534 9.86142857,31.9026646 13.6688224,31.9026646 C19.2492857,31.9026646 23.197471,29.5916398 25.5096139,24.9725963 L25.5096139,31.1556211 L27.6839768,31.1556211 L27.6839768,0.592975155 L25.5096139,0.592975155 L25.5096139,0.592975155 Z"></path>
        <path id="path-11" d="M0.743108108,0.721490683 L0.743108108,51.6046211 L2.92274131,51.6046211 L2.92274131,33.8108571 C2.92274131,30.6874037 4.10102317,27.9667826 6.46059846,25.658764 C8.81640927,23.3507453 11.5607143,22.1941056 14.6920077,22.1941056 C17.8225483,22.1941056 20.4983398,23.3387205 22.7216409,25.623441 C24.9449421,27.9104161 26.0516988,30.6400559 26.0516988,33.8108571 L26.0516988,51.6046211 L28.231332,51.6046211 L28.231332,33.8108571 C28.231332,30.050087 26.9258108,26.8574907 24.3185328,24.2315652 C21.7112548,21.6071429 18.5001544,20.2919255 14.6920077,20.2919255 C9.1115444,20.2919255 5.18745174,22.5112609 2.92274131,26.9484286 L2.92274131,0.721490683 L0.743108108,0.721490683 L0.743108108,0.721490683 Z"></path>
        <path d="M5.41783784,5.72050311 C2.24212355,8.86950932 0.655772201,12.6370435 0.655772201,17.029118 C0.655772201,21.4226957 2.24212355,25.193236 5.41783784,28.3407391 C8.59430502,31.4889938 12.4062162,33.0612422 16.8483012,33.0612422 C19.7514672,33.0612422 22.4731853,32.3126957 25.0142085,30.8193602 C27.5552317,29.3237702 29.4585521,27.2878137 30.7294402,24.7039752 L30.7294402,32.3126957 L32.9060618,32.3126957 L32.9060618,1.74704348 L30.7294402,1.74704348 L30.7294402,9.42340373 C29.6859266,6.88691304 27.8368147,4.84870186 25.18361,3.31027329 C22.5319112,1.77334783 19.7514672,1 16.8483012,1 C12.4062162,1 8.59430502,2.57675776 5.41783784,5.72050311 L5.41783784,5.72050311 Z M7.01698842,26.9811801 C4.22750965,24.1936708 2.83239382,20.8996149 2.83239382,17.099764 C2.83239382,13.2931491 4.22750965,9.97729814 7.01698842,7.14695031 C9.80722008,4.31810559 13.1049035,2.90218012 16.9190734,2.90218012 C20.7257143,2.90218012 24.0060811,4.3068323 26.7473745,7.11538509 C29.4939382,9.92168323 30.8634556,13.2375342 30.8634556,17.0629379 C30.8634556,20.8890932 29.5044788,24.1936708 26.7827606,26.9811801 C24.0610425,29.7641801 20.7829344,31.1605652 16.9499421,31.1605652 C13.1184556,31.1605652 9.80722008,29.7641801 7.01698842,26.9811801 L7.01698842,26.9811801 Z" id="path-13"></path>
        <path id="path-15" d="M6.34164093,1.49559006 C4.62052124,2.49214907 3.3503861,3.76077019 2.5342471,5.29769565 L2.5342471,0.747043478 L0.355366795,0.747043478 L0.355366795,31.3126957 L2.5342471,31.3126957 L2.5342471,10.9335901 C2.5342471,8.5368882 3.45202703,6.42878261 5.28683398,4.61904348 C7.1269112,2.80930435 9.24405405,1.90218012 11.6480502,1.90218012 C14.0573166,1.90218012 16.2542664,2.90024224 18.2501931,4.89110559 L18.2501931,2.17424224 C16.2979344,0.726 14.2598456,4.26325641e-14 12.1291506,4.26325641e-14 C9.99469112,4.26325641e-14 8.0665251,0.500534161 6.34164093,1.49559006 L6.34164093,1.49559006 Z"></path>
        <path d="M30.4034363,0.65610559 L30.4034363,28.5124099 C29.1769691,26.0195093 27.2623552,24.028646 24.6550772,22.5360621 C22.0455405,21.0389689 19.3351158,20.2919255 16.5253089,20.2919255 C12.0335328,20.2919255 8.21333977,21.8686832 5.05945946,25.0124286 C1.90482625,28.1614348 0.332027027,31.9289689 0.332027027,36.3210435 C0.332027027,40.7146211 1.90482625,44.4851615 5.05945946,47.6326646 C8.21333977,50.7809193 12.0335328,52.3531677 16.5253089,52.3531677 C19.2440154,52.3531677 21.897973,51.6181491 24.4826641,50.1466087 C27.0726255,48.6765714 29.0444595,46.6917205 30.4034363,44.1988199 L30.4034363,51.6046211 L32.5830695,51.6046211 L32.5830695,0.65610559 L30.4034363,0.65610559 L30.4034363,0.65610559 Z M6.59009653,46.2731056 C3.86988417,43.4855963 2.50940154,40.1810186 2.50940154,36.3548634 C2.50940154,32.5294596 3.88117761,29.2136087 6.62096525,26.4073106 C9.36978764,23.5987578 12.6471429,22.1941056 16.4537838,22.1941056 C20.265695,22.1941056 23.5656371,23.6100311 26.3573745,26.4388758 C29.1461004,29.2692236 30.5397104,32.5850745 30.5397104,36.3916894 C30.5397104,40.1915404 29.1461004,43.4855963 26.3573745,46.2731056 C23.5656371,49.0561056 20.2528958,50.4524907 16.423668,50.4524907 C12.5891699,50.4524907 9.31181467,49.0561056 6.59009653,46.2731056 L6.59009653,46.2731056 Z" id="path-17"></path>
        <path id="path-19" d="M25.3379537,1.97057143 C23.4135521,3.28503727 22.1080309,5.0278882 21.4289189,7.19912422 C20.6127799,5.07298137 19.3155405,3.34215528 17.5462355,2.00363975 C15.7776834,0.668881988 13.9293243,0 12.0019112,0 C10.0737452,0 8.21635135,0.500534161 6.42069498,1.49559006 C4.62955598,2.49214907 3.2803668,3.66832919 2.3753861,5.0278882 L2.3753861,0.747043478 L0.196505792,0.747043478 L0.196505792,31.3126957 L2.3753861,31.3126957 L2.3753861,10.9335901 C2.3753861,8.5368882 3.2803668,6.42878261 5.09785714,4.61904348 C6.91083012,2.80930435 9.0407722,1.90218012 11.4899421,1.90218012 C13.9421236,1.90218012 16.0291506,2.79652795 17.7540347,4.5837205 C19.4744015,6.37467081 20.3387259,8.49029193 20.3387259,10.9335901 L20.3387259,31.3126957 L22.5138417,31.3126957 L22.5138417,10.9335901 C22.5138417,8.5368882 23.4534556,6.42878261 25.3379537,4.61904348 C27.2209459,2.80930435 29.3742278,1.90218012 31.8045753,1.90218012 C34.2266409,1.90218012 36.3046332,2.77698758 38.0287645,4.51758385 C39.7544015,6.26193789 40.6142085,8.4444472 40.6142085,11.0703727 L40.6142085,31.3126957 L42.7938417,31.3126957 L42.7938417,11.0703727 C42.7938417,7.67485714 41.7488224,4.98279503 39.6617954,2.98967702 C37.5747683,0.997310559 35.1489382,0 32.3827992,0 C29.6121429,0 27.2691313,0.65610559 25.3379537,1.97057143 L25.3379537,1.97057143 Z"></path>
        <path d="M5.24467181,4.72050311 C2.07272201,7.86950932 0.484111969,11.6370435 0.484111969,16.029118 C0.484111969,20.4226957 2.07272201,24.193236 5.24467181,27.3407391 C8.421139,30.4889938 12.2277799,32.0612422 16.6788996,32.0612422 C19.5820656,32.0612422 22.2992664,31.3126957 24.8402896,29.8193602 C27.3767954,28.3237702 29.2868919,26.2878137 30.5532625,23.7039752 L30.5532625,31.3126957 L32.7328958,31.3126957 L32.7328958,0.747043478 L30.5532625,0.747043478 L30.5532625,8.42340373 C29.5165251,5.88691304 27.6636486,3.84870186 25.0119498,2.31027329 C22.3564865,0.773347826 19.5820656,0 16.6788996,0 C12.2277799,0 8.421139,1.57675776 5.24467181,4.72050311 L5.24467181,4.72050311 Z M6.84532819,25.9811801 C4.05810811,23.1936708 2.66449807,19.8996149 2.66449807,16.099764 C2.66449807,12.2931491 4.05810811,8.97729814 6.84532819,6.14695031 C9.63405405,3.31810559 12.9339961,1.90218012 16.7451544,1.90218012 C20.5525483,1.90218012 23.8306564,3.3068323 26.5787259,6.11538509 C29.3177606,8.92168323 30.6902896,12.2375342 30.6902896,16.0629379 C30.6902896,19.8890932 29.3313127,23.1936708 26.6095946,25.9811801 C23.8871236,28.7641801 20.6097683,30.1605652 16.7805405,30.1605652 C12.9430309,30.1605652 9.63405405,28.7641801 6.84532819,25.9811801 L6.84532819,25.9811801 Z" id="path-21"></path>
        <path id="path-23" d="M2.1977027,6.92931677 L2.1977027,0.747043478 L0.0188223938,0.747043478 L0.0188223938,31.3126957 L2.1977027,31.3126957 L2.1977027,13.5189317 C2.1977027,10.3954783 3.38878378,7.67485714 5.77094595,5.36683851 C8.15310811,3.05881988 10.9102124,1.90218012 14.0384942,1.90218012 C17.1705405,1.90218012 19.8305212,3.05881988 22.0319884,5.36683851 C24.2289382,7.67485714 25.3311776,10.3954783 25.3311776,13.5189317 L25.3311776,31.3126957 L27.5108108,31.3126957 L27.5108108,13.5189317 C27.5108108,9.75816149 26.2180888,6.56556522 23.6333977,3.93963975 C21.0434363,1.31521739 17.8451351,4.26325641e-14 14.0384942,4.26325641e-14 C8.45727799,4.26325641e-14 4.51361004,2.31027329 2.1977027,6.92931677 L2.1977027,6.92931677 Z"></path>
        <path d="M4.84337838,4.78964596 C1.66239382,7.93790062 0.0737837838,11.6603416 0.0737837838,15.9614783 C0.0737837838,20.264118 1.67594595,24.0354099 4.87801158,27.2715963 C8.07631274,30.5107888 11.8310039,32.1273789 16.1405792,32.1273789 L16.7541892,32.1273789 C17.9889382,32.1273789 19.1755019,31.9905963 20.3138803,31.7313106 C20.3409846,31.7260497 20.720444,31.651646 21.3287838,31.4622547 C22.5816023,31.083472 23.7726834,30.5370932 24.8937452,29.8253727 C25.6526641,29.3631677 26.4379344,28.7859752 27.2006178,28.0862795 C27.2096525,28.0757578 27.2224517,28.0644845 27.2360039,28.0509565 C27.5228571,27.7894161 27.8051931,27.5075839 28.0830116,27.2077143 C28.2064865,27.0807019 28.3344788,26.9634596 28.4579537,26.8311863 L28.4579537,26.8003727 C29.2740927,25.8443975 30.0239768,24.7178199 30.6277992,23.3740435 L28.4579537,23.3740435 L28.4579537,23.3657764 C27.0500386,25.4483292 25.2679344,27.1130186 23.1154054,28.3575901 C20.9583591,29.6036646 18.5234942,30.2259503 15.8010232,30.2259503 C13.079305,30.2259503 10.2431467,29.0505217 7.29631274,26.6944037 L28.6612355,5.63890062 C25.3033205,1.92397516 21.2888803,0.0706459627 16.6171622,0.0706459627 C11.945444,0.0706459627 8.01984556,1.64214286 4.84337838,4.78964596 L4.84337838,4.78964596 Z M2.25341699,15.758559 C2.25341699,12.1345714 3.6515444,8.93295652 6.44403475,6.14695031 C9.2365251,3.36319876 12.4348263,1.97057143 16.0389382,1.97057143 C19.6483205,1.97057143 22.8549035,3.19259627 25.6699807,5.63890062 L5.86656371,25.2709627 C3.45805019,22.5488385 2.25341699,19.3787888 2.25341699,15.758559 L2.25341699,15.758559 Z" id="path-25"></path>
        <path d="M5.3003861,5.38262112 C2.12467181,8.53087578 0.539826255,12.2540683 0.539826255,16.5544534 C0.539826255,20.8608509 2.13521236,24.6276335 5.3357722,27.8645714 C8.52955598,31.1045155 12.2834942,32.720354 16.5938224,32.720354 L17.2074324,32.720354 C18.4466988,32.720354 19.6242278,32.5813168 20.7626062,32.3242857 C20.7912162,32.3167702 21.1729344,32.2401118 21.7797683,32.0522236 C23.0348456,31.6741925 24.2214093,31.1263106 25.3507529,30.4183478 C26.1051544,29.9516335 26.8859073,29.3751925 27.6531081,28.6792547 C27.6666602,28.6657267 27.6794595,28.6559565 27.6892471,28.6424286 C27.9798649,28.3823913 28.253166,28.100559 28.5317375,27.7984348 C28.6597297,27.6691677 28.787722,27.5556832 28.9111969,27.4226584 L28.9111969,27.3918447 C29.7228185,26.4366211 30.4727027,25.3062857 31.0810425,23.9670186 L28.9111969,23.9670186 L28.9111969,23.958 C27.5077992,26.0413043 25.7211776,27.7044907 23.5686486,28.9505652 C21.4108494,30.1966398 18.9759846,30.819677 16.2542664,30.819677 C13.5325483,30.819677 10.6956371,29.6419938 7.74880309,27.2873789 L29.1137259,6.23262733 C25.7565637,2.52221118 21.7421236,0.662869565 17.0704054,0.662869565 C12.3964286,0.662869565 8.4738417,2.23812422 5.3003861,5.38262112 L5.3003861,5.38262112 Z M2.71494208,16.3537888 C2.71494208,12.7290497 4.10704633,9.52818634 6.90179537,6.74067702 C9.68976834,3.95692547 12.884305,2.56429814 16.4944402,2.56429814 C20.0985521,2.56429814 23.3036293,3.78782609 26.1187066,6.23262733 L6.31905405,25.8639379 C3.91505792,23.1440683 2.71494208,19.9762733 2.71494208,16.3537888 L2.71494208,16.3537888 Z" id="path-27"></path>
    </defs>
    <g id="Home" stroke="none" stroke-width="1" fill="none" fill-rule="evenodd" sketch:type="MSPage">
        <g sketch:type="MSArtboardGroup" transform="translate(-32.000000, -32.000000)" id="logo">
            <g sketch:type="MSLayerGroup" transform="translate(32.000000, 32.000000)">
                <path d="M14.0716216,60.6127329 L43.8117568,93.3751739 L53.4254826,38.6854286 L10.2371236,24.4322298 L14.0716216,60.6127329 L14.0716216,60.6127329 Z M44.4291313,95.511087 L13.1320077,61.0328509 L9.10476834,23.0290807 L54.535251,38.0218075 L54.462973,38.4381677 L44.4291313,95.511087 L44.4291313,95.511087 Z" id="Shape" fill="#FFFFFF" sketch:type="MSShapeGroup"></path>
                <path d="M8.99936293,72.1904037 L65.1450579,84.9743168 L28.2960811,20.8322919 L1.64507722,43.5216708 L8.99936293,72.1904037 L8.99936293,72.1904037 Z M67.1055985,86.422559 L8.19978764,73.0110994 L0.545096525,43.1737019 L28.5580888,19.324677 L67.1055985,86.422559 L67.1055985,86.422559 Z" id="Shape" fill="#FFFFFF" sketch:type="MSShapeGroup"></path>
                <path d="M24.3990927,42.1899193 L14.6784556,81.774205 L70.2775483,60.6736087 L50.0020656,20.8465714 L24.3990927,42.1899193 L24.3990927,42.1899193 Z M13.2840927,83.3494596 L23.5257336,41.6450435 L23.6484556,41.5428323 L50.3182819,19.3111491 L71.6433012,61.2004472 L13.2840927,83.3494596 L13.2840927,83.3494596 Z" id="Shape" fill="#FFFFFF" sketch:type="MSShapeGroup"></path>
                <rect id="Rectangle-path" fill="#FFFFFF" sketch:type="MSShapeGroup" x="22.1675097" y="0.482496894" width="27.6290154" height="0.977770186"></rect>
                <g id="Clipped" transform="translate(96.370656, 0.000000)">
                    <mask id="mask-2" sketch:name="Shape" fill="white">
                        <use xlink:href="#path-1"></use>
                    </mask>
                    <g id="Shape"></g>
                    <path d="M-24.5760232,29.1346957 L1.69808108,-0.574036025 L40.7177317,33.8115335 L14.4436274,63.5202652 L-24.5760232,29.1346957 L-24.5760232,29.1346957 Z" id="Shape" fill="#FFFFFF" sketch:type="MSShapeGroup" mask="url(#mask-2)"></path>
                </g>
                <g id="Clipped" transform="translate(134.768340, 20.291925)">
                    <mask id="mask-4" sketch:name="Shape" fill="white">
                        <use xlink:href="#path-3"></use>
                    </mask>
                    <g id="Shape"></g>
                    <path d="M-12.0531081,14.2516957 L12.0656062,-13.0198255 L42.7031931,13.9791826 L18.5844788,41.2507037 L-12.0531081,14.2516957 L-12.0531081,14.2516957 Z" id="Shape" fill="#FFFFFF" sketch:type="MSShapeGroup" mask="url(#mask-4)"></path>
                </g>
                <g id="Clipped" transform="translate(173.166023, 19.540373)">
                    <mask id="mask-6" sketch:name="Shape" fill="white">
                        <use xlink:href="#path-5"></use>
                    </mask>
                    <g id="Shape"></g>
                    <path d="M-14.8350579,18.5205155 L7.48589189,-6.71820559 L23.9009015,7.74730683 L1.57995174,32.986028 L-14.8350579,18.5205155 L-14.8350579,18.5205155 Z" id="Shape" fill="#FFFFFF" sketch:type="MSShapeGroup" mask="url(#mask-6)"></path>
                </g>
                <g id="Clipped" transform="translate(232.644788, 19.540373)">
                    <mask id="mask-8" sketch:name="Shape" fill="white">
                        <use xlink:href="#path-7"></use>
                    </mask>
                    <g id="Shape"></g>
                    <path d="M-6.37250965,18.0237391 L19.0552645,-10.7279652 L47.9450792,14.7308106 L22.517305,43.4825149 L-6.37250965,18.0237391 L-6.37250965,18.0237391 Z" id="Shape" fill="#FFFFFF" sketch:type="MSShapeGroup" mask="url(#mask-8)"></path>
                </g>
                <g id="Clipped" transform="translate(272.548263, 20.291925)">
                    <mask id="mask-10" sketch:name="Shape" fill="white">
                        <use xlink:href="#path-9"></use>
                    </mask>
                    <g id="Shape"></g>
                    <path d="M-11.8822008,14.2509441 L12.2361371,-13.0202012 L42.8745521,13.9795584 L18.7562143,41.2507037 L-11.8822008,14.2509441 L-11.8822008,14.2509441 Z" id="Shape" fill="#FFFFFF" sketch:type="MSShapeGroup" mask="url(#mask-10)"></path>
                </g>
                <g id="Clipped" transform="translate(96.370656, 42.838509)">
                    <mask id="mask-12" sketch:name="Shape" fill="white">
                        <use xlink:href="#path-11"></use>
                    </mask>
                    <g id="Shape"></g>
                    <path d="M-24.5474131,29.3180745 L1.69755405,-0.35773913 L42.4362915,35.5428106 L16.1913243,65.2186242 L-24.5474131,29.3180745 L-24.5474131,29.3180745 Z" id="Shape" fill="#FFFFFF" sketch:type="MSShapeGroup" mask="url(#mask-12)"></path>
                </g>
                <g id="Clipped" transform="translate(131.756757, 62.130435)">
                    <mask id="mask-14" sketch:name="Shape" fill="white">
                        <use xlink:href="#path-13"></use>
                    </mask>
                    <g id="Shape"></g>
                    <path d="M-6.21816602,18.4360248 L19.2129208,-10.3195124 L48.0979923,15.1351298 L22.6669054,43.8906671 L-6.21816602,18.4360248 L-6.21816602,18.4360248 Z" id="Shape" fill="#FFFFFF" sketch:type="MSShapeGroup" mask="url(#mask-14)"></path>
                </g>
                <g id="Clipped" transform="translate(173.166023, 63.130435)">
                    <mask id="mask-16" sketch:name="Shape" fill="white">
                        <use xlink:href="#path-15"></use>
                    </mask>
                    <g id="Shape"></g>
                    <path d="M-14.8365637,17.9252857 L7.48400965,-7.31305963 L23.9005251,7.15380559 L1.57995174,32.3921509 L-14.8365637,17.9252857 L-14.8365637,17.9252857 Z" id="Shape" fill="#FFFFFF" sketch:type="MSShapeGroup" mask="url(#mask-16)"></path>
                </g>
                <g id="Clipped" transform="translate(194.247104, 42.838509)">
                    <mask id="mask-18" sketch:name="Shape" fill="white">
                        <use xlink:href="#path-17"></use>
                    </mask>
                    <g id="Shape"></g>
                    <path d="M-6.57428571,37.7489938 L29.0130637,-2.4904205 L57.9061158,22.9712863 L22.3187664,63.2107006 L-6.57428571,37.7489938 L-6.57428571,37.7489938 Z" id="Shape" fill="#FFFFFF" sketch:type="MSShapeGroup" mask="url(#mask-18)"></path>
                </g>
                <g id="Clipped" transform="translate(272.548263, 63.130435)">
                    <mask id="mask-20" sketch:name="Shape" fill="white">
                        <use xlink:href="#path-19"></use>
                    </mask>
                    <g id="Shape"></g>
                    <path d="M-14.9954247,17.9252857 L16.4438456,-17.6237627 L55.575527,16.8605609 L24.1362568,52.4096093 L-14.9954247,17.9252857 L-14.9954247,17.9252857 Z" id="Shape" fill="#FFFFFF" sketch:type="MSShapeGroup" mask="url(#mask-20)"></path>
                </g>
                <g id="Clipped" transform="translate(320.733591, 63.130435)">
                    <mask id="mask-22" sketch:name="Shape" fill="white">
                        <use xlink:href="#path-21"></use>
                    </mask>
                    <g id="Shape"></g>
                    <path d="M-6.38907336,17.437528 L19.0420888,-11.3180093 L47.9250521,14.134754 L22.49389,42.8902913 L-6.38907336,17.437528 L-6.38907336,17.437528 Z" id="Shape" fill="#FFFFFF" sketch:type="MSShapeGroup" mask="url(#mask-22)"></path>
                </g>
                <g id="Clipped" transform="translate(362.142857, 63.130435)">
                    <mask id="mask-24" sketch:name="Shape" fill="white">
                        <use xlink:href="#path-23"></use>
                    </mask>
                    <g id="Shape"></g>
                    <path d="M-15.1731081,17.9252857 L8.94522973,-9.34585963 L39.5877104,17.6575075 L15.4693726,44.9286528 L-15.1731081,17.9252857 L-15.1731081,17.9252857 Z" id="Shape" fill="#FFFFFF" sketch:type="MSShapeGroup" mask="url(#mask-24)"></path>
                </g>
                <g id="Clipped" transform="translate(234.903475, 63.130435)">
                    <mask id="mask-26" sketch:name="Shape" fill="white">
                        <use xlink:href="#path-25"></use>
                    </mask>
                    <g id="Shape"></g>
                    <path d="M-6.74745174,17.4472981 L15.006417,-7.15027329 L39.456029,14.395618 L17.7021602,38.9931894 L-6.74745174,17.4472981 L-6.74745174,17.4472981 Z" id="Shape" fill="#FFFFFF" sketch:type="MSShapeGroup" mask="url(#mask-26)"></path>
                </g>
                <g id="Clipped" transform="translate(195.752896, 19.540373)">
                    <mask id="mask-28" sketch:name="Shape" fill="white">
                        <use xlink:href="#path-27"></use>
                    </mask>
                    <g id="Shape"></g>
                    <path d="M-6.28969112,18.0455342 L15.4619189,-6.54948199 L39.9056583,14.9912988 L18.1540483,39.5863149 L-6.28969112,18.0455342 L-6.28969112,18.0455342 Z" id="Shape" fill="#FFFFFF" sketch:type="MSShapeGroup" mask="url(#mask-28)"></path>
                </g>
                <path d="M98.7942278,115.441516 C98.2950579,114.949248 98.0420849,114.320199 98.0420849,113.572404 L98.0420849,108.663261 L100.749498,108.663261 L100.749498,107.82077 L98.0420849,107.82077 L98.0420849,104.25841 L97.1190347,104.25841 L97.1190347,113.572404 C97.1190347,114.574224 97.4646139,115.40995 98.1459846,116.057037 C98.8258494,116.70187 99.6585521,117.028795 100.620753,117.028795 L100.769073,117.028795 L100.769073,116.182547 L100.620753,116.182547 C99.9085135,116.182547 99.2941506,115.933783 98.7942278,115.441516" id="Shape" fill="#FFFFFF" sketch:type="MSShapeGroup"></path>
                <path d="M109.612587,109.600447 C110.37,110.373043 110.753977,111.302714 110.753977,112.363907 C110.753977,113.439379 110.382799,114.341242 109.61861,115.120602 C108.868726,115.891696 107.951699,116.282503 106.891622,116.282503 C105.817992,116.282503 104.916023,115.902217 104.131506,115.119099 C103.359788,114.347255 102.968282,113.424348 102.968282,112.374429 C102.968282,111.323758 103.359788,110.394087 104.132259,109.609466 C104.916023,108.815826 105.814981,108.429528 106.881081,108.429528 C107.9389,108.429528 108.85668,108.823342 109.612587,109.600447 L109.612587,109.600447 Z M110.717085,109.556106 C110.391834,109.044298 109.931062,108.612907 109.340792,108.27095 C108.551757,107.817012 107.719054,107.587037 106.863764,107.587037 C105.544691,107.587037 104.40029,108.059764 103.462181,108.990938 C102.520309,109.925118 102.042973,111.056957 102.042973,112.35564 C102.042973,113.657329 102.521062,114.790671 103.462181,115.721093 C104.40029,116.653019 105.544691,117.124994 106.863764,117.124994 C107.723571,117.124994 108.540463,116.901031 109.292606,116.457615 C109.879865,116.111149 110.357201,115.662472 110.717085,115.120602 L110.717085,116.911553 L111.640888,116.911553 L111.640888,107.800478 L110.717085,107.800478 L110.717085,109.556106 L110.717085,109.556106 Z" id="Shape" fill="#FFFFFF" sketch:type="MSShapeGroup"></path>
                <path d="M120.265309,107.800478 L119.28278,107.800478 L117.401293,110.65713 L115.51529,107.800478 L114.431873,107.800478 L116.868243,111.474068 L113.298764,116.911553 L114.279788,116.911553 L117.358378,112.231634 L120.45805,116.911553 L121.540714,116.911553 L117.886158,111.416199 L120.265309,107.800478 L120.265309,107.800478 Z" id="Shape" fill="#FFFFFF" sketch:type="MSShapeGroup"></path>
                <path d="M135.344305,116.282503 C134.281216,116.282503 133.352896,115.890944 132.582683,115.119099 C131.799672,114.341994 131.418707,113.443888 131.418707,112.374429 C131.418707,111.32 131.810965,110.389578 132.584189,109.609466 C133.353649,108.827099 134.278958,108.429528 135.33527,108.429528 C136.402876,108.429528 137.295058,108.812068 138.062259,109.600447 C138.823436,110.378304 139.208919,111.307975 139.208919,112.363907 C139.208919,113.42059 138.827201,114.348006 138.072799,115.120602 C137.319903,115.890944 136.401371,116.282503 135.344305,116.282503 M135.311931,107.587037 C134.478475,107.587037 133.664595,107.811 132.895135,108.25141 C132.296583,108.594118 131.81473,109.031522 131.457857,109.556106 L131.457857,107.800478 L130.532548,107.800478 L130.532548,120.827894 L131.457857,120.827894 L131.457857,115.143149 C131.836564,115.676752 132.334981,116.123174 132.944073,116.472646 C133.71278,116.906292 134.510097,117.125745 135.311931,117.125745 C136.647568,117.125745 137.795734,116.653019 138.724807,115.721093 C139.658398,114.788416 140.131969,113.655826 140.131969,112.35564 C140.131969,111.05846 139.658398,109.926621 138.724807,108.992441 C137.795734,108.059764 136.647568,107.587037 135.311931,107.587037" id="Shape" fill="#FFFFFF" sketch:type="MSShapeGroup"></path>
                <path d="M156.57973,107.587037 C155.126641,107.587037 154.031931,108.123646 153.318185,109.183335 L153.318185,107.800478 L152.392876,107.800478 L152.392876,116.912304 L153.318185,116.912304 L153.318185,111.632646 C153.318185,110.763099 153.639672,110.028832 154.301467,109.388509 C154.953475,108.752696 155.719923,108.43028 156.57973,108.43028 C157.449324,108.43028 158.169846,108.742174 158.780444,109.384 C159.39556,110.030335 159.693707,110.765354 159.693707,111.632646 L159.693707,116.912304 L160.61751,116.912304 L160.61751,111.632646 C160.61751,110.514335 160.225251,109.550093 159.45278,108.766975 C158.682568,107.983857 157.715849,107.587037 156.57973,107.587037" id="Shape" fill="#FFFFFF" sketch:type="MSShapeGroup"></path>
                <path d="M166.766409,111.681497 C166.303378,111.392901 165.893803,111.151652 165.514344,110.944975 C165.122838,110.728528 164.775753,110.48277 164.482124,110.212211 C164.21861,109.966453 164.089865,109.707168 164.089865,109.419323 C164.089865,109.132981 164.200541,108.9 164.427915,108.706099 C164.661313,108.508441 164.932355,108.408484 165.234266,108.408484 C165.827548,108.408484 166.305637,108.693323 166.699402,109.281037 L166.970444,109.686124 L166.970444,108.341596 L166.931293,108.299509 C166.486332,107.814006 165.941236,107.566745 165.312568,107.566745 C164.685405,107.566745 164.168166,107.741106 163.775907,108.083062 C163.370097,108.43028 163.164556,108.862422 163.164556,109.367466 C163.164556,109.869503 163.324923,110.309913 163.639633,110.676671 C163.939286,111.032155 164.308958,111.33954 164.738861,111.592814 C165.150695,111.830304 165.566293,112.076814 165.982645,112.324075 C166.390714,112.568329 166.738552,112.861435 167.015618,113.195124 C167.287413,113.52205 167.419923,113.917366 167.419923,114.403621 C167.419923,114.871839 167.203089,115.306236 166.775444,115.694789 C166.338764,116.084845 165.794421,116.282503 165.155965,116.282503 C164.113205,116.282503 163.373861,115.77295 162.895772,114.723783 L162.613436,114.103 L162.613436,115.765435 L162.633012,115.799255 C162.861139,116.204342 163.215753,116.530516 163.68556,116.768006 C164.154614,117.005497 164.670347,117.125745 165.21695,117.125745 C166.075251,117.125745 166.819112,116.838652 167.426699,116.271981 C168.035792,115.703807 168.345232,115.004863 168.345232,114.196193 C168.345232,113.640043 168.186371,113.144019 167.874672,112.720894 C167.569749,112.300025 167.196313,111.950553 166.766409,111.681497" id="Shape" fill="#FFFFFF" sketch:type="MSShapeGroup"></path>
                <path d="M171.121158,104.609385 C170.65888,104.609385 170.404402,104.849882 170.404402,105.285783 C170.404402,105.721683 170.65888,105.96218 171.121158,105.96218 C171.583436,105.96218 171.837915,105.721683 171.837915,105.285783 C171.837915,104.849882 171.583436,104.609385 171.121158,104.609385" id="Shape" fill="#FFFFFF" sketch:type="MSShapeGroup"></path>
                <rect id="Rectangle-path" fill="#FFFFFF" sketch:type="MSShapeGroup" x="170.660386" y="107.82077" width="0.92530888" height="9.09078261"></rect>
                <path d="M182.608089,112.363907 C182.608089,113.439379 182.236158,114.341242 181.471969,115.120602 C180.722085,115.891696 179.805058,116.282503 178.743475,116.282503 C177.671351,116.282503 176.769382,115.902217 175.984865,115.119099 C175.210888,114.346503 174.817876,113.423596 174.817876,112.373677 C174.817876,111.324509 175.210888,110.394839 175.985618,109.609466 C176.769382,108.815826 177.669093,108.429528 178.73444,108.429528 C179.804305,108.429528 180.696486,108.812068 181.462181,109.601199 C182.222606,110.373795 182.608089,111.303466 182.608089,112.363907 M178.726158,107.586286 C177.402568,107.586286 176.254402,108.059012 175.314035,108.990938 C174.374421,109.92136 173.897085,111.040422 173.897085,112.316559 C173.897085,113.592696 174.366139,114.724534 175.291448,115.679758 C176.21751,116.638739 177.342336,117.124994 178.635058,117.124994 L178.812741,117.124994 C180.11751,117.124994 181.242336,116.642497 182.156351,115.689528 C183.068861,114.743323 183.531139,113.611484 183.531139,112.326329 C183.531139,111.043429 183.059073,109.92136 182.127741,108.990938 C181.194151,108.059012 180.049749,107.586286 178.726158,107.586286" id="Shape" fill="#FFFFFF" sketch:type="MSShapeGroup"></path>
                <path d="M189.780174,107.587037 C188.324826,107.587037 187.22861,108.123646 186.516371,109.181832 L186.516371,107.800478 L185.591062,107.800478 L185.591062,116.912304 L186.516371,116.912304 L186.516371,111.632646 C186.516371,110.763851 186.83861,110.030335 187.501911,109.388509 C188.166718,108.742925 188.912838,108.43028 189.780174,108.43028 C190.638475,108.43028 191.378571,108.751193 191.980888,109.384 C192.592992,110.027329 192.889633,110.763099 192.889633,111.632646 L192.889633,116.912304 L193.815695,116.912304 L193.815695,111.632646 C193.815695,110.513584 193.424942,109.549342 192.655483,108.766975 C191.882259,107.983857 190.914788,107.587037 189.780174,107.587037" id="Shape" fill="#FFFFFF" sketch:type="MSShapeGroup"></path>
                <path d="M204.647606,107.691503 C204.647606,106.939199 204.899073,106.310901 205.395232,105.822391 C205.900425,105.32336 206.498977,105.080609 207.224015,105.080609 L207.372336,105.080609 L207.372336,104.235112 L207.224015,104.235112 C206.255792,104.235112 205.423089,104.562037 204.748494,105.207621 C204.066371,105.856963 203.720039,106.692689 203.720039,107.691503 L203.720039,116.911553 L204.647606,116.911553 L204.647606,113.540087 L207.391158,113.540087 L207.391158,112.693839 L204.647606,112.693839 L204.647606,107.691503 L204.647606,107.691503 Z" id="Shape" fill="#FFFFFF" sketch:type="MSShapeGroup"></path>
                <path d="M209.874961,104.609385 C209.409672,104.609385 209.153687,104.849882 209.153687,105.285783 C209.153687,105.721683 209.409672,105.96218 209.874961,105.96218 C210.334228,105.96218 210.587201,105.721683 210.587201,105.285783 C210.587201,104.849882 210.334228,104.609385 209.874961,104.609385" id="Shape" fill="#FFFFFF" sketch:type="MSShapeGroup"></path>
                <rect id="Rectangle-path" fill="#FFFFFF" sketch:type="MSShapeGroup" x="209.409672" y="107.82077" width="0.92530888" height="9.09078261"></rect>
                <path d="M217.327876,107.587037 C215.871776,107.587037 214.777066,108.122894 214.066332,109.181081 L214.066332,107.800478 L213.138764,107.800478 L213.138764,116.912304 L214.066332,116.912304 L214.066332,111.632646 C214.066332,110.762348 214.386313,110.028081 215.045097,109.388509 C215.701622,108.752696 216.469575,108.43028 217.327876,108.43028 C218.195965,108.43028 218.915734,108.742174 219.528591,109.384 C220.140695,110.027329 220.437336,110.763099 220.437336,111.632646 L220.437336,116.912304 L221.363398,116.912304 L221.363398,111.632646 C221.363398,110.512832 220.971892,109.54859 220.200927,108.766975 C219.430714,107.983857 218.463996,107.587037 217.327876,107.587037" id="Shape" fill="#FFFFFF" sketch:type="MSShapeGroup"></path>
                <path d="M230.995946,109.601199 C231.759382,110.376801 232.146371,111.306472 232.146371,112.363907 C232.146371,113.437124 231.772934,114.338988 231.004228,115.120602 C230.252838,115.891696 229.333552,116.282503 228.272722,116.282503 C227.194575,116.282503 226.290347,115.902217 225.50583,115.119099 C224.734112,114.347255 224.343359,113.424348 224.343359,112.374429 C224.343359,111.323758 224.734112,110.394087 225.506583,109.610217 C226.290347,108.815826 227.191564,108.429528 228.259923,108.429528 C229.330541,108.429528 230.225734,108.812068 230.995946,109.601199 L230.995946,109.601199 Z M232.102703,109.554602 C231.778205,109.043547 231.315927,108.613658 230.724151,108.27095 C229.935116,107.817012 229.100907,107.587037 228.242606,107.587037 C226.925039,107.587037 225.779131,108.059764 224.837259,108.991689 C223.894633,109.925118 223.41805,111.056957 223.41805,112.35564 C223.41805,113.657329 223.895386,114.790671 224.837259,115.721093 C225.779131,116.653019 226.925039,117.124994 228.242606,117.124994 C229.104672,117.124994 229.923822,116.901031 230.677471,116.457615 C231.266236,116.111149 231.744324,115.663975 232.102703,115.122857 L232.102703,116.911553 L233.028012,116.911553 L233.028012,107.800478 L232.102703,107.800478 L232.102703,109.554602 L232.102703,109.554602 Z" id="Shape" fill="#FFFFFF" sketch:type="MSShapeGroup"></path>
                <path d="M239.777722,107.587037 C238.319363,107.587037 237.221641,108.124398 236.507143,109.183335 L236.507143,107.800478 L235.581834,107.800478 L235.581834,116.912304 L236.507143,116.912304 L236.507143,111.632646 C236.507143,110.767609 236.830888,110.034093 237.494942,109.388509 C238.14695,108.752696 238.914903,108.43028 239.777722,108.43028 C240.646564,108.43028 241.365579,108.742174 241.974672,109.384 C242.589035,110.030335 242.887181,110.765354 242.887181,111.632646 L242.887181,116.912304 L243.813243,116.912304 L243.813243,111.632646 C243.813243,110.510578 243.420232,109.547087 242.647008,108.767727 C241.88056,107.984609 240.915347,107.587037 239.777722,107.587037" id="Shape" fill="#FFFFFF" sketch:type="MSShapeGroup"></path>
                <path d="M250.766988,107.626118 C249.39973,107.626118 248.228977,108.098093 247.287857,109.028516 C246.345985,109.956683 245.868649,111.078752 245.868649,112.364658 C245.868649,113.648311 246.339961,114.780901 247.268282,115.72936 C248.192838,116.683081 249.317664,117.167832 250.611139,117.167832 L250.784305,117.167832 C252.170386,117.167832 253.348668,116.643248 254.286776,115.60836 L254.325174,115.567025 L254.325174,113.988764 L254.052625,114.406627 C253.670154,114.995093 253.170232,115.467068 252.567915,115.809776 C251.964846,116.152484 251.350483,116.318578 250.688687,116.318578 C249.645927,116.318578 248.725888,115.930025 247.956429,115.161186 C247.18471,114.392348 246.793958,113.461174 246.793958,112.39472 C246.793958,111.329019 247.18471,110.398596 247.956429,109.629006 C248.723629,108.859416 249.643668,108.46936 250.688687,108.46936 C251.345965,108.46936 251.961081,108.636205 252.567915,108.978161 C253.164961,109.31636 253.664131,109.782323 254.054131,110.364025 L254.325174,110.767609 L254.325174,109.223919 L254.28527,109.181832 C253.322317,108.149199 252.138764,107.626118 250.766988,107.626118" id="Shape" fill="#FFFFFF" sketch:type="MSShapeGroup"></path>
                <path d="M256.723147,112.277478 C256.723147,111.279416 257.115405,110.381311 257.888629,109.610217 C258.6611,108.838373 259.557799,108.447565 260.552375,108.447565 C261.499517,108.447565 262.360077,108.756453 263.111467,109.366714 L257.625116,114.804199 C257.026564,114.077447 256.723147,113.228193 256.723147,112.277478 L256.723147,112.277478 Z M264.052587,114.327714 L264.011178,114.389342 C263.621178,114.968037 263.118243,115.437006 262.518938,115.784224 C261.922645,116.128435 261.23751,116.303547 260.483861,116.303547 C259.776139,116.303547 259.026255,116.005932 258.253784,115.418969 L264.296525,109.463665 L264.397413,109.363708 L264.302548,109.259242 C263.310985,108.161224 262.105598,107.604323 260.718764,107.604323 C259.336448,107.604323 258.158166,108.07705 257.218552,109.008975 C256.275927,109.940901 255.798591,111.060714 255.798591,112.336099 C255.798591,113.612236 256.278938,114.744826 257.227587,115.703056 C258.172471,116.661286 259.301062,117.146789 260.581737,117.146789 L260.758668,117.146789 C261.120058,117.146789 261.476178,117.107708 261.801429,117.032553 C261.823263,117.029547 261.943726,117.004745 262.120656,116.94913 C262.494846,116.836398 262.853224,116.672559 263.183745,116.462124 C263.424672,116.31482 263.656564,116.14046 263.882432,115.933031 C263.968263,115.854118 264.052587,115.769944 264.133147,115.683516 L264.28222,115.521932 L264.28222,115.517422 C264.529923,115.220559 264.736216,114.889876 264.896583,114.535143 L264.989942,114.327714 L264.052587,114.327714 L264.052587,114.327714 Z" id="Shape" fill="#FFFFFF" sketch:type="MSShapeGroup"></path>
                <path d="M142.723436,112.277478 C142.723436,111.279416 143.115695,110.381311 143.888919,109.610217 C144.66139,108.838373 145.558089,108.447565 146.552664,108.447565 C147.499807,108.447565 148.360367,108.756453 149.111757,109.366714 L143.625405,114.804199 C143.026853,114.077447 142.723436,113.228193 142.723436,112.277478 L142.723436,112.277478 Z M150.052876,114.327714 L150.011467,114.389342 C149.621467,114.968037 149.118533,115.437006 148.519228,115.784224 C147.922934,116.128435 147.237799,116.303547 146.484151,116.303547 C145.776429,116.303547 145.026544,116.005932 144.254073,115.418969 L150.296815,109.463665 L150.397703,109.363708 L150.302838,109.259242 C149.311274,108.161224 148.105888,107.604323 146.719054,107.604323 C145.336737,107.604323 144.158456,108.07705 143.218842,109.008975 C142.276216,109.940901 141.79888,111.060714 141.79888,112.336099 C141.79888,113.612236 142.279228,114.744826 143.227124,115.703056 C144.172761,116.661286 145.301351,117.146789 146.581274,117.146789 L146.758205,117.146789 C147.120347,117.146789 147.476467,117.107708 147.801718,117.032553 C147.823552,117.029547 147.944015,117.004745 148.120946,116.94913 C148.495135,116.836398 148.853514,116.672559 149.184035,116.462124 C149.424961,116.31482 149.656853,116.14046 149.882722,115.933031 C149.968552,115.854118 150.052876,115.769944 150.133436,115.683516 L150.28251,115.521932 L150.28251,115.517422 C150.530212,115.220559 150.736506,114.889876 150.896873,114.535143 L150.990232,114.327714 L150.052876,114.327714 L150.052876,114.327714 Z" id="Shape" fill="#FFFFFF" sketch:type="MSShapeGroup"></path>
            </g>
        </g>
    </g>
</svg>