<?xml version="1.0" encoding="UTF-8" standalone="no"?>
<svg width="320px" height="100px" viewBox="0 0 320 100" version="1.1" xmlns="http://www.w3.org/2000/svg" xmlns:xlink="http://www.w3.org/1999/xlink" xmlns:sketch="http://www.bohemiancoding.com/sketch/ns">
    <!-- Generator: bin/sketchtool 1.3 (252) - http://www.bohemiancoding.com/sketch -->
    <title>logo--medium</title>
    <desc>Created with bin/sketchtool.</desc>
    <defs>
        <path d="M0.60972973,0.418012422 L0.60972973,42.5186335 L2.39814672,42.5186335 L2.39814672,36.4012422 C3.51320463,38.4571429 5.13111969,40.0968944 7.25189189,41.3130435 C9.37328185,42.5279503 11.5521236,43.1360248 13.7853282,43.1360248 C17.4702703,43.1360248 20.6054054,41.8347826 23.1932046,39.2347826 C25.7791506,36.6335404 27.0696525,33.5180124 27.0696525,29.8888199 C27.0696525,26.257764 25.7791506,23.1453416 23.1932046,20.5428571 C20.6054054,17.9440994 17.4702703,16.6409938 13.7853282,16.6409938 C11.4798456,16.6409938 9.25343629,17.2602484 7.11413127,18.4937888 C4.97544402,19.7285714 3.4007722,21.373913 2.39814672,23.4322981 L2.39814672,0.418012422 L0.60972973,0.418012422 L0.60972973,0.418012422 Z M5.71675676,38.1111801 C3.42980695,35.8099379 2.28200772,33.0857143 2.28200772,29.9447205 C2.28200772,26.8 3.42980695,24.0621118 5.71675676,21.7217391 C8.00864865,19.3832298 10.7144402,18.2111801 13.8415444,18.2111801 C16.9674131,18.2111801 19.6565251,19.3720497 21.9082625,21.6937888 C24.1593822,24.0149068 25.2855598,26.7565217 25.2855598,29.915528 C25.2855598,33.0782609 24.1667954,35.8099379 21.935444,38.1111801 C19.7016216,40.4111801 17.0125097,41.5639752 13.8687259,41.5639752 C10.7230888,41.5639752 8.00864865,40.4111801 5.71675676,38.1111801 L5.71675676,38.1111801 Z" id="path-1"></path>
        <path id="path-3" d="M20.7876448,0.490062112 L20.7876448,15.1968944 C20.7876448,17.7745342 19.8128185,20.0223602 17.8576062,21.9304348 C15.9030116,23.8378882 13.6426255,24.7937888 11.0745946,24.7937888 C8.50841699,24.7937888 6.3215444,23.8378882 4.51583012,21.9304348 C2.70764479,20.0223602 1.80633205,17.7745342 1.80633205,15.1968944 L1.80633205,0.490062112 L0.0216216216,0.490062112 L0.0216216216,15.1968944 C0.0216216216,18.3006211 1.08046332,20.9391304 3.20123552,23.1099379 C5.32262548,25.2813665 7.94749035,26.3658385 11.0745946,26.3658385 C15.6534363,26.3658385 18.8892664,24.4559006 20.7876448,20.6385093 L20.7876448,25.7484472 L22.5742085,25.7484472 L22.5742085,0.490062112 L20.7876448,0.490062112 L20.7876448,0.490062112 Z"></path>
        <path id="path-5" d="M5.20339768,1.72608696 C3.79119691,2.54968944 2.74903475,3.59813665 2.07938224,4.87018634 L2.07938224,1.11118012 L0.291583012,1.11118012 L0.291583012,26.3695652 L2.07938224,26.3695652 L2.07938224,9.52919255 C2.07938224,7.54658385 2.83243243,5.80621118 4.33791506,4.30745342 C5.84772201,2.81180124 7.58486486,2.0621118 9.55737452,2.0621118 C11.5342085,2.0621118 13.336834,2.88695652 14.9745174,4.53540373 L14.9745174,2.28757764 C13.3726641,1.09006211 11.7003861,0.491925466 9.95212355,0.491925466 C8.2007722,0.491925466 6.61868726,0.904968944 5.20339768,1.72608696 L5.20339768,1.72608696 Z"></path>
        <path d="M4.31752896,4.39378882 C1.70749035,6.99627329 0.404633205,10.1086957 0.404633205,13.7397516 C0.404633205,17.3689441 1.70749035,20.484472 4.31752896,23.0857143 C6.92756757,25.6857143 10.0546718,26.9869565 13.7000772,26.9869565 C16.0815444,26.9869565 18.314749,26.3695652 20.3996911,25.131677 C22.4846332,23.8981366 24.0481853,22.215528 25.0909653,20.0832298 L25.0909653,26.3695652 L26.8756757,26.3695652 L26.8756757,1.11118012 L25.0909653,1.11118012 L25.0909653,7.4515528 C24.2328958,5.35838509 22.72,3.67329193 20.5411583,2.40062112 C18.3654054,1.12919255 16.0815444,0.491925466 13.7000772,0.491925466 C10.0546718,0.491925466 6.92756757,1.79503106 4.31752896,4.39378882 L4.31752896,4.39378882 Z M5.63150579,21.9621118 C3.34023166,19.6608696 2.19305019,16.936646 2.19305019,13.7956522 C2.19305019,10.6509317 3.34023166,7.91304348 5.63150579,5.57267081 C7.92648649,3.23416149 10.6304247,2.0621118 13.757529,2.0621118 C16.885251,2.0621118 19.5749807,3.22298137 21.8230116,5.5447205 C24.0778378,7.86583851 25.2033977,10.6074534 25.2033977,13.7664596 C25.2033977,16.9291925 24.085251,19.6608696 21.8514286,21.9621118 C19.6182239,24.2621118 16.9284942,25.4149068 13.7865637,25.4149068 C10.6415444,25.4149068 7.92648649,24.2621118 5.63150579,21.9621118 L5.63150579,21.9621118 Z" id="path-7"></path>
        <path id="path-9" d="M20.9309653,0.490062112 L20.9309653,15.1968944 C20.9309653,17.7745342 19.953668,20.0223602 17.9984556,21.9304348 C16.0444788,23.8378882 13.7822394,24.7937888 11.215444,24.7937888 C8.64555985,24.7937888 6.45930502,23.8378882 4.65667954,21.9304348 C2.85034749,20.0223602 1.94594595,17.7745342 1.94594595,15.1968944 L1.94594595,0.490062112 L0.161235521,0.490062112 L0.161235521,15.1968944 C0.161235521,18.3006211 1.22131274,20.9391304 3.3427027,23.1099379 C5.46409266,25.2813665 8.09142857,26.3658385 11.215444,26.3658385 C15.7942857,26.3658385 19.0338224,24.4559006 20.9309653,20.6385093 L20.9309653,25.7484472 L22.7150579,25.7484472 L22.7150579,0.490062112 L20.9309653,0.490062112 L20.9309653,0.490062112 Z"></path>
        <path id="path-11" d="M0.60972973,0.596273292 L0.60972973,42.6484472 L2.39814672,42.6484472 L2.39814672,27.9428571 C2.39814672,25.3614907 3.36494208,23.1130435 5.30100386,21.2055901 C7.23397683,19.2981366 9.48571429,18.342236 12.0549807,18.342236 C14.6236293,18.342236 16.8191506,19.2881988 18.6433977,21.1763975 C20.4676448,23.0664596 21.3757529,25.3223602 21.3757529,27.9428571 L21.3757529,42.6484472 L23.1641699,42.6484472 L23.1641699,27.9428571 C23.1641699,24.8347826 22.092973,22.1962733 19.953668,20.026087 C17.8143629,17.8571429 15.1796139,16.7701863 12.0549807,16.7701863 C7.476139,16.7701863 4.25637066,18.6043478 2.39814672,22.2714286 L2.39814672,0.596273292 L0.60972973,0.596273292 L0.60972973,0.596273292 Z"></path>
        <path d="M4.44540541,4.72768852 C1.83969112,7.33017299 0.538069498,10.4438376 0.538069498,14.0736512 C0.538069498,17.7047072 1.83969112,20.8208562 4.44540541,23.4220985 C7.05173745,26.0239618 10.1794595,27.3233407 13.8242471,27.3233407 C16.206332,27.3233407 18.4395367,26.7047072 20.5244788,25.4705457 C22.6094208,24.2345208 24.1711197,22.5519121 25.2138996,20.4165084 L25.2138996,26.7047072 L26.9998456,26.7047072 L26.9998456,1.44383759 L25.2138996,1.44383759 L25.2138996,7.78793696 C24.3576834,5.69166367 22.8404633,4.00719162 20.6634749,2.73576305 C18.487722,1.46557672 16.206332,0.826446281 13.8242471,0.826446281 C10.1794595,0.826446281 7.05173745,2.12955187 4.44540541,4.72768852 L4.44540541,4.72768852 Z M5.75752896,22.298496 C3.46872587,19.9947693 2.32401544,17.272409 2.32401544,14.1320363 C2.32401544,10.9860736 3.46872587,8.24570094 5.75752896,5.9065705 C8.04694981,3.56868231 10.7527413,2.39849597 13.8823166,2.39849597 C17.0057143,2.39849597 19.6972973,3.55936554 21.9465637,5.88048355 C24.2001544,8.19973821 25.323861,10.9401109 25.323861,14.1016016 C25.323861,17.2637134 24.2088031,19.9947693 21.9755985,22.298496 C19.7423938,24.598496 17.0526641,25.7525332 13.9076448,25.7525332 C10.763861,25.7525332 8.04694981,24.598496 5.75752896,22.298496 L5.75752896,22.298496 Z" id="path-13"></path>
        <path id="path-15" d="M5.20339768,1.23602484 C3.79119691,2.05962733 2.74903475,3.10807453 2.07938224,4.37826087 L2.07938224,0.617391304 L0.291583012,0.617391304 L0.291583012,25.8782609 L2.07938224,25.8782609 L2.07938224,9.03602484 C2.07938224,7.0552795 2.83243243,5.31304348 4.33791506,3.8173913 C5.84772201,2.32173913 7.58486486,1.57204969 9.55737452,1.57204969 C11.5342085,1.57204969 13.336834,2.39689441 14.9745174,4.04223602 L14.9745174,1.79689441 C13.3726641,0.6 11.7003861,3.55271368e-14 9.95212355,3.55271368e-14 C8.2007722,3.55271368e-14 6.61868726,0.413664596 5.20339768,1.23602484 L5.20339768,1.23602484 Z"></path>
        <path d="M24.9464093,0.542236025 L24.9464093,23.5639752 C23.9400772,21.5037267 22.369112,19.8583851 20.2298069,18.6248447 C18.0886486,17.3875776 15.8647104,16.7701863 13.5592278,16.7701863 C9.87366795,16.7701863 6.73915058,18.0732919 4.15135135,20.6714286 C1.56293436,23.273913 0.272432432,26.3875776 0.272432432,30.0173913 C0.272432432,33.6484472 1.56293436,36.7645963 4.15135135,39.3658385 C6.73915058,41.9677019 9.87366795,43.2670807 13.5592278,43.2670807 C15.7899614,43.2670807 17.9675676,42.6596273 20.0883398,41.4434783 C22.2134363,40.2285714 23.8313514,38.5881988 24.9464093,36.5279503 L24.9464093,42.6484472 L26.7348263,42.6484472 L26.7348263,0.542236025 L24.9464093,0.542236025 L24.9464093,0.542236025 Z M5.40725869,38.242236 C3.17528958,35.9385093 2.05899614,33.2074534 2.05899614,30.0453416 C2.05899614,26.8838509 3.18455598,24.1434783 5.43258687,21.8242236 C7.68803089,19.5031056 10.3771429,18.342236 13.5005405,18.342236 C16.6282625,18.342236 19.3359073,19.5124224 21.6265637,21.8503106 C23.914749,24.189441 25.0582239,26.9298137 25.0582239,30.0757764 C25.0582239,33.2161491 23.914749,35.9385093 21.6265637,38.242236 C19.3359073,40.542236 16.6177606,41.6962733 13.4758301,41.6962733 C10.3295753,41.6962733 7.64046332,40.542236 5.40725869,38.242236 L5.40725869,38.242236 Z" id="path-17"></path>
        <path id="path-19" d="M20.7901158,1.62857143 C19.2111197,2.71490683 18.1399228,4.1552795 17.5827027,5.94968944 C16.9130502,4.19254658 15.8486486,2.7621118 14.3969112,1.65590062 C12.9457915,0.552795031 11.4291892,0 9.84772201,0 C8.26563707,0 6.74162162,0.413664596 5.26826255,1.23602484 C3.79861004,2.05962733 2.69158301,3.03167702 1.94903475,4.1552795 L1.94903475,0.617391304 L0.161235521,0.617391304 L0.161235521,25.8782609 L1.94903475,25.8782609 L1.94903475,9.03602484 C1.94903475,7.0552795 2.69158301,5.31304348 4.18285714,3.8173913 C5.67042471,2.32173913 7.4180695,1.57204969 9.42764479,1.57204969 C11.4396911,1.57204969 13.1521236,2.31118012 14.5674131,3.78819876 C15.9789961,5.26832298 16.6881853,7.01677019 16.6881853,9.03602484 L16.6881853,25.8782609 L18.4728958,25.8782609 L18.4728958,9.03602484 C18.4728958,7.0552795 19.243861,5.31304348 20.7901158,3.8173913 C22.3351351,2.32173913 24.1019305,1.57204969 26.0960618,1.57204969 C28.0833977,1.57204969 29.788417,2.29503106 31.2030888,3.73354037 C32.6189961,5.17515528 33.3244788,6.97888199 33.3244788,9.14906832 L33.3244788,25.8782609 L35.1128958,25.8782609 L35.1128958,9.14906832 C35.1128958,6.34285714 34.255444,4.11801242 32.5430116,2.47080745 C30.8305792,0.824223602 28.8401544,0 26.5705019,0 C24.2971429,0 22.3746718,0.542236025 20.7901158,1.62857143 L20.7901158,1.62857143 Z"></path>
        <path d="M4.30332046,3.90124224 C1.70069498,6.50372671 0.397220077,9.6173913 0.397220077,13.247205 C0.397220077,16.8782609 1.70069498,19.9944099 4.30332046,22.5956522 C6.90965251,25.1975155 10.0330502,26.4968944 13.685251,26.4968944 C16.0673359,26.4968944 18.296834,25.8782609 20.3817761,24.6440994 C22.4630116,23.4080745 24.0302703,21.7254658 25.0693436,19.5900621 L25.0693436,25.8782609 L26.8577606,25.8782609 L26.8577606,0.617391304 L25.0693436,0.617391304 L25.0693436,6.96149068 C24.2186873,4.86521739 22.6983784,3.18074534 20.5226255,1.90931677 C18.3437838,0.639130435 16.0673359,0 13.685251,0 C10.0330502,0 6.90965251,1.30310559 4.30332046,3.90124224 L4.30332046,3.90124224 Z M5.61667954,21.4720497 C3.32972973,19.168323 2.18625483,16.4459627 2.18625483,13.3055901 C2.18625483,10.1596273 3.32972973,7.41925466 5.61667954,5.08012422 C7.90486486,2.74223602 10.6125097,1.57204969 13.7396139,1.57204969 C16.8636293,1.57204969 19.5533591,2.73291925 21.8081853,5.05403727 C24.0555985,7.37329193 25.1817761,10.1136646 25.1817761,13.2751553 C25.1817761,16.4372671 24.0667181,19.168323 21.8335135,21.4720497 C19.5996911,23.7720497 16.9105792,24.926087 13.7686486,24.926087 C10.6199228,24.926087 7.90486486,23.7720497 5.61667954,21.4720497 L5.61667954,21.4720497 Z" id="path-21"></path>
        <path id="path-23" d="M1.80324324,5.72670807 L1.80324324,0.617391304 L0.0154440154,0.617391304 L0.0154440154,25.8782609 L1.80324324,25.8782609 L1.80324324,11.1726708 C1.80324324,8.59130435 2.78054054,6.34285714 4.73513514,4.43540373 C6.68972973,2.52795031 8.95196911,1.57204969 11.5187645,1.57204969 C14.0886486,1.57204969 16.2711969,2.52795031 18.077529,4.43540373 C19.8801544,6.34285714 20.784556,8.59130435 20.784556,11.1726708 L20.784556,25.8782609 L22.572973,25.8782609 L22.572973,11.1726708 C22.572973,8.06459627 21.512278,5.42608696 19.3915058,3.25590062 C17.2664093,1.08695652 14.6421622,3.55271368e-14 11.5187645,3.55271368e-14 C6.93930502,3.55271368e-14 3.7034749,1.90931677 1.80324324,5.72670807 L1.80324324,5.72670807 Z"></path>
        <path d="M3.97405405,3.95838509 C1.36401544,6.56024845 0.0605405405,9.63664596 0.0605405405,13.1913043 C0.0605405405,16.747205 1.37513514,19.8639752 4.00247104,22.5385093 C6.62671815,25.215528 9.70749035,26.5515528 13.2435521,26.5515528 L13.747027,26.5515528 C14.7601544,26.5515528 15.7337452,26.4385093 16.6677992,26.2242236 C16.6900386,26.2198758 17.00139,26.1583851 17.5005405,26.0018634 C18.5284942,25.6888199 19.5057915,25.2372671 20.4256371,24.6490683 C21.0483398,24.2670807 21.6926641,23.7900621 22.3184556,23.2118012 C22.3258687,23.2031056 22.3363707,23.1937888 22.3474903,23.1826087 C22.5828571,22.9664596 22.8145174,22.7335404 23.042471,22.4857143 C23.1437838,22.3807453 23.2488031,22.2838509 23.3501158,22.1745342 L23.3501158,22.1490683 C24.0197683,21.3590062 24.6350579,20.4279503 25.1305019,19.3173913 L23.3501158,19.3173913 L23.3501158,19.310559 C22.1949035,21.031677 20.7326641,22.4074534 18.9664865,23.4360248 C17.1966023,24.4658385 15.1987645,24.9801242 12.9649421,24.9801242 C10.7317375,24.9801242 8.4046332,24.0086957 5.98671815,22.0614907 L23.5169112,4.66024845 C20.7616988,1.59006211 17.4677992,0.0583850932 13.6345946,0.0583850932 C9.80138996,0.0583850932 6.5803861,1.35714286 3.97405405,3.95838509 L3.97405405,3.95838509 Z M1.84895753,13.0236025 C1.84895753,10.0285714 2.996139,7.3826087 5.28741313,5.08012422 C7.57868726,2.77950311 10.2029344,1.62857143 13.1601544,1.62857143 C16.1216988,1.62857143 18.7527413,2.63850932 21.0625483,4.66024845 L4.81359073,20.8850932 C2.83737452,18.6354037 1.84895753,16.015528 1.84895753,13.0236025 L1.84895753,13.0236025 Z" id="path-25"></path>
        <path d="M4.34903475,4.4484472 C1.74332046,7.05031056 0.442934363,10.1273292 0.442934363,13.6813665 C0.442934363,17.2403727 1.75196911,20.3534161 4.3780695,23.0285714 C6.99861004,25.7062112 10.0787645,27.0416149 13.615444,27.0416149 L14.1189189,27.0416149 C15.1357529,27.0416149 16.1019305,26.9267081 17.0359846,26.7142857 C17.0594595,26.7080745 17.3726641,26.6447205 17.8705792,26.489441 C18.9003861,26.1770186 19.8739768,25.7242236 20.8006178,25.1391304 C21.4196139,24.7534161 22.0602317,24.2770186 22.6897297,23.7018634 C22.7008494,23.6906832 22.7113514,23.6826087 22.7193822,23.6714286 C22.9578378,23.4565217 23.1820849,23.2236025 23.4106564,22.973913 C23.5156757,22.8670807 23.620695,22.7732919 23.7220077,22.663354 L23.7220077,22.6378882 C24.3879537,21.8484472 25.0032432,20.9142857 25.5023938,19.8074534 L23.7220077,19.8074534 L23.7220077,19.8 C22.5705019,21.5217391 21.104556,22.8962733 19.3383784,23.926087 C17.5678764,24.9559006 15.5700386,25.4708075 13.336834,25.4708075 C11.1036293,25.4708075 8.77590734,24.4975155 6.35799228,22.5515528 L23.8881853,5.15093168 C21.1335907,2.08447205 17.8396911,0.547826087 14.0064865,0.547826087 C10.1714286,0.547826087 6.95289575,1.84968944 4.34903475,4.4484472 L4.34903475,4.4484472 Z M2.22764479,13.515528 C2.22764479,10.5198758 3.36988417,7.87453416 5.66301158,5.57080745 C7.95057915,3.27018634 10.5717375,2.11925466 13.5338996,2.11925466 C16.4911197,2.11925466 19.1209266,3.13043478 21.4307336,5.15093168 L5.18486486,21.3751553 C3.21235521,19.1273292 2.22764479,16.5093168 2.22764479,13.515528 L2.22764479,13.515528 Z" id="path-27"></path>
    </defs>
    <g id="Home" stroke="none" stroke-width="1" fill="none" fill-rule="evenodd" sketch:type="MSPage">
        <g sketch:type="MSArtboardGroup" transform="translate(-32.000000, -301.000000)" id="logo--medium">
            <g sketch:type="MSLayerGroup" transform="translate(32.000000, 301.000000)">
                <path d="M11.5459459,50.0931677 L35.9481081,77.1695652 L43.8362934,31.9714286 L8.39969112,20.1919255 L11.5459459,50.0931677 L11.5459459,50.0931677 Z M36.4546718,78.9347826 L10.7749807,50.4403727 L7.47057915,19.0322981 L44.7468726,31.4229814 L44.6875676,31.7670807 L36.4546718,78.9347826 L36.4546718,78.9347826 Z" id="Shape" fill="#FFFFFF" sketch:type="MSShapeGroup"></path>
                <path d="M7.38409266,59.6614907 L53.4523552,70.2267081 L23.2172973,17.2167702 L1.34980695,35.968323 L7.38409266,59.6614907 L7.38409266,59.6614907 Z M55.0610039,71.4236025 L6.72803089,60.3397516 L0.447258687,35.6807453 L23.432278,15.9708075 L55.0610039,71.4236025 L55.0610039,71.4236025 Z" id="Shape" fill="#FFFFFF" sketch:type="MSShapeGroup"></path>
                <path d="M20.0197683,34.8677019 L12.043861,67.5819876 L57.6636293,50.1434783 L41.0273359,17.2285714 L20.0197683,34.8677019 L20.0197683,34.8677019 Z M10.8997683,68.8838509 L19.303166,34.4173913 L19.403861,34.3329193 L41.2867954,15.9596273 L58.7842471,50.578882 L10.8997683,68.8838509 L10.8997683,68.8838509 Z" id="Shape" fill="#FFFFFF" sketch:type="MSShapeGroup"></path>
                <rect id="Rectangle-path" fill="#FFFFFF" sketch:type="MSShapeGroup" x="18.1887259" y="0.398757764" width="22.6699614" height="0.808074534"></rect>
                <g id="Clipped" transform="translate(79.073359, 0.000000)">
                    <mask id="mask-2" sketch:name="Shape" fill="white">
                        <use xlink:href="#path-1"></use>
                    </mask>
                    <g id="Shape"></g>
                    <path d="M-20.1649421,24.0782609 L1.3932973,-0.474409938 L33.4094208,27.9434161 L11.8511815,52.496087 L-20.1649421,24.0782609 L-20.1649421,24.0782609 Z" id="Shape" fill="#FFFFFF" sketch:type="MSShapeGroup" mask="url(#mask-2)"></path>
                </g>
                <g id="Clipped" transform="translate(110.579151, 16.770186)">
                    <mask id="mask-4" sketch:name="Shape" fill="white">
                        <use xlink:href="#path-3"></use>
                    </mask>
                    <g id="Shape"></g>
                    <path d="M-9.88972973,11.7782609 L9.89998456,-10.7601863 L35.0385174,11.5530435 L15.2488031,34.0914907 L-9.88972973,11.7782609 L-9.88972973,11.7782609 Z" id="Shape" fill="#FFFFFF" sketch:type="MSShapeGroup" mask="url(#mask-4)"></path>
                </g>
                <g id="Clipped" transform="translate(142.084942, 16.149068)">
                    <mask id="mask-6" sketch:name="Shape" fill="white">
                        <use xlink:href="#path-5"></use>
                    </mask>
                    <g id="Shape"></g>
                    <path d="M-12.1723552,15.3062112 L6.14227027,-5.55223602 L19.6109961,6.40273292 L1.29637066,27.2611801 L-12.1723552,15.3062112 L-12.1723552,15.3062112 Z" id="Shape" fill="#FFFFFF" sketch:type="MSShapeGroup" mask="url(#mask-6)"></path>
                </g>
                <g id="Clipped" transform="translate(190.888031, 16.149068)">
                    <mask id="mask-8" sketch:name="Shape" fill="white">
                        <use xlink:href="#path-7"></use>
                    </mask>
                    <g id="Shape"></g>
                    <path d="M-5.22872587,14.8956522 L15.6350888,-8.86608696 L39.3395521,12.1742236 L18.4757375,35.9359627 L-5.22872587,14.8956522 L-5.22872587,14.8956522 Z" id="Shape" fill="#FFFFFF" sketch:type="MSShapeGroup" mask="url(#mask-8)"></path>
                </g>
                <g id="Clipped" transform="translate(223.629344, 16.770186)">
                    <mask id="mask-10" sketch:name="Shape" fill="white">
                        <use xlink:href="#path-9"></use>
                    </mask>
                    <g id="Shape"></g>
                    <path d="M-9.74949807,11.7776398 L10.0399073,-10.7604969 L35.1791197,11.553354 L15.3897143,34.0914907 L-9.74949807,11.7776398 L-9.74949807,11.7776398 Z" id="Shape" fill="#FFFFFF" sketch:type="MSShapeGroup" mask="url(#mask-10)"></path>
                </g>
                <g id="Clipped" transform="translate(79.073359, 35.403727)">
                    <mask id="mask-12" sketch:name="Shape" fill="white">
                        <use xlink:href="#path-11"></use>
                    </mask>
                    <g id="Shape"></g>
                    <path d="M-20.1414672,24.2298137 L1.39286486,-0.295652174 L34.8195212,29.3742236 L13.2851892,53.8996894 L-20.1414672,24.2298137 L-20.1414672,24.2298137 Z" id="Shape" fill="#FFFFFF" sketch:type="MSShapeGroup" mask="url(#mask-12)"></path>
                </g>
                <g id="Clipped" transform="translate(108.108108, 51.347467)">
                    <mask id="mask-14" sketch:name="Shape" fill="white">
                        <use xlink:href="#path-13"></use>
                    </mask>
                    <g id="Shape"></g>
                    <path d="M-5.10208494,15.2363842 L15.7644479,-8.52852266 L39.4650193,12.5083717 L18.5984865,36.2732786 L-5.10208494,15.2363842 L-5.10208494,15.2363842 Z" id="Shape" fill="#FFFFFF" sketch:type="MSShapeGroup" mask="url(#mask-14)"></path>
                </g>
                <g id="Clipped" transform="translate(142.084942, 52.173913)">
                    <mask id="mask-16" sketch:name="Shape" fill="white">
                        <use xlink:href="#path-15"></use>
                    </mask>
                    <g id="Shape"></g>
                    <path d="M-12.1735907,14.8142857 L6.14072587,-6.04385093 L19.6106873,5.91223602 L1.29637066,26.7703727 L-12.1735907,14.8142857 L-12.1735907,14.8142857 Z" id="Shape" fill="#FFFFFF" sketch:type="MSShapeGroup" mask="url(#mask-16)"></path>
                </g>
                <g id="Clipped" transform="translate(159.382239, 35.403727)">
                    <mask id="mask-18" sketch:name="Shape" fill="white">
                        <use xlink:href="#path-17"></use>
                    </mask>
                    <g id="Shape"></g>
                    <path d="M-5.39428571,31.1975155 L23.8055907,-2.05819876 L47.5127104,18.9845342 L18.312834,52.2402484 L-5.39428571,31.1975155 L-5.39428571,31.1975155 Z" id="Shape" fill="#FFFFFF" sketch:type="MSShapeGroup" mask="url(#mask-18)"></path>
                </g>
                <g id="Clipped" transform="translate(223.629344, 52.173913)">
                    <mask id="mask-20" sketch:name="Shape" fill="white">
                        <use xlink:href="#path-19"></use>
                    </mask>
                    <g id="Shape"></g>
                    <path d="M-12.3039382,14.8142857 L13.4923861,-14.5650932 L45.6004324,13.9343478 L19.8041081,43.3137267 L-12.3039382,14.8142857 L-12.3039382,14.8142857 Z" id="Shape" fill="#FFFFFF" sketch:type="MSShapeGroup" mask="url(#mask-20)"></path>
                </g>
                <g id="Clipped" transform="translate(263.166023, 52.173913)">
                    <mask id="mask-22" sketch:name="Shape" fill="white">
                        <use xlink:href="#path-21"></use>
                    </mask>
                    <g id="Shape"></g>
                    <path d="M-5.2423166,14.4111801 L15.624278,-9.35372671 L39.3231197,11.6816149 L18.4565251,35.4465217 L-5.2423166,14.4111801 L-5.2423166,14.4111801 Z" id="Shape" fill="#FFFFFF" sketch:type="MSShapeGroup" mask="url(#mask-22)"></path>
                </g>
                <g id="Clipped" transform="translate(297.142857, 52.173913)">
                    <mask id="mask-24" sketch:name="Shape" fill="white">
                        <use xlink:href="#path-23"></use>
                    </mask>
                    <g id="Shape"></g>
                    <path d="M-12.4497297,14.8142857 L7.33967568,-7.72385093 L32.4822239,14.5929814 L12.6928185,37.131118 L-12.4497297,14.8142857 L-12.4497297,14.8142857 Z" id="Shape" fill="#FFFFFF" sketch:type="MSShapeGroup" mask="url(#mask-24)"></path>
                </g>
                <g id="Clipped" transform="translate(192.741313, 52.173913)">
                    <mask id="mask-26" sketch:name="Shape" fill="white">
                        <use xlink:href="#path-25"></use>
                    </mask>
                    <g id="Shape"></g>
                    <path d="M-5.53637066,14.4192547 L12.3129575,-5.90931677 L32.3741776,11.897205 L14.5248494,32.2257764 L-5.53637066,14.4192547 L-5.53637066,14.4192547 Z" id="Shape" fill="#FFFFFF" sketch:type="MSShapeGroup" mask="url(#mask-26)"></path>
                </g>
                <g id="Clipped" transform="translate(160.617761, 16.149068)">
                    <mask id="mask-28" sketch:name="Shape" fill="white">
                        <use xlink:href="#path-27"></use>
                    </mask>
                    <g id="Shape"></g>
                    <path d="M-5.1607722,14.9136646 L12.6867027,-5.41279503 L32.7431042,12.3895031 L14.8956293,32.7159627 L-5.1607722,14.9136646 L-5.1607722,14.9136646 Z" id="Shape" fill="#FFFFFF" sketch:type="MSShapeGroup" mask="url(#mask-28)"></path>
                </g>
                <path d="M81.0619305,95.4062112 C80.6523552,94.9993789 80.4447876,94.4795031 80.4447876,93.8614907 L80.4447876,89.8043478 L82.6662548,89.8043478 L82.6662548,89.1080745 L80.4447876,89.1080745 L80.4447876,86.1639752 L79.6874131,86.1639752 L79.6874131,93.8614907 C79.6874131,94.689441 79.9709653,95.3801242 80.5300386,95.9149068 C81.0878764,96.4478261 81.7711197,96.7180124 82.5606178,96.7180124 L82.6823166,96.7180124 L82.6823166,96.0186335 L82.5606178,96.0186335 C81.9762162,96.0186335 81.4721236,95.8130435 81.0619305,95.4062112" id="Shape" fill="#FFFFFF" sketch:type="MSShapeGroup"></path>
                <path d="M89.9385328,90.578882 C90.56,91.2173913 90.8750579,91.9857143 90.8750579,92.8627329 C90.8750579,93.7515528 90.5705019,94.4968944 89.9434749,95.1409938 C89.3281853,95.7782609 88.5757529,96.1012422 87.7059459,96.1012422 C86.8250193,96.1012422 86.0849421,95.7869565 85.4412355,95.1397516 C84.8080309,94.5018634 84.4867954,93.7391304 84.4867954,92.8714286 C84.4867954,92.0031056 84.8080309,91.2347826 85.4418533,90.5863354 C86.0849421,89.9304348 86.8225483,89.6111801 87.6972973,89.6111801 C88.565251,89.6111801 89.3183012,89.936646 89.9385328,90.578882 L89.9385328,90.578882 Z M90.8447876,90.542236 C90.5779151,90.1192547 90.1998456,89.7627329 89.7155212,89.4801242 C89.0681081,89.1049689 88.3848649,88.9149068 87.6830888,88.9149068 C86.6007722,88.9149068 85.6617761,89.3055901 84.8920463,90.0751553 C84.1192278,90.847205 83.7275676,91.7826087 83.7275676,92.8559006 C83.7275676,93.931677 84.1198456,94.868323 84.8920463,95.6372671 C85.6617761,96.4074534 86.6007722,96.7975155 87.6830888,96.7975155 C88.3885714,96.7975155 89.0588417,96.6124224 89.6759846,96.2459627 C90.1578378,95.9596273 90.5494981,95.5888199 90.8447876,95.1409938 L90.8447876,96.621118 L91.6027799,96.621118 L91.6027799,89.0913043 L90.8447876,89.0913043 L90.8447876,90.542236 L90.8447876,90.542236 Z" id="Shape" fill="#FFFFFF" sketch:type="MSShapeGroup"></path>
                <path d="M98.6792278,89.0913043 L97.8730502,89.0913043 L96.3292664,91.4521739 L94.7817761,89.0913043 L93.8928185,89.0913043 L95.8918919,92.1273292 L92.9630888,96.621118 L93.7680309,96.621118 L96.2940541,92.7534161 L98.8373745,96.621118 L99.7257143,96.621118 L96.7271042,92.0795031 L98.6792278,89.0913043 L98.6792278,89.0913043 Z" id="Shape" fill="#FFFFFF" sketch:type="MSShapeGroup"></path>
                <path d="M111.051737,96.1012422 C110.179459,96.1012422 109.417761,95.7776398 108.785792,95.1397516 C108.14332,94.4975155 107.830734,93.7552795 107.830734,92.8714286 C107.830734,92 108.152587,91.2310559 108.787027,90.5863354 C109.418378,89.9397516 110.177606,89.6111801 111.044324,89.6111801 C111.920309,89.6111801 112.652355,89.9273292 113.281853,90.578882 C113.906409,91.2217391 114.222703,91.9900621 114.222703,92.8627329 C114.222703,93.7360248 113.909498,94.5024845 113.290502,95.1409938 C112.672741,95.7776398 111.919073,96.1012422 111.051737,96.1012422 M111.025174,88.9149068 C110.341313,88.9149068 109.673514,89.1 109.042162,89.4639752 C108.551042,89.747205 108.155676,90.1086957 107.862857,90.542236 L107.862857,89.0913043 L107.103629,89.0913043 L107.103629,99.857764 L107.862857,99.857764 L107.862857,95.1596273 C108.173591,95.6006211 108.582548,95.9695652 109.082317,96.2583851 C109.71305,96.6167702 110.367259,96.7981366 111.025174,96.7981366 C112.121081,96.7981366 113.063166,96.4074534 113.825483,95.6372671 C114.591506,94.8664596 114.980077,93.9304348 114.980077,92.8559006 C114.980077,91.7838509 114.591506,90.8484472 113.825483,90.0763975 C113.063166,89.3055901 112.121081,88.9149068 111.025174,88.9149068" id="Shape" fill="#FFFFFF" sketch:type="MSShapeGroup"></path>
                <path d="M128.475676,88.9149068 C127.283398,88.9149068 126.385174,89.3583851 125.799537,90.2341615 L125.799537,89.0913043 L125.040309,89.0913043 L125.040309,96.6217391 L125.799537,96.6217391 L125.799537,92.2583851 C125.799537,91.5397516 126.06332,90.9329193 126.606332,90.4037267 C127.141313,89.8782609 127.770193,89.6118012 128.475676,89.6118012 C129.189189,89.6118012 129.780386,89.8695652 130.28139,90.4 C130.7861,90.9341615 131.030734,91.5416149 131.030734,92.2583851 L131.030734,96.6217391 L131.788726,96.6217391 L131.788726,92.2583851 C131.788726,91.3341615 131.466873,90.5372671 130.83305,89.8900621 C130.201081,89.2428571 129.407876,88.9149068 128.475676,88.9149068" id="Shape" fill="#FFFFFF" sketch:type="MSShapeGroup"></path>
                <path d="M136.833977,92.2987578 C136.454054,92.0602484 136.117992,91.8608696 135.806641,91.6900621 C135.485405,91.5111801 135.200618,91.3080745 134.959691,91.084472 C134.743475,90.8813665 134.637838,90.6670807 134.637838,90.4291925 C134.637838,90.1925466 134.728649,90 134.915212,89.8397516 C135.106718,89.6763975 135.329112,89.5937888 135.576834,89.5937888 C136.063629,89.5937888 136.455907,89.8291925 136.778996,90.3149068 L137.00139,90.6496894 L137.00139,89.5385093 L136.969266,89.5037267 C136.60417,89.1024845 136.156911,88.8981366 135.641081,88.8981366 C135.126486,88.8981366 134.702085,89.042236 134.380232,89.3248447 C134.047259,89.6118012 133.87861,89.9689441 133.87861,90.3863354 C133.87861,90.8012422 134.010193,91.1652174 134.268417,91.468323 C134.514286,91.7621118 134.817606,92.0161491 135.170347,92.2254658 C135.508263,92.4217391 135.849266,92.6254658 136.190888,92.8298137 C136.525714,93.031677 136.81112,93.273913 137.038456,93.5496894 C137.261467,93.8198758 137.370193,94.1465839 137.370193,94.5484472 C137.370193,94.9354037 137.192278,95.2944099 136.84139,95.615528 C136.483089,95.9378882 136.036448,96.1012422 135.512587,96.1012422 C134.656988,96.1012422 134.050347,95.6801242 133.658069,94.8130435 L133.426409,94.3 L133.426409,95.673913 L133.442471,95.7018634 C133.629653,96.036646 133.920618,96.3062112 134.3061,96.5024845 C134.690965,96.6987578 135.114131,96.7981366 135.562625,96.7981366 C136.266873,96.7981366 136.87722,96.5608696 137.375753,96.0925466 C137.875521,95.6229814 138.129421,95.0453416 138.129421,94.3770186 C138.129421,93.9173913 137.999073,93.5074534 137.74332,93.157764 C137.493127,92.8099379 137.186718,92.521118 136.833977,92.2987578" id="Shape" fill="#FFFFFF" sketch:type="MSShapeGroup"></path>
                <path d="M140.407104,86.4540373 C140.027799,86.4540373 139.818996,86.652795 139.818996,87.0130435 C139.818996,87.3732919 140.027799,87.5720497 140.407104,87.5720497 C140.786409,87.5720497 140.995212,87.3732919 140.995212,87.0130435 C140.995212,86.652795 140.786409,86.4540373 140.407104,86.4540373" id="Shape" fill="#FFFFFF" sketch:type="MSShapeGroup"></path>
                <rect id="Rectangle-path" fill="#FFFFFF" sketch:type="MSShapeGroup" x="140.029035" y="89.1080745" width="0.759227799" height="7.51304348"></rect>
                <path d="M149.832278,92.8627329 C149.832278,93.7515528 149.527104,94.4968944 148.900077,95.1409938 C148.284788,95.7782609 147.532355,96.1012422 146.661313,96.1012422 C145.781622,96.1012422 145.041544,95.7869565 144.397838,95.1397516 C143.76278,94.5012422 143.440309,93.7385093 143.440309,92.8708075 C143.440309,92.0037267 143.76278,91.2354037 144.398456,90.5863354 C145.041544,89.9304348 145.779768,89.6111801 146.6539,89.6111801 C147.531737,89.6111801 148.263784,89.9273292 148.892046,90.5795031 C149.515985,91.2180124 149.832278,91.9863354 149.832278,92.8627329 M146.647104,88.9142857 C145.561081,88.9142857 144.618996,89.3049689 143.847413,90.0751553 C143.076448,90.8440994 142.684788,91.7689441 142.684788,92.8236025 C142.684788,93.8782609 143.069653,94.8136646 143.82888,95.6031056 C144.588726,96.3956522 145.51166,96.7975155 146.572355,96.7975155 L146.718147,96.7975155 C147.788726,96.7975155 148.71166,96.3987578 149.461622,95.6111801 C150.210347,94.8291925 150.589653,93.8937888 150.589653,92.831677 C150.589653,91.7714286 150.202317,90.8440994 149.438147,90.0751553 C148.672124,89.3049689 147.733127,88.9142857 146.647104,88.9142857" id="Shape" fill="#FFFFFF" sketch:type="MSShapeGroup"></path>
                <path d="M155.717066,88.9149068 C154.522934,88.9149068 153.623475,89.3583851 153.039073,90.2329193 L153.039073,89.0913043 L152.279846,89.0913043 L152.279846,96.6217391 L153.039073,96.6217391 L153.039073,92.2583851 C153.039073,91.5403727 153.303475,90.9341615 153.847722,90.4037267 C154.393205,89.8701863 155.005405,89.6118012 155.717066,89.6118012 C156.421313,89.6118012 157.028571,89.8770186 157.52278,90.4 C158.025019,90.931677 158.268417,91.5397516 158.268417,92.2583851 L158.268417,96.6217391 L159.028263,96.6217391 L159.028263,92.2583851 C159.028263,91.3335404 158.707645,90.536646 158.076293,89.8900621 C157.441853,89.2428571 156.648031,88.9149068 155.717066,88.9149068" id="Shape" fill="#FFFFFF" sketch:type="MSShapeGroup"></path>
                <path d="M167.915985,89.0012422 C167.915985,88.3795031 168.122317,87.8602484 168.529421,87.4565217 C168.943938,87.0440994 169.435058,86.8434783 170.029961,86.8434783 L170.15166,86.8434783 L170.15166,86.1447205 L170.029961,86.1447205 C169.235521,86.1447205 168.552278,86.4149068 167.998764,86.9484472 C167.439073,87.4850932 167.154903,88.1757764 167.154903,89.0012422 L167.154903,96.621118 L167.915985,96.621118 L167.915985,93.8347826 L170.167104,93.8347826 L170.167104,93.1354037 L167.915985,93.1354037 L167.915985,89.0012422 L167.915985,89.0012422 Z" id="Shape" fill="#FFFFFF" sketch:type="MSShapeGroup"></path>
                <path d="M172.205097,86.4540373 C171.82332,86.4540373 171.613282,86.652795 171.613282,87.0130435 C171.613282,87.3732919 171.82332,87.5720497 172.205097,87.5720497 C172.581931,87.5720497 172.789498,87.3732919 172.789498,87.0130435 C172.789498,86.652795 172.581931,86.4540373 172.205097,86.4540373" id="Shape" fill="#FFFFFF" sketch:type="MSShapeGroup"></path>
                <rect id="Rectangle-path" fill="#FFFFFF" sketch:type="MSShapeGroup" x="171.82332" y="89.1080745" width="0.759227799" height="7.51304348"></rect>
                <path d="M178.320309,88.9149068 C177.12556,88.9149068 176.227336,89.357764 175.64417,90.2322981 L175.64417,89.0913043 L174.883089,89.0913043 L174.883089,96.6217391 L175.64417,96.6217391 L175.64417,92.2583851 C175.64417,91.5391304 175.906718,90.9322981 176.447259,90.4037267 C176.985946,89.8782609 177.616062,89.6118012 178.320309,89.6118012 C179.032587,89.6118012 179.623166,89.8695652 180.126023,90.4 C180.628263,90.931677 180.87166,91.5397516 180.87166,92.2583851 L180.87166,96.6217391 L181.631506,96.6217391 L181.631506,92.2583851 C181.631506,91.3329193 181.31027,90.5360248 180.677683,89.8900621 C180.045714,89.2428571 179.25251,88.9149068 178.320309,88.9149068" id="Shape" fill="#FFFFFF" sketch:type="MSShapeGroup"></path>
                <path d="M189.535135,90.5795031 C190.161544,91.2204969 190.479073,91.9888199 190.479073,92.8627329 C190.479073,93.7496894 190.172664,94.4950311 189.541931,95.1409938 C188.925405,95.7782609 188.17112,96.1012422 187.300695,96.1012422 C186.416062,96.1012422 185.674131,95.7869565 185.030425,95.1397516 C184.39722,94.5018634 184.076602,93.7391304 184.076602,92.8714286 C184.076602,92.0031056 184.39722,91.2347826 185.031042,90.5869565 C185.674131,89.9304348 186.413591,89.6111801 187.290193,89.6111801 C188.168649,89.6111801 188.903166,89.9273292 189.535135,90.5795031 L189.535135,90.5795031 Z M190.443243,90.5409938 C190.176988,90.1186335 189.797683,89.763354 189.312124,89.4801242 C188.66471,89.1049689 187.980232,88.9149068 187.275985,88.9149068 C186.194903,88.9149068 185.254672,89.3055901 184.481853,90.0757764 C183.708417,90.847205 183.317375,91.7826087 183.317375,92.8559006 C183.317375,93.931677 183.709035,94.868323 184.481853,95.6372671 C185.254672,96.4074534 186.194903,96.7975155 187.275985,96.7975155 C187.98332,96.7975155 188.655444,96.6124224 189.273822,96.2459627 C189.756911,95.9596273 190.149189,95.5900621 190.443243,95.1428571 L190.443243,96.621118 L191.202471,96.621118 L191.202471,89.0913043 L190.443243,89.0913043 L190.443243,90.5409938 L190.443243,90.5409938 Z" id="Shape" fill="#FFFFFF" sketch:type="MSShapeGroup"></path>
                <path d="M196.740695,88.9149068 C195.544093,88.9149068 194.643398,89.3590062 194.057143,90.2341615 L194.057143,89.0913043 L193.297915,89.0913043 L193.297915,96.6217391 L194.057143,96.6217391 L194.057143,92.2583851 C194.057143,91.5434783 194.32278,90.9372671 194.867645,90.4037267 C195.402625,89.8782609 196.032741,89.6118012 196.740695,89.6118012 C197.453591,89.6118012 198.043552,89.8695652 198.54332,90.4 C199.047413,90.9341615 199.292046,91.5416149 199.292046,92.2583851 L199.292046,96.6217391 L200.051892,96.6217391 L200.051892,92.2583851 C200.051892,91.3310559 199.729421,90.5347826 199.094981,89.8906832 C198.4661,89.2434783 197.674131,88.9149068 196.740695,88.9149068" id="Shape" fill="#FFFFFF" sketch:type="MSShapeGroup"></path>
                <path d="M205.757529,88.947205 C204.635676,88.947205 203.675058,89.3372671 202.902857,90.1062112 C202.130039,90.8732919 201.738378,91.8006211 201.738378,92.863354 C201.738378,93.9242236 202.125097,94.8602484 202.886795,95.6440994 C203.645405,96.4322981 204.56834,96.8329193 205.629653,96.8329193 L205.771737,96.8329193 C206.909035,96.8329193 207.87583,96.3993789 208.64556,95.5440994 L208.677066,95.5099379 L208.677066,94.2055901 L208.453436,94.5509317 C208.139614,95.0372671 207.729421,95.4273292 207.235212,95.710559 C206.740386,95.9937888 206.236293,96.1310559 205.693282,96.1310559 C204.837683,96.1310559 204.08278,95.8099379 203.451429,95.1745342 C202.818224,94.5391304 202.497606,93.7695652 202.497606,92.8881988 C202.497606,92.0074534 202.818224,91.2385093 203.451429,90.6024845 C204.080927,89.9664596 204.83583,89.6440994 205.693282,89.6440994 C206.232587,89.6440994 206.737297,89.7819876 207.235212,90.0645963 C207.725097,90.3440994 208.134672,90.7291925 208.454672,91.2099379 L208.677066,91.5434783 L208.677066,90.2677019 L208.644324,90.2329193 C207.854208,89.3795031 206.883089,88.947205 205.757529,88.947205" id="Shape" fill="#FFFFFF" sketch:type="MSShapeGroup"></path>
                <path d="M210.644633,92.7913043 C210.644633,91.9664596 210.966486,91.2242236 211.600927,90.5869565 C212.234749,89.9490683 212.970502,89.626087 213.786564,89.626087 C214.563707,89.626087 215.269807,89.8813665 215.886332,90.3857143 L211.38471,94.8795031 C210.893591,94.278882 210.644633,93.5770186 210.644633,92.7913043 L210.644633,92.7913043 Z M216.658533,94.4857143 L216.624556,94.536646 C216.304556,95.0149068 215.891892,95.4024845 215.400154,95.689441 C214.910888,95.973913 214.348726,96.1186335 213.730347,96.1186335 C213.149653,96.1186335 212.534363,95.8726708 211.900541,95.3875776 L216.858687,90.4658385 L216.941467,90.3832298 L216.863629,90.2968944 C216.050039,89.389441 215.061004,88.9291925 213.923089,88.9291925 C212.78888,88.9291925 211.822085,89.3198758 211.05112,90.0900621 C210.277683,90.8602484 209.886023,91.7857143 209.886023,92.8397516 C209.886023,93.8944099 210.280154,94.8304348 211.058533,95.6223602 C211.833822,96.4142857 212.759846,96.815528 213.810656,96.815528 L213.95583,96.815528 C214.252355,96.815528 214.544556,96.7832298 214.811429,96.721118 C214.829344,96.7186335 214.928185,96.6981366 215.073359,96.6521739 C215.380386,96.5590062 215.67444,96.4236025 215.945637,96.2496894 C216.14332,96.1279503 216.333591,95.9838509 216.518919,95.8124224 C216.589344,95.747205 216.658533,95.6776398 216.724633,95.6062112 L216.84695,95.4726708 L216.84695,95.4689441 C217.050193,95.2236025 217.219459,94.9503106 217.351042,94.6571429 L217.427645,94.4857143 L216.658533,94.4857143 L216.658533,94.4857143 Z" id="Shape" fill="#FFFFFF" sketch:type="MSShapeGroup"></path>
                <path d="M117.106409,92.7913043 C117.106409,91.9664596 117.428263,91.2242236 118.062703,90.5869565 C118.696525,89.9490683 119.432278,89.626087 120.24834,89.626087 C121.025483,89.626087 121.731583,89.8813665 122.348108,90.3857143 L117.846486,94.8795031 C117.355367,94.278882 117.106409,93.5770186 117.106409,92.7913043 L117.106409,92.7913043 Z M123.120309,94.4857143 L123.086332,94.536646 C122.766332,95.0149068 122.353668,95.4024845 121.861931,95.689441 C121.372664,95.973913 120.810502,96.1186335 120.192124,96.1186335 C119.611429,96.1186335 118.996139,95.8726708 118.362317,95.3875776 L123.320463,90.4658385 L123.403243,90.3832298 L123.325405,90.2968944 C122.511815,89.389441 121.52278,88.9291925 120.384865,88.9291925 C119.250656,88.9291925 118.283861,89.3198758 117.512896,90.0900621 C116.739459,90.8602484 116.347799,91.7857143 116.347799,92.8397516 C116.347799,93.8944099 116.741931,94.8304348 117.519691,95.6223602 C118.295598,96.4142857 119.221622,96.815528 120.271815,96.815528 L120.416988,96.815528 C120.714131,96.815528 121.006332,96.7832298 121.273205,96.721118 C121.29112,96.7186335 121.389961,96.6981366 121.535135,96.6521739 C121.842162,96.5590062 122.136216,96.4236025 122.407413,96.2496894 C122.605097,96.1279503 122.795367,95.9838509 122.980695,95.8124224 C123.05112,95.747205 123.120309,95.6776398 123.186409,95.6062112 L123.308726,95.4726708 L123.308726,95.4689441 C123.511969,95.2236025 123.681236,94.9503106 123.812819,94.6571429 L123.889421,94.4857143 L123.120309,94.4857143 L123.120309,94.4857143 Z" id="Shape" fill="#FFFFFF" sketch:type="MSShapeGroup"></path>
            </g>
        </g>
    </g>
</svg>