<?xml version="1.0" encoding="UTF-8" standalone="no"?>
<svg width="300px" height="94px" viewBox="0 0 300 94" version="1.1" xmlns="http://www.w3.org/2000/svg" xmlns:xlink="http://www.w3.org/1999/xlink" xmlns:sketch="http://www.bohemiancoding.com/sketch/ns">
    <!-- Generator: bin/sketchtool 1.3 (252) - http://www.bohemiancoding.com/sketch -->
    <title>logo--medium</title>
    <desc>Created with bin/sketchtool.</desc>
    <defs>
        <path d="M0.571621622,0.392931677 L0.571621622,39.9675155 L2.24826255,39.9675155 L2.24826255,34.2171677 C3.29362934,36.1497143 4.81042471,37.6910807 6.79864865,38.8342609 C8.78745174,39.9762733 10.8301158,40.5478634 12.9237452,40.5478634 C16.3783784,40.5478634 19.3175676,39.3246957 21.7436293,36.8806957 C24.1679537,34.435528 25.3777992,31.5069317 25.3777992,28.0954907 C25.3777992,24.6822981 24.1679537,21.7566211 21.7436293,19.3102857 C19.3175676,16.8674534 16.3783784,15.6425342 12.9237452,15.6425342 C10.7623552,15.6425342 8.67509653,16.2246335 6.66949807,17.3841615 C4.66447876,18.5448571 3.18822394,20.0914783 2.24826255,22.0263602 L2.24826255,0.392931677 L0.571621622,0.392931677 L0.571621622,0.392931677 Z M5.35945946,35.8245093 C3.21544402,33.6613416 2.13938224,31.1005714 2.13938224,28.1480373 C2.13938224,25.192 3.21544402,22.6183851 5.35945946,20.4184348 C7.50810811,18.220236 10.0447876,17.1185093 12.9764479,17.1185093 C15.9069498,17.1185093 18.4279923,18.2097267 20.5389961,20.3921615 C22.6494208,22.5740124 23.7052124,25.1511304 23.7052124,28.1205963 C23.7052124,31.0935652 22.6563707,33.6613416 20.5644788,35.8245093 C18.4702703,37.9865093 15.9492278,39.0701366 13.0019305,39.0701366 C10.0528958,39.0701366 7.50810811,37.9865093 5.35945946,35.8245093 L5.35945946,35.8245093 Z" id="path-1"></path>
        <path id="path-3" d="M19.488417,0.460658385 L19.488417,14.2850807 C19.488417,16.7080621 18.5745174,18.8210186 16.7415058,20.6146087 C14.9090734,22.4076149 12.7899614,23.3061615 10.3824324,23.3061615 C7.97664093,23.3061615 5.92644788,22.4076149 4.23359073,20.6146087 C2.53841699,18.8210186 1.69343629,16.7080621 1.69343629,14.2850807 L1.69343629,0.460658385 L0.0202702703,0.460658385 L0.0202702703,14.2850807 C0.0202702703,17.2025839 1.01293436,19.6827826 3.0011583,21.7233416 C4.98996139,23.7644845 7.4507722,24.7838882 10.3824324,24.7838882 C14.6750965,24.7838882 17.7086873,22.9885466 19.488417,19.4001988 L19.488417,24.2035404 L21.1633205,24.2035404 L21.1633205,0.460658385 L19.488417,0.460658385 L19.488417,0.460658385 Z"></path>
        <path id="path-5" d="M4.87818533,1.62252174 C3.5542471,2.39670807 2.57722008,3.38224845 1.94942085,4.57797516 L1.94942085,1.04450932 L0.273359073,1.04450932 L0.273359073,24.7873913 L1.94942085,24.7873913 L1.94942085,8.95744099 C1.94942085,7.09378882 2.65540541,5.45783851 4.06679537,4.04900621 C5.48223938,2.64309317 7.11081081,1.93838509 8.96003861,1.93838509 C10.8133205,1.93838509 12.5032819,2.71373913 14.03861,4.2632795 L14.03861,2.15032298 C12.5368726,1.02465839 10.969112,0.462409938 9.33011583,0.462409938 C7.68822394,0.462409938 6.20501931,0.850670807 4.87818533,1.62252174 L4.87818533,1.62252174 Z"></path>
        <path d="M4.0476834,4.13016149 C1.6007722,6.57649689 0.379343629,9.50217391 0.379343629,12.9153665 C0.379343629,16.3268075 1.6007722,19.2554037 4.0476834,21.7005714 C6.49459459,24.1445714 9.42625483,25.3677391 12.8438224,25.3677391 C15.0764479,25.3677391 17.1700772,24.7873913 19.1247104,23.6237764 C21.0793436,22.4642484 22.5451737,20.8825963 23.5227799,18.878236 L23.5227799,24.7873913 L25.1959459,24.7873913 L25.1959459,1.04450932 L23.5227799,1.04450932 L23.5227799,7.00445963 C22.7183398,5.03688199 21.3,3.45289441 19.2573359,2.25658385 C17.2175676,1.06144099 15.0764479,0.462409938 12.8438224,0.462409938 C9.42625483,0.462409938 6.49459459,1.68732919 4.0476834,4.13016149 L4.0476834,4.13016149 Z M5.27953668,20.6443851 C3.13146718,18.4812174 2.05598456,15.9204472 2.05598456,12.967913 C2.05598456,10.0118758 3.13146718,7.43826087 5.27953668,5.23831056 C7.43108108,3.0401118 9.96602317,1.93838509 12.8976834,1.93838509 C15.8299228,1.93838509 18.3515444,3.02960248 20.4590734,5.21203727 C22.572973,7.3938882 23.6281853,9.97100621 23.6281853,12.940472 C23.6281853,15.913441 22.5799228,18.4812174 20.4857143,20.6443851 C18.3920849,22.8063851 15.8704633,23.8900124 12.9249035,23.8900124 C9.97644788,23.8900124 7.43108108,22.8063851 5.27953668,20.6443851 L5.27953668,20.6443851 Z" id="path-7"></path>
        <path id="path-9" d="M19.6227799,0.460658385 L19.6227799,14.2850807 C19.6227799,16.7080621 18.7065637,18.8210186 16.8735521,20.6146087 C15.0416988,22.4076149 12.9208494,23.3061615 10.5144788,23.3061615 C8.10521236,23.3061615 6.05559846,22.4076149 4.36563707,20.6146087 C2.67220077,18.8210186 1.82432432,16.7080621 1.82432432,14.2850807 L1.82432432,0.460658385 L0.151158301,0.460658385 L0.151158301,14.2850807 C0.151158301,17.2025839 1.14498069,19.6827826 3.13378378,21.7233416 C5.12258687,23.7644845 7.58571429,24.7838882 10.5144788,24.7838882 C14.8071429,24.7838882 17.8442085,22.9885466 19.6227799,19.4001988 L19.6227799,24.2035404 L21.2953668,24.2035404 L21.2953668,0.460658385 L19.6227799,0.460658385 L19.6227799,0.460658385 Z"></path>
        <path id="path-11" d="M0.571621622,0.560496894 L0.571621622,40.0895404 L2.24826255,40.0895404 L2.24826255,26.2662857 C2.24826255,23.8398012 3.1546332,21.7262609 4.96969112,19.9332547 C6.78185328,18.1402484 8.89285714,17.2417019 11.3015444,17.2417019 C13.7096525,17.2417019 15.7679537,18.1309068 17.4781853,19.9058137 C19.188417,21.682472 20.0397683,23.8030186 20.0397683,26.2662857 L20.0397683,40.0895404 L21.7164093,40.0895404 L21.7164093,26.2662857 C21.7164093,23.3446957 20.7121622,20.8644969 18.7065637,18.8245217 C16.7009653,16.7857143 14.230888,15.7639752 11.3015444,15.7639752 C7.00888031,15.7639752 3.99034749,17.488087 2.24826255,20.9351429 L2.24826255,0.560496894 L0.571621622,0.560496894 L0.571621622,0.560496894 Z"></path>
        <path d="M4.16756757,4.44402721 C1.72471042,6.89036261 0.504440154,9.81720733 0.504440154,13.2292322 C0.504440154,16.6424247 1.72471042,19.5716048 4.16756757,22.0167725 C6.61100386,24.4625241 9.54324324,25.6839402 12.9602317,25.6839402 C15.1934363,25.6839402 17.2870656,25.1024247 19.2416988,23.9423129 C21.196332,22.7804496 22.6604247,21.1987974 23.6380309,19.1915179 L23.6380309,25.1024247 L25.3123552,25.1024247 L25.3123552,1.35720733 L23.6380309,1.35720733 L23.6380309,7.32066075 C22.8353282,5.35016385 21.4129344,3.76676013 19.3720077,2.57161727 C17.3322394,1.37764211 15.1934363,0.776859504 12.9602317,0.776859504 C9.54324324,0.776859504 6.61100386,2.00177876 4.16756757,4.44402721 L4.16756757,4.44402721 Z M5.3976834,20.9605862 C3.2519305,18.7950831 2.17876448,16.2360645 2.17876448,13.2841142 C2.17876448,10.3269092 3.2519305,7.75095888 5.3976834,5.55217627 C7.54401544,3.35456137 10.080695,2.25458621 13.0146718,2.25458621 C15.9428571,2.25458621 18.4662162,3.3458036 20.5749035,5.52765454 C22.6876448,7.70775391 23.7411197,10.2837042 23.7411197,13.2555055 C23.7411197,16.2278906 22.6957529,18.7950831 20.6021236,20.9605862 C18.5084942,23.1225862 15.9868726,24.2073812 13.038417,24.2073812 C10.0911197,24.2073812 7.54401544,23.1225862 5.3976834,20.9605862 L5.3976834,20.9605862 Z" id="path-13"></path>
        <path id="path-15" d="M4.87818533,1.16186335 C3.5542471,1.93604969 2.57722008,2.92159006 1.94942085,4.11556522 L1.94942085,0.580347826 L0.273359073,0.580347826 L0.273359073,24.3255652 L1.94942085,24.3255652 L1.94942085,8.49386335 C1.94942085,6.63196273 2.65540541,4.99426087 4.06679537,3.58834783 C5.48223938,2.18243478 7.11081081,1.47772671 8.96003861,1.47772671 C10.8133205,1.47772671 12.5032819,2.25308075 14.03861,3.79970186 L14.03861,1.68908075 C12.5368726,0.564 10.969112,3.37507799e-14 9.33011583,3.37507799e-14 C7.68822394,3.37507799e-14 6.20501931,0.38884472 4.87818533,1.16186335 L4.87818533,1.16186335 Z"></path>
        <path d="M23.3872587,0.509701863 L23.3872587,22.1501366 C22.4438224,20.2135031 20.9710425,18.666882 18.965444,17.507354 C16.9581081,16.344323 14.873166,15.7639752 12.7117761,15.7639752 C9.25656371,15.7639752 6.31795367,16.9888944 3.89189189,19.4311429 C1.46525097,21.8774783 0.255405405,24.804323 0.255405405,28.2163478 C0.255405405,31.6295404 1.46525097,34.5587205 3.89189189,37.0038882 C6.31795367,39.4496398 9.25656371,40.6710559 12.7117761,40.6710559 C14.8030888,40.6710559 16.8445946,40.1000497 18.8328185,38.9568696 C20.8250965,37.8148571 22.3418919,36.2729068 23.3872587,34.3362733 L23.3872587,40.0895404 L25.0638996,40.0895404 L25.0638996,0.509701863 L23.3872587,0.509701863 L23.3872587,0.509701863 Z M5.06930502,35.9477019 C2.97683398,33.7821988 1.93030888,31.2150062 1.93030888,28.2426211 C1.93030888,25.2708199 2.98552124,22.6948696 5.09305019,20.5147702 C7.20752896,18.3329193 9.72857143,17.2417019 12.6567568,17.2417019 C15.5889961,17.2417019 18.1274131,18.341677 20.2749035,20.5392919 C22.4200772,22.7380745 23.4920849,25.3140248 23.4920849,28.2712298 C23.4920849,31.2231801 22.4200772,33.7821988 20.2749035,35.9477019 C18.1274131,38.1097019 15.5791506,39.1944969 12.6335907,39.1944969 C9.68397683,39.1944969 7.16293436,38.1097019 5.06930502,35.9477019 L5.06930502,35.9477019 Z" id="path-17"></path>
        <path id="path-19" d="M19.4907336,1.53085714 C18.0104247,2.55201242 17.0061776,3.90596273 16.4837838,5.59270807 C15.8559846,3.94099379 14.8581081,2.59638509 13.4971042,1.55654658 C12.1366795,0.519627329 10.7148649,0 9.23223938,0 C7.74903475,0 6.32027027,0.38884472 4.93899614,1.16186335 C3.56119691,1.93604969 2.52335907,2.8497764 1.82722008,3.90596273 L1.82722008,0.580347826 L0.151158301,0.580347826 L0.151158301,24.3255652 L1.82722008,24.3255652 L1.82722008,8.49386335 C1.82722008,6.63196273 2.52335907,4.99426087 3.92142857,3.58834783 C5.31602317,2.18243478 6.95444015,1.47772671 8.83841699,1.47772671 C10.7247104,1.47772671 12.3301158,2.17250932 13.6569498,3.56090683 C14.9803089,4.9522236 15.6451737,6.59576398 15.6451737,8.49386335 L15.6451737,24.3255652 L17.3183398,24.3255652 L17.3183398,8.49386335 C17.3183398,6.63196273 18.0411197,4.99426087 19.4907336,3.58834783 C20.9391892,2.18243478 22.5955598,1.47772671 24.4650579,1.47772671 C26.3281853,1.47772671 27.9266409,2.15732919 29.2528958,3.50952795 C30.5803089,4.86464596 31.2416988,6.56014907 31.2416988,8.60012422 L31.2416988,24.3255652 L32.9183398,24.3255652 L32.9183398,8.60012422 C32.9183398,5.96228571 32.1144788,3.87093168 30.5090734,2.32255901 C28.903668,0.774770186 27.0376448,0 24.9098456,0 C22.7785714,0 20.9762548,0.509701863 19.4907336,1.53085714 L19.4907336,1.53085714 Z"></path>
        <path d="M4.03436293,3.6671677 C1.59440154,6.11350311 0.372393822,9.04034783 0.372393822,12.4523727 C0.372393822,15.8655652 1.59440154,18.7947453 4.03436293,21.239913 C6.47779923,23.6856646 9.40598456,24.9070807 12.8299228,24.9070807 C15.0631274,24.9070807 17.1532819,24.3255652 19.1079151,23.1654534 C21.0590734,22.0035901 22.5283784,20.4219379 23.5025097,18.4146584 L23.5025097,24.3255652 L25.1791506,24.3255652 L25.1791506,0.580347826 L23.5025097,0.580347826 L23.5025097,6.54380124 C22.7050193,4.57330435 21.2797297,2.98990062 19.2399614,1.79475776 C17.1972973,0.600782609 15.0631274,0 12.8299228,0 C9.40598456,0 6.47779923,1.22491925 4.03436293,3.6671677 L4.03436293,3.6671677 Z M5.26563707,20.1837267 C3.12162162,18.0182236 2.0496139,15.459205 2.0496139,12.5072547 C2.0496139,9.55004969 3.12162162,6.97409938 5.26563707,4.77531677 C7.41081081,2.57770186 9.9492278,1.47772671 12.880888,1.47772671 C15.8096525,1.47772671 18.3312741,2.5689441 20.4451737,4.75079503 C22.5521236,6.93089441 23.6079151,9.50684472 23.6079151,12.478646 C23.6079151,15.4510311 22.5625483,18.0182236 20.4689189,20.1837267 C18.3747104,22.3457267 15.853668,23.4305217 12.9081081,23.4305217 C9.95617761,23.4305217 7.41081081,22.3457267 5.26563707,20.1837267 L5.26563707,20.1837267 Z" id="path-21"></path>
        <path id="path-23" d="M1.69054054,5.38310559 L1.69054054,0.580347826 L0.0144787645,0.580347826 L0.0144787645,24.3255652 L1.69054054,24.3255652 L1.69054054,10.5023106 C1.69054054,8.07582609 2.60675676,5.96228571 4.43918919,4.1692795 C6.27162162,2.37627329 8.39247104,1.47772671 10.7988417,1.47772671 C13.2081081,1.47772671 15.2542471,2.37627329 16.9476834,4.1692795 C18.6376448,5.96228571 19.4855212,8.07582609 19.4855212,10.5023106 L19.4855212,24.3255652 L21.1621622,24.3255652 L21.1621622,10.5023106 C21.1621622,7.5807205 20.1677606,5.10052174 18.1795367,3.06054658 C16.1872587,1.02173913 13.727027,3.37507799e-14 10.7988417,3.37507799e-14 C6.50559846,3.37507799e-14 3.47200772,1.79475776 1.69054054,5.38310559 L1.69054054,5.38310559 Z"></path>
        <path d="M3.72567568,3.72088199 C1.27876448,6.16663354 0.0567567568,9.0584472 0.0567567568,12.3998261 C0.0567567568,15.7423727 1.28918919,18.6721366 3.7523166,21.1861988 C6.21254826,23.7025963 9.1007722,24.9584596 12.4158301,24.9584596 L12.8878378,24.9584596 C13.8376448,24.9584596 14.7503861,24.8521988 15.6260618,24.6507702 C15.6469112,24.6466832 15.9388031,24.588882 16.4067568,24.4417516 C17.3704633,24.1474907 18.2866795,23.7230311 19.1490347,23.1701242 C19.7328185,22.8110559 20.3368726,22.3626584 20.9235521,21.8190932 C20.9305019,21.8109193 20.9403475,21.8021615 20.9507722,21.7916522 C21.1714286,21.588472 21.38861,21.369528 21.6023166,21.1365714 C21.6972973,21.0379006 21.7957529,20.9468199 21.8907336,20.8440621 L21.8907336,20.8201242 C22.5185328,20.0774658 23.0953668,19.2022733 23.5598456,18.1583478 L21.8907336,18.1583478 L21.8907336,18.1519255 C20.807722,19.7697764 19.4368726,21.0630062 17.7810811,22.0298634 C16.1218147,22.9978882 14.2488417,23.4813168 12.1546332,23.4813168 C10.0610039,23.4813168 7.87934363,22.5681739 5.61254826,20.7378012 L22.0471042,4.38063354 C19.4640927,1.49465839 16.3760618,0.0548819876 12.7824324,0.0548819876 C9.18880309,0.0548819876 6.16911197,1.27571429 3.72567568,3.72088199 L3.72567568,3.72088199 Z M1.73339768,12.2421863 C1.73339768,9.42685714 2.80888031,6.93965217 4.95694981,4.77531677 C7.10501931,2.61273292 9.56525097,1.53085714 12.3376448,1.53085714 C15.1140927,1.53085714 17.580695,2.48019876 19.746139,4.38063354 L4.51274131,19.6319876 C2.66003861,17.5172795 1.73339768,15.0545963 1.73339768,12.2421863 L1.73339768,12.2421863 Z" id="path-25"></path>
        <path d="M4.07722008,4.18154037 C1.63436293,6.62729193 0.415250965,9.51968944 0.415250965,12.8604845 C0.415250965,16.2059503 1.64247104,19.1322112 4.10444015,21.6468571 C6.56119691,24.1638385 9.4488417,25.419118 12.7644788,25.419118 L13.2364865,25.419118 C14.1897683,25.419118 15.0955598,25.3111056 15.9712355,25.1114286 C15.9932432,25.1055901 16.2868726,25.0460373 16.753668,24.9000745 C17.719112,24.6063975 18.6318533,24.1807702 19.5005792,23.6307826 C20.080888,23.2682112 20.6814672,22.8203975 21.2716216,22.2797516 C21.2820463,22.2692422 21.2918919,22.2616522 21.2994208,22.2511429 C21.522973,22.0491304 21.7332046,21.8301863 21.9474903,21.5954783 C22.0459459,21.4950559 22.1444015,21.4068944 22.2393822,21.3035528 L22.2393822,21.2796149 C22.8637066,20.5375404 23.4405405,19.6594286 23.9084942,18.6190062 L22.2393822,18.6190062 L22.2393822,18.612 C21.1598456,20.2304348 19.7855212,21.5224969 18.1297297,22.4905217 C16.4698842,23.4585466 14.5969112,23.942559 12.5032819,23.942559 C10.4096525,23.942559 8.22741313,23.0276646 5.96061776,21.1984596 L22.3951737,4.84187578 C19.8127413,1.95940373 16.7247104,0.514956522 13.1310811,0.514956522 C9.53571429,0.514956522 6.51833977,1.73870807 4.07722008,4.18154037 L4.07722008,4.18154037 Z M2.08841699,12.7045963 C2.08841699,9.88868323 3.15926641,7.40206211 5.30907336,5.23655901 C7.45366795,3.07397516 9.91100386,1.99209938 12.6880309,1.99209938 C15.4604247,1.99209938 17.9258687,2.9426087 20.0913127,4.84187578 L4.86081081,20.092646 C3.01158301,17.9796894 2.08841699,15.5187578 2.08841699,12.7045963 L2.08841699,12.7045963 Z" id="path-27"></path>
    </defs>
    <g id="Home" stroke="none" stroke-width="1" fill="none" fill-rule="evenodd" sketch:type="MSPage">
        <g sketch:type="MSArtboardGroup" transform="translate(-32.000000, -301.000000)" id="logo--medium">
            <g sketch:type="MSLayerGroup" transform="translate(32.000000, 301.000000)">
                <path d="M10.8243243,47.0875776 L33.7013514,72.5393913 L41.0965251,30.0531429 L7.87471042,18.9804099 L10.8243243,47.0875776 L10.8243243,47.0875776 Z M34.1762548,74.1986957 L10.1015444,47.4139503 L7.00366795,17.8903602 L41.9501931,29.5376025 L41.8945946,29.8610559 L34.1762548,74.1986957 L34.1762548,74.1986957 Z" id="Shape" fill="#FFFFFF" sketch:type="MSShapeGroup"></path>
                <path d="M6.92258687,56.0818012 L50.111583,66.0131056 L21.7662162,16.183764 L1.26544402,33.8102236 L6.92258687,56.0818012 L6.92258687,56.0818012 Z M51.6196911,67.1381863 L6.30752896,56.7193665 L0.419305019,33.5399006 L21.9677606,15.012559 L51.6196911,67.1381863 L51.6196911,67.1381863 Z" id="Shape" fill="#FFFFFF" sketch:type="MSShapeGroup"></path>
                <path d="M18.7685328,32.7756398 L11.2911197,63.5270683 L54.0596525,47.1348696 L38.4631274,16.1948571 L18.7685328,32.7756398 L18.7685328,32.7756398 Z M10.2185328,64.7508199 L18.0967181,32.3523478 L18.1911197,32.2729441 L38.7063707,15.0020497 L55.1102317,47.5441491 L10.2185328,64.7508199 L10.2185328,64.7508199 Z" id="Shape" fill="#FFFFFF" sketch:type="MSShapeGroup"></path>
                <rect id="Rectangle-path" fill="#FFFFFF" sketch:type="MSShapeGroup" x="17.0519305" y="0.374832298" width="21.2530888" height="0.759590062"></rect>
                <g id="Clipped" transform="translate(74.131274, 0.000000)">
                    <mask id="mask-2" sketch:name="Shape" fill="white">
                        <use xlink:href="#path-1"></use>
                    </mask>
                    <g id="Shape"></g>
                    <path d="M-18.9046332,22.6335652 L1.30621622,-0.445945342 L31.321332,26.2668112 L11.1104826,49.3463217 L-18.9046332,22.6335652 L-18.9046332,22.6335652 Z" id="Shape" fill="#FFFFFF" sketch:type="MSShapeGroup" mask="url(#mask-2)"></path>
                </g>
                <g id="Clipped" transform="translate(103.667954, 15.763975)">
                    <mask id="mask-4" sketch:name="Shape" fill="white">
                        <use xlink:href="#path-3"></use>
                    </mask>
                    <g id="Shape"></g>
                    <path d="M-9.27162162,11.0715652 L9.28123552,-10.1145752 L32.84861,10.8598609 L14.2957529,32.0460012 L-9.27162162,11.0715652 L-9.27162162,11.0715652 Z" id="Shape" fill="#FFFFFF" sketch:type="MSShapeGroup" mask="url(#mask-4)"></path>
                </g>
                <g id="Clipped" transform="translate(133.204633, 15.180124)">
                    <mask id="mask-6" sketch:name="Shape" fill="white">
                        <use xlink:href="#path-5"></use>
                    </mask>
                    <g id="Shape"></g>
                    <path d="M-11.411583,14.3878385 L5.75837838,-5.21910186 L18.3853089,6.01856894 L1.21534749,25.6255093 L-11.411583,14.3878385 L-11.411583,14.3878385 Z" id="Shape" fill="#FFFFFF" sketch:type="MSShapeGroup" mask="url(#mask-6)"></path>
                </g>
                <g id="Clipped" transform="translate(178.957529, 15.180124)">
                    <mask id="mask-8" sketch:name="Shape" fill="white">
                        <use xlink:href="#path-7"></use>
                    </mask>
                    <g id="Shape"></g>
                    <path d="M-4.9019305,14.001913 L14.6578958,-8.33412174 L36.8808301,11.4437702 L17.3210039,33.779805 L-4.9019305,14.001913 L-4.9019305,14.001913 Z" id="Shape" fill="#FFFFFF" sketch:type="MSShapeGroup" mask="url(#mask-8)"></path>
                </g>
                <g id="Clipped" transform="translate(209.652510, 15.763975)">
                    <mask id="mask-10" sketch:name="Shape" fill="white">
                        <use xlink:href="#path-9"></use>
                    </mask>
                    <g id="Shape"></g>
                    <path d="M-9.14015444,11.0709814 L9.41241313,-10.1148671 L32.9804247,10.8601528 L14.4278571,32.0460012 L-9.14015444,11.0709814 L-9.14015444,11.0709814 Z" id="Shape" fill="#FFFFFF" sketch:type="MSShapeGroup" mask="url(#mask-10)"></path>
                </g>
                <g id="Clipped" transform="translate(74.131274, 33.279503)">
                    <mask id="mask-12" sketch:name="Shape" fill="white">
                        <use xlink:href="#path-11"></use>
                    </mask>
                    <g id="Shape"></g>
                    <path d="M-18.8826255,22.7760248 L1.30581081,-0.277913043 L32.6433012,27.6117702 L12.4548649,50.6657081 L-18.8826255,22.7760248 L-18.8826255,22.7760248 Z" id="Shape" fill="#FFFFFF" sketch:type="MSShapeGroup" mask="url(#mask-12)"></path>
                </g>
                <g id="Clipped" transform="translate(101.351351, 48.266619)">
                    <mask id="mask-14" sketch:name="Shape" fill="white">
                        <use xlink:href="#path-13"></use>
                    </mask>
                    <g id="Shape"></g>
                    <path d="M-4.78320463,14.3222011 L14.7791699,-8.0168113 L36.9984556,11.7578694 L17.4360811,34.0968819 L-4.78320463,14.3222011 L-4.78320463,14.3222011 Z" id="Shape" fill="#FFFFFF" sketch:type="MSShapeGroup" mask="url(#mask-14)"></path>
                </g>
                <g id="Clipped" transform="translate(133.204633, 49.043478)">
                    <mask id="mask-16" sketch:name="Shape" fill="white">
                        <use xlink:href="#path-15"></use>
                    </mask>
                    <g id="Shape"></g>
                    <path d="M-11.4127413,13.9254286 L5.7569305,-5.68121988 L18.3850193,5.55750186 L1.21534749,25.1641503 L-11.4127413,13.9254286 L-11.4127413,13.9254286 Z" id="Shape" fill="#FFFFFF" sketch:type="MSShapeGroup" mask="url(#mask-16)"></path>
                </g>
                <g id="Clipped" transform="translate(149.420849, 33.279503)">
                    <mask id="mask-18" sketch:name="Shape" fill="white">
                        <use xlink:href="#path-17"></use>
                    </mask>
                    <g id="Shape"></g>
                    <path d="M-5.05714286,29.3256646 L22.3177413,-1.93470683 L44.543166,17.8454621 L17.1682819,49.1058335 L-5.05714286,29.3256646 L-5.05714286,29.3256646 Z" id="Shape" fill="#FFFFFF" sketch:type="MSShapeGroup" mask="url(#mask-18)"></path>
                </g>
                <g id="Clipped" transform="translate(209.652510, 49.043478)">
                    <mask id="mask-20" sketch:name="Shape" fill="white">
                        <use xlink:href="#path-19"></use>
                    </mask>
                    <g id="Shape"></g>
                    <path d="M-11.5349421,13.9254286 L12.649112,-13.6911876 L42.7504054,13.098287 L18.5663514,40.7149031 L-11.5349421,13.9254286 L-11.5349421,13.9254286 Z" id="Shape" fill="#FFFFFF" sketch:type="MSShapeGroup" mask="url(#mask-20)"></path>
                </g>
                <g id="Clipped" transform="translate(246.718147, 49.043478)">
                    <mask id="mask-22" sketch:name="Shape" fill="white">
                        <use xlink:href="#path-21"></use>
                    </mask>
                    <g id="Shape"></g>
                    <path d="M-4.91467181,13.5465093 L14.6477606,-8.79250311 L36.8654247,10.980718 L17.3029923,33.3197304 L-4.91467181,13.5465093 L-4.91467181,13.5465093 Z" id="Shape" fill="#FFFFFF" sketch:type="MSShapeGroup" mask="url(#mask-22)"></path>
                </g>
                <g id="Clipped" transform="translate(278.571429, 49.043478)">
                    <mask id="mask-24" sketch:name="Shape" fill="white">
                        <use xlink:href="#path-23"></use>
                    </mask>
                    <g id="Shape"></g>
                    <path d="M-11.6716216,13.9254286 L6.88094595,-7.26041988 L30.4520849,13.7174025 L11.8995174,34.9032509 L-11.6716216,13.9254286 L-11.6716216,13.9254286 Z" id="Shape" fill="#FFFFFF" sketch:type="MSShapeGroup" mask="url(#mask-24)"></path>
                </g>
                <g id="Clipped" transform="translate(180.694981, 49.043478)">
                    <mask id="mask-26" sketch:name="Shape" fill="white">
                        <use xlink:href="#path-25"></use>
                    </mask>
                    <g id="Shape"></g>
                    <path d="M-5.19034749,13.5540994 L11.5433977,-5.55475776 L30.3507915,11.1833727 L13.6170463,30.2922298 L-5.19034749,13.5540994 L-5.19034749,13.5540994 Z" id="Shape" fill="#FFFFFF" sketch:type="MSShapeGroup" mask="url(#mask-26)"></path>
                </g>
                <g id="Clipped" transform="translate(150.579151, 15.180124)">
                    <mask id="mask-28" sketch:name="Shape" fill="white">
                        <use xlink:href="#path-27"></use>
                    </mask>
                    <g id="Shape"></g>
                    <path d="M-4.83822394,14.0188447 L11.8937838,-5.08802733 L30.6966602,11.6461329 L13.9646525,30.753005 L-4.83822394,14.0188447 L-4.83822394,14.0188447 Z" id="Shape" fill="#FFFFFF" sketch:type="MSShapeGroup" mask="url(#mask-28)"></path>
                </g>
                <path d="M75.9955598,89.6818385 C75.611583,89.2994161 75.4169884,88.8107329 75.4169884,88.2298012 L75.4169884,84.416087 L77.4996139,84.416087 L77.4996139,83.7615901 L75.4169884,83.7615901 L75.4169884,80.9941366 L74.7069498,80.9941366 L74.7069498,88.2298012 C74.7069498,89.0080745 74.9727799,89.6573168 75.4969112,90.1600124 C76.0198842,90.6609565 76.6604247,90.9149317 77.4005792,90.9149317 L77.5146718,90.9149317 L77.5146718,90.2575155 L77.4005792,90.2575155 C76.8527027,90.2575155 76.3801158,90.0642609 75.9955598,89.6818385" id="Shape" fill="#FFFFFF" sketch:type="MSShapeGroup"></path>
                <path d="M84.3173745,85.1441491 C84.9,85.7443478 85.1953668,86.4665714 85.1953668,87.2909689 C85.1953668,88.1264596 84.9098456,88.8270807 84.3220077,89.4325342 C83.7451737,90.0315652 83.0397683,90.3351677 82.2243243,90.3351677 C81.3984556,90.3351677 80.7046332,90.0397391 80.1011583,89.4313665 C79.507529,88.8317516 79.2063707,88.1147826 79.2063707,87.2991429 C79.2063707,86.4829193 79.507529,85.7606957 80.1017375,85.1511553 C80.7046332,84.5346087 81.396139,84.2345093 82.2162162,84.2345093 C83.0299228,84.2345093 83.7359073,84.5404472 84.3173745,85.1441491 L84.3173745,85.1441491 Z M85.1669884,85.1097019 C84.9167954,84.7120994 84.5623552,84.3769689 84.1083012,84.1113168 C83.5013514,83.7586708 82.8608108,83.5800124 82.2028958,83.5800124 C81.1882239,83.5800124 80.3079151,83.9472547 79.5862934,84.670646 C78.8617761,85.3963727 78.4945946,86.2756522 78.4945946,87.2845466 C78.4945946,88.2957764 78.8623552,89.1762236 79.5862934,89.8990311 C80.3079151,90.6230062 81.1882239,90.9896646 82.2028958,90.9896646 C82.8642857,90.9896646 83.4926641,90.815677 84.0712355,90.471205 C84.522973,90.2020497 84.8901544,89.8534907 85.1669884,89.4325342 L85.1669884,90.8238509 L85.8776062,90.8238509 L85.8776062,83.7458261 L85.1669884,83.7458261 L85.1669884,85.1097019 L85.1669884,85.1097019 Z" id="Shape" fill="#FFFFFF" sketch:type="MSShapeGroup"></path>
                <path d="M92.5117761,83.7458261 L91.7559846,83.7458261 L90.3086873,85.9650435 L88.8579151,83.7458261 L88.0245174,83.7458261 L89.8986486,86.5996894 L87.1528958,90.8238509 L87.907529,90.8238509 L90.2756757,87.1882112 L92.6600386,90.8238509 L93.4928571,90.8238509 L90.6816602,86.5547329 L92.5117761,83.7458261 L92.5117761,83.7458261 Z" id="Shape" fill="#FFFFFF" sketch:type="MSShapeGroup"></path>
                <path d="M104.111004,90.3351677 C103.293243,90.3351677 102.579151,90.0309814 101.98668,89.4313665 C101.384363,88.8276646 101.091313,88.1299627 101.091313,87.2991429 C101.091313,86.48 101.39305,85.7571925 101.987838,85.1511553 C102.57973,84.5433665 103.291506,84.2345093 104.104054,84.2345093 C104.92529,84.2345093 105.611583,84.5316894 106.201737,85.1441491 C106.787259,85.7484348 107.083784,86.4706584 107.083784,87.2909689 C107.083784,88.1118634 106.790154,88.8323354 106.209846,89.4325342 C105.630695,90.0309814 104.924131,90.3351677 104.111004,90.3351677 M104.0861,83.5800124 C103.444981,83.5800124 102.818919,83.754 102.227027,84.0961366 C101.766602,84.3623727 101.395946,84.7021739 101.121429,85.1097019 L101.121429,83.7458261 L100.409653,83.7458261 L100.409653,93.8662981 L101.121429,93.8662981 L101.121429,89.4500497 C101.412741,89.8645839 101.796139,90.2113913 102.264672,90.482882 C102.855985,90.819764 103.469305,90.9902484 104.0861,90.9902484 C105.113514,90.9902484 105.996718,90.6230062 106.71139,89.8990311 C107.429537,89.174472 107.793822,88.2946087 107.793822,87.2845466 C107.793822,86.2768199 107.429537,85.3975404 106.71139,84.6718137 C105.996718,83.9472547 105.113514,83.5800124 104.0861,83.5800124" id="Shape" fill="#FFFFFF" sketch:type="MSShapeGroup"></path>
                <path d="M120.445946,83.5800124 C119.328185,83.5800124 118.4861,83.996882 117.937066,84.8201118 L117.937066,83.7458261 L117.22529,83.7458261 L117.22529,90.8244348 L117.937066,90.8244348 L117.937066,86.722882 C117.937066,86.0473665 118.184363,85.4769441 118.693436,84.9795031 C119.194981,84.4855652 119.784556,84.2350932 120.445946,84.2350932 C121.114865,84.2350932 121.669112,84.4773913 122.138803,84.976 C122.611969,85.4781118 122.841313,86.049118 122.841313,86.722882 L122.841313,90.8244348 L123.551931,90.8244348 L123.551931,86.722882 C123.551931,85.8541118 123.250193,85.1050311 122.655985,84.4966584 C122.063514,83.8882857 121.319884,83.5800124 120.445946,83.5800124" id="Shape" fill="#FFFFFF" sketch:type="MSShapeGroup"></path>
                <path d="M128.281853,86.7608323 C127.925676,86.5366335 127.610618,86.3492174 127.318726,86.1886584 C127.017568,86.0205093 126.750579,85.8295901 126.52471,85.6194037 C126.322008,85.4284845 126.222973,85.2270559 126.222973,85.003441 C126.222973,84.7809938 126.308108,84.6 126.483012,84.4493665 C126.662548,84.2958137 126.871042,84.2181615 127.103282,84.2181615 C127.559653,84.2181615 127.927413,84.439441 128.230309,84.8960124 L128.438803,85.2107081 L128.438803,84.1661988 L128.408687,84.1335031 C128.066409,83.7563354 127.647104,83.5642484 127.163514,83.5642484 C126.681081,83.5642484 126.283205,83.6997019 125.981467,83.965354 C125.669305,84.2350932 125.511197,84.5708075 125.511197,84.9631553 C125.511197,85.3531677 125.634556,85.6953043 125.876641,85.9802236 C126.107143,86.2563851 126.391506,86.4951801 126.722201,86.6919379 C127.038996,86.8764348 127.358687,87.0679379 127.678958,87.2600248 C127.992857,87.4497764 128.260425,87.6774783 128.473552,87.9367081 C128.682625,88.1906832 128.784556,88.4977888 128.784556,88.8755404 C128.784556,89.2392795 128.617761,89.5767453 128.288803,89.8785963 C127.952896,90.1816149 127.53417,90.3351677 127.04305,90.3351677 C126.240927,90.3351677 125.672201,89.9393168 125.30444,89.1242609 L125.087259,88.642 L125.087259,89.9334783 L125.102317,89.9597516 C125.277799,90.2744472 125.550579,90.5278385 125.911969,90.7123354 C126.27278,90.8968323 126.669498,90.9902484 127.089961,90.9902484 C127.750193,90.9902484 128.322394,90.7672174 128.789768,90.3269938 C129.258301,89.8856025 129.496332,89.3426211 129.496332,88.7143975 C129.496332,88.2823478 129.374131,87.8970062 129.134363,87.5682981 C128.899807,87.2413416 128.612548,86.9698509 128.281853,86.7608323" id="Shape" fill="#FFFFFF" sketch:type="MSShapeGroup"></path>
                <path d="M131.63166,81.266795 C131.276062,81.266795 131.080309,81.4536273 131.080309,81.7922609 C131.080309,82.1308944 131.276062,82.3177267 131.63166,82.3177267 C131.987259,82.3177267 132.183012,82.1308944 132.183012,81.7922609 C132.183012,81.4536273 131.987259,81.266795 131.63166,81.266795" id="Shape" fill="#FFFFFF" sketch:type="MSShapeGroup"></path>
                <rect id="Rectangle-path" fill="#FFFFFF" sketch:type="MSShapeGroup" x="131.27722" y="83.7615901" width="0.711776062" height="7.06226087"></rect>
                <path d="M140.467761,87.2909689 C140.467761,88.1264596 140.18166,88.8270807 139.593822,89.4325342 C139.016988,90.0315652 138.311583,90.3351677 137.494981,90.3351677 C136.67027,90.3351677 135.976448,90.0397391 135.372973,89.4313665 C134.777606,88.8311677 134.47529,88.1141988 134.47529,87.298559 C134.47529,86.4835031 134.777606,85.7612795 135.373552,85.1511553 C135.976448,84.5346087 136.668533,84.2345093 137.488031,84.2345093 C138.311004,84.2345093 138.997297,84.5316894 139.586293,85.1447329 C140.171236,85.7449317 140.467761,86.4671553 140.467761,87.2909689 M137.48166,83.5794286 C136.463514,83.5794286 135.580309,83.9466708 134.85695,84.670646 C134.13417,85.3934534 133.766988,86.2628075 133.766988,87.2541863 C133.766988,88.2455652 134.127799,89.1248447 134.839575,89.8669193 C135.551931,90.611913 136.417181,90.9896646 137.411583,90.9896646 L137.548263,90.9896646 C138.551931,90.9896646 139.417181,90.6148323 140.12027,89.8745093 C140.822201,89.139441 141.177799,88.2601615 141.177799,87.2617764 C141.177799,86.2651429 140.814672,85.3934534 140.098263,84.670646 C139.380116,83.9466708 138.499807,83.5794286 137.48166,83.5794286" id="Shape" fill="#FFFFFF" sketch:type="MSShapeGroup"></path>
                <path d="M145.984749,83.5800124 C144.865251,83.5800124 144.022008,83.996882 143.474131,84.8189441 L143.474131,83.7458261 L142.762355,83.7458261 L142.762355,90.8244348 L143.474131,90.8244348 L143.474131,86.722882 C143.474131,86.0479503 143.722008,85.4781118 144.232239,84.9795031 C144.743629,84.4779752 145.317568,84.2350932 145.984749,84.2350932 C146.644981,84.2350932 147.214286,84.4843975 147.677606,84.976 C148.148456,85.4757764 148.376641,86.0473665 148.376641,86.722882 L148.376641,90.8244348 L149.088996,90.8244348 L149.088996,86.722882 C149.088996,85.853528 148.788417,85.1044472 148.196525,84.4966584 C147.601737,83.8882857 146.857529,83.5800124 145.984749,83.5800124" id="Shape" fill="#FFFFFF" sketch:type="MSShapeGroup"></path>
                <path d="M157.421236,83.6611677 C157.421236,83.0767329 157.614672,82.5886335 157.996332,82.2091304 C158.384942,81.8214534 158.845367,81.6328696 159.403089,81.6328696 L159.517181,81.6328696 L159.517181,80.9760373 L159.403089,80.9760373 C158.658301,80.9760373 158.017761,81.2300124 157.498842,81.7315404 C156.974131,82.2359876 156.707722,82.8852298 156.707722,83.6611677 L156.707722,90.8238509 L157.421236,90.8238509 L157.421236,88.2046957 L159.53166,88.2046957 L159.53166,87.5472795 L157.421236,87.5472795 L157.421236,83.6611677 L157.421236,83.6611677 Z" id="Shape" fill="#FFFFFF" sketch:type="MSShapeGroup"></path>
                <path d="M161.442278,81.266795 C161.084363,81.266795 160.887452,81.4536273 160.887452,81.7922609 C160.887452,82.1308944 161.084363,82.3177267 161.442278,82.3177267 C161.79556,82.3177267 161.990154,82.1308944 161.990154,81.7922609 C161.990154,81.4536273 161.79556,81.266795 161.442278,81.266795" id="Shape" fill="#FFFFFF" sketch:type="MSShapeGroup"></path>
                <rect id="Rectangle-path" fill="#FFFFFF" sketch:type="MSShapeGroup" x="161.084363" y="83.7615901" width="0.711776062" height="7.06226087"></rect>
                <path d="M167.17529,83.5800124 C166.055212,83.5800124 165.213127,83.9962981 164.666409,84.8183602 L164.666409,83.7458261 L163.952896,83.7458261 L163.952896,90.8244348 L164.666409,90.8244348 L164.666409,86.722882 C164.666409,86.0467826 164.912548,85.4763602 165.419305,84.9795031 C165.924324,84.4855652 166.515058,84.2350932 167.17529,84.2350932 C167.84305,84.2350932 168.396718,84.4773913 168.868147,84.976 C169.338996,85.4757764 169.567181,86.0473665 169.567181,86.722882 L169.567181,90.8244348 L170.279537,90.8244348 L170.279537,86.722882 C170.279537,85.8529441 169.978378,85.1038634 169.385328,84.4966584 C168.792857,83.8882857 168.049228,83.5800124 167.17529,83.5800124" id="Shape" fill="#FFFFFF" sketch:type="MSShapeGroup"></path>
                <path d="M177.689189,85.1447329 C178.276448,85.7472671 178.574131,86.4694907 178.574131,87.2909689 C178.574131,88.1247081 178.286873,88.8253292 177.69556,89.4325342 C177.117568,90.0315652 176.410425,90.3351677 175.594402,90.3351677 C174.765058,90.3351677 174.069498,90.0397391 173.466023,89.4313665 C172.872394,88.8317516 172.571815,88.1147826 172.571815,87.2991429 C172.571815,86.4829193 172.872394,85.7606957 173.466602,85.1517391 C174.069498,84.5346087 174.762741,84.2345093 175.584556,84.2345093 C176.408108,84.2345093 177.096718,84.5316894 177.689189,85.1447329 L177.689189,85.1447329 Z M178.540541,85.1085342 C178.290927,84.7115155 177.935328,84.3775528 177.480116,84.1113168 C176.873166,83.7586708 176.231467,83.5800124 175.571236,83.5800124 C174.557722,83.5800124 173.676255,83.9472547 172.951737,84.6712298 C172.226641,85.3963727 171.860039,86.2756522 171.860039,87.2845466 C171.860039,88.2957764 172.22722,89.1762236 172.951737,89.8990311 C173.676255,90.6230062 174.557722,90.9896646 175.571236,90.9896646 C176.234363,90.9896646 176.864479,90.815677 177.444208,90.471205 C177.897104,90.2020497 178.264865,89.8546584 178.540541,89.4342857 L178.540541,90.8238509 L179.252317,90.8238509 L179.252317,83.7458261 L178.540541,83.7458261 L178.540541,85.1085342 L178.540541,85.1085342 Z" id="Shape" fill="#FFFFFF" sketch:type="MSShapeGroup"></path>
                <path d="M184.444402,83.5800124 C183.322587,83.5800124 182.478185,83.9974658 181.928571,84.8201118 L181.928571,83.7458261 L181.216795,83.7458261 L181.216795,90.8244348 L181.928571,90.8244348 L181.928571,86.722882 C181.928571,86.0508696 182.177606,85.4810311 182.688417,84.9795031 C183.189961,84.4855652 183.780695,84.2350932 184.444402,84.2350932 C185.112741,84.2350932 185.66583,84.4773913 186.134363,84.976 C186.60695,85.4781118 186.836293,86.049118 186.836293,86.722882 L186.836293,90.8244348 L187.548649,90.8244348 L187.548649,86.722882 C187.548649,85.8511925 187.246332,85.1026957 186.651544,84.4972422 C186.061969,83.8888696 185.319498,83.5800124 184.444402,83.5800124" id="Shape" fill="#FFFFFF" sketch:type="MSShapeGroup"></path>
                <path d="M192.897683,83.6103727 C191.845946,83.6103727 190.945367,83.9770311 190.221429,84.6998385 C189.496911,85.4208944 189.12973,86.2925839 189.12973,87.2915528 C189.12973,88.2887702 189.492278,89.1686335 190.206371,89.9054534 C190.917568,90.6463602 191.782819,91.0229441 192.777799,91.0229441 L192.911004,91.0229441 C193.97722,91.0229441 194.883591,90.6154161 195.605212,89.8114534 L195.634749,89.7793416 L195.634749,88.5532547 L195.425097,88.8778758 C195.130888,89.3350311 194.746332,89.7016894 194.283012,89.9679255 C193.819112,90.2341615 193.346525,90.3631925 192.837452,90.3631925 C192.035328,90.3631925 191.327606,90.0613416 190.735714,89.4640621 C190.142085,88.8667826 189.841506,88.1433913 189.841506,87.3149068 C189.841506,86.4870062 190.142085,85.7641988 190.735714,85.1663354 C191.325869,84.568472 192.033591,84.2654534 192.837452,84.2654534 C193.34305,84.2654534 193.816216,84.3950683 194.283012,84.6607205 C194.742278,84.9234534 195.126255,85.285441 195.426255,85.7373416 L195.634749,86.0508696 L195.634749,84.8516398 L195.604054,84.8189441 C194.86332,84.0167329 193.952896,83.6103727 192.897683,83.6103727" id="Shape" fill="#FFFFFF" sketch:type="MSShapeGroup"></path>
                <path d="M197.479344,87.2238261 C197.479344,86.448472 197.781081,85.7507702 198.375869,85.1517391 C198.970077,84.5521242 199.659846,84.2485217 200.424903,84.2485217 C201.153475,84.2485217 201.815444,84.4884845 202.393436,84.9625714 L198.173166,89.1867329 C197.712741,88.6221491 197.479344,87.9623975 197.479344,87.2238261 L197.479344,87.2238261 Z M203.117375,88.8165714 L203.085521,88.8644472 C202.785521,89.3140124 202.398649,89.6783354 201.937645,89.9480745 C201.478958,90.2154783 200.951931,90.3515155 200.372201,90.3515155 C199.827799,90.3515155 199.250965,90.1203106 198.656757,89.664323 L203.305019,85.0378882 L203.382625,84.960236 L203.309653,84.8790807 C202.546911,84.0260745 201.619691,83.593441 200.552896,83.593441 C199.489575,83.593441 198.583205,83.9606832 197.860425,84.6846584 C197.135328,85.4086335 196.768147,86.2785714 196.768147,87.2693665 C196.768147,88.2607453 197.137645,89.1406087 197.867375,89.8850186 C198.594208,90.6294286 199.462355,91.0065963 200.44749,91.0065963 L200.583591,91.0065963 C200.861583,91.0065963 201.135521,90.976236 201.385714,90.9178509 C201.40251,90.9155155 201.495174,90.8962484 201.631274,90.8530435 C201.919112,90.7654658 202.194788,90.6381863 202.449035,90.4747081 C202.634363,90.3602733 202.812741,90.2248199 202.986486,90.063677 C203.05251,90.0023727 203.117375,89.9369814 203.179344,89.8698385 L203.294015,89.7443106 L203.294015,89.7408075 C203.484556,89.5101863 203.643243,89.2532919 203.766602,88.9777143 L203.838417,88.8165714 L203.117375,88.8165714 L203.117375,88.8165714 Z" id="Shape" fill="#FFFFFF" sketch:type="MSShapeGroup"></path>
                <path d="M109.787259,87.2238261 C109.787259,86.448472 110.088996,85.7507702 110.683784,85.1517391 C111.277992,84.5521242 111.967761,84.2485217 112.732819,84.2485217 C113.46139,84.2485217 114.123359,84.4884845 114.701351,84.9625714 L110.481081,89.1867329 C110.020656,88.6221491 109.787259,87.9623975 109.787259,87.2238261 L109.787259,87.2238261 Z M115.42529,88.8165714 L115.393436,88.8644472 C115.093436,89.3140124 114.706564,89.6783354 114.24556,89.9480745 C113.786873,90.2154783 113.259846,90.3515155 112.680116,90.3515155 C112.135714,90.3515155 111.55888,90.1203106 110.964672,89.664323 L115.612934,85.0378882 L115.690541,84.960236 L115.617568,84.8790807 C114.854826,84.0260745 113.927606,83.593441 112.860811,83.593441 C111.79749,83.593441 110.89112,83.9606832 110.16834,84.6846584 C109.443243,85.4086335 109.076062,86.2785714 109.076062,87.2693665 C109.076062,88.2607453 109.44556,89.1406087 110.17471,89.8850186 C110.902124,90.6294286 111.77027,91.0065963 112.754826,91.0065963 L112.890927,91.0065963 C113.169498,91.0065963 113.443436,90.976236 113.693629,90.9178509 C113.710425,90.9155155 113.803089,90.8962484 113.939189,90.8530435 C114.227027,90.7654658 114.502703,90.6381863 114.75695,90.4747081 C114.942278,90.3602733 115.120656,90.2248199 115.294402,90.063677 C115.360425,90.0023727 115.42529,89.9369814 115.487259,89.8698385 L115.601931,89.7443106 L115.601931,89.7408075 C115.792471,89.5101863 115.951158,89.2532919 116.074517,88.9777143 L116.146332,88.8165714 L115.42529,88.8165714 L115.42529,88.8165714 Z" id="Shape" fill="#FFFFFF" sketch:type="MSShapeGroup"></path>
            </g>
        </g>
    </g>
</svg>